<svg width="103" height="103" fill="none" xmlns="http://www.w3.org/2000/svg"><path d="M96.965 17.3H6.035A6.042 6.042 0 000 23.337v56.328A6.042 6.042 0 006.035 85.7h90.93A6.042 6.042 0 00103 79.664V23.336a6.042 6.042 0 00-6.035-6.035zm2.012 62.364c0 1.11-.903 2.012-2.012 2.012H6.035a2.014 2.014 0 01-2.012-2.012V23.336c0-1.11.903-2.012 2.012-2.012h90.93c1.11 0 2.012.903 2.012 2.012v56.328z" fill="#222328"/><path d="M92.942 25.348H10.059c-1.111 0-2.012.9-2.012 2.011v48.282c0 1.11.9 2.011 2.012 2.011h32.39a2.012 2.012 0 100-4.023H12.07V29.37h78.86v44.26H60.554a2.012 2.012 0 000 4.023h32.388c1.11 0 2.011-.9 2.011-2.011V27.359c0-1.11-.9-2.011-2.011-2.011z" fill="#222328"/><path d="M16.094 56.707v2.84c0 1.111.9 2.012 2.011 2.012h19.881c1.111 0 2.012-.9 2.012-2.012v-2.84c0-3.877-1.847-7.426-4.925-9.658a7.64 7.64 0 00.665-3.122v-2.84c0-4.242-3.45-7.693-7.692-7.693-4.241 0-7.692 3.451-7.692 7.693v2.84c0 1.111.239 2.167.665 3.122a11.88 11.88 0 00-4.925 9.658zm8.283-15.62a3.673 3.673 0 013.669-3.669 3.673 3.673 0 013.668 3.669v2.84a3.673 3.673 0 01-3.668 3.668 3.673 3.673 0 01-3.669-3.668v-2.84zm-4.26 15.62c0-2.6 1.326-5.059 3.453-6.53a7.648 7.648 0 004.476 1.441c1.67 0 3.216-.536 4.478-1.444a7.886 7.886 0 013.45 6.533v.828H20.118v-.828zm-2.012 12.899h19.881a2.012 2.012 0 000-4.024h-19.88a2.012 2.012 0 100 4.024zM51.5 37.418h33.394a2.012 2.012 0 000-4.023H51.5a2.012 2.012 0 100 4.023zm0 16.094h33.394a2.012 2.012 0 000-4.024H51.5a2.012 2.012 0 100 4.024zm0 8.047h33.394a2.012 2.012 0 000-4.024H51.5a2.012 2.012 0 100 4.024zm33.394 4.023H68.197a2.012 2.012 0 000 4.024h16.697a2.012 2.012 0 000-4.024zm-33.392 8.047H51.5a2.011 2.011 0 10.002 4.023 2.012 2.012 0 000-4.023z" fill="#222328"/></svg>