<svg width="104" height="103" fill="none" xmlns="http://www.w3.org/2000/svg"><path d="M100.445 7.028H3.555C1.595 7.028 0 8.608 0 10.548V22.94c0 1.95 3.047 1.95 3.047 0V10.549c0-.277.228-.503.508-.503h96.89c.28 0 .508.226.508.503v73.576a.506.506 0 01-.508.503H80.923v-3.14h15.322c.842 0 1.523-.675 1.523-1.508v-15.8c0-1.95-3.046-1.95-3.046 0v14.291h-13.8v-6.694l.147.012c1.265.11 2.838.247 3.927-.834 1.089-1.08.951-2.64.84-3.893-.119-1.344.01-1.712 1.053-2.572 2.688-2.213 2.737-4.582 0-6.836-1.043-.86-1.171-1.227-1.052-2.572.298-3.375-1.294-5.03-4.768-4.727-1.356.118-1.724-.01-2.588-1.043-2.231-2.668-4.625-2.717-6.897 0-.865 1.033-1.233 1.161-2.588 1.043-3.41-.297-5.073 1.289-4.768 4.727.118 1.345-.01 1.713-1.053 2.572-2.687 2.213-2.737 4.583 0 6.836 1.044.86 1.171 1.228 1.053 2.573-.32 3.615 1.423 5.012 4.913 4.714v6.695H9.28v-62.27h85.443v39.931c0 1.95 3.047 1.95 3.047 0V14.694c0-.833-.682-1.509-1.524-1.509H7.755c-.841 0-1.523.676-1.523 1.509V79.98c0 .833.682 1.509 1.523 1.509h61.386v3.14H3.555a.506.506 0 01-.508-.504v-53.54c0-1.951-3.047-1.951-3.047 0v53.54c0 1.941 1.595 3.52 3.555 3.52H69.14v6.83c.217 1.24.94 1.697 2.166 1.369l3.725-1.716 3.725 1.716c.921.424 2.166-.247 2.166-1.368v-6.83h19.522c1.96 0 3.555-1.58 3.555-3.52V10.548c0-1.941-1.595-3.52-3.555-3.52zM68.728 68.783c-1.525.133-1.599.052-1.465-1.457.204-2.317-.334-3.67-2.14-5.157-1.237-1.018-1.237-1.176 0-2.195 1.806-1.487 2.345-2.839 2.14-5.156-.134-1.51-.06-1.59 1.465-1.457 2.34.204 3.703-.333 5.202-2.125 1.023-1.224 1.18-1.224 2.204 0 1.499 1.792 2.862 2.328 5.201 2.125 1.526-.133 1.6-.052 1.466 1.457-.205 2.317.333 3.669 2.14 5.156 1.236 1.018 1.237 1.177 0 2.195-1.807 1.488-2.345 2.84-2.14 5.156.134 1.51.06 1.59-1.466 1.458-.956-.083-2.042-.178-2.997.215-.925.38-1.575 1.158-2.204 1.91-.296.354-.837 1-1.103 1.116-.265-.116-.806-.762-1.102-1.116-.628-.752-1.278-1.53-2.203-1.91a6.734 6.734 0 00-2.998-.215zm6.946 22.313a1.536 1.536 0 00-1.285 0l-2.2 1.014V73.532c.722.787 1.614 1.518 2.843 1.518 1.229 0 2.12-.73 2.844-1.518V92.11l-2.202-1.014z" fill="#222328"/><path d="M19.757 28.832h52.517c1.97 0 1.97-3.018 0-3.018H19.757c-1.97 0-1.97 3.018 0 3.018zm66.01 7.668c0-.833-.682-1.508-1.523-1.508H19.757c-1.97 0-1.97 3.017 0 3.017h64.487c.841 0 1.523-.675 1.523-1.508zm-27.848 9.177c0-.833-.682-1.508-1.524-1.508H19.757c-1.97 0-1.97 3.017 0 3.017h36.638c.841 0 1.523-.675 1.523-1.509zM37.913 66.708c-.83.002-1.66.003-2.491.003-1.598.001-2.478-.42-2.804-2.099-.299-1.531-2.53-1.336-2.939 0-.18.592-1.095 2.287-1.893 2.149-.423-.074-.608-.72-.764-1.055-.305-.651-.527-1.342-.717-2.034-.802-2.924-.962-5.977-1.463-8.956-.291-1.727-2.95-1.239-2.993.401-.136 5.225-.999 10.378-2.877 15.275-.697 1.818 2.247 2.603 2.938.803a42.35 42.35 0 001.745-5.784c.24.715.525 1.416.873 2.098.89 1.741 2.704 2.772 4.646 1.997.693-.276 1.325-.76 1.863-1.347 1.441 1.646 3.586 1.571 5.586 1.569 3.016-.004 6.032-.011 9.048-.02 1.96-.005 1.964-3.022 0-3.017-2.586.007-5.172.013-7.758.017zm37.119.257c3.282 0 5.95-2.644 5.95-5.893 0-3.25-2.668-5.893-5.95-5.893-3.28 0-5.95 2.643-5.95 5.893s2.67 5.893 5.95 5.893zm0-8.769c1.601 0 2.904 1.29 2.904 2.876 0 1.585-1.303 2.875-2.904 2.875-1.6 0-2.903-1.29-2.903-2.875 0-1.586 1.302-2.876 2.903-2.876z" fill="#222328"/></svg>