<svg width="102" height="103" fill="none" xmlns="http://www.w3.org/2000/svg"><path d="M18.658 47.648c-.456-.46-1.14-.6-1.737-.35a1.608 1.608 0 00-.983 1.488v36.51a1.6 1.6 0 001.593 1.61h36.157c.644 0 1.226-.391 1.472-.993a1.619 1.619 0 00-.345-1.754L18.658 47.648zm.467 5.023l9.563 9.656v21.36h-9.563V52.672zm12.75 31.017V65.546L49.84 83.687H31.875z" fill="#fff"/><path d="M87.19 3.69a1.585 1.585 0 00-1.127-.471H30.28a1.6 1.6 0 00-1.593 1.61v34.739L5.907 16.565a1.58 1.58 0 00-1.737-.349 1.608 1.608 0 00-.984 1.487v80.469a1.6 1.6 0 001.594 1.61h79.69c.644 0 1.226-.392 1.472-.994a1.62 1.62 0 00-.345-1.754l-10.03-10.128H97.22a1.6 1.6 0 001.594-1.61V16.095a1.62 1.62 0 00-.467-1.138L87.189 3.69zM6.374 96.562V21.588l7.309 7.38-2.06 2.082 2.253 2.275 2.06-2.08 2.528 2.552-2.06 2.08 2.253 2.276 2.06-2.08 2.528 2.552-2.06 2.08 2.253 2.277L25.5 40.9l2.528 2.552-2.061 2.081 2.254 2.276 2.06-2.081 2.528 2.552-2.06 2.081 2.253 2.276 2.06-2.081 2.528 2.552-2.06 2.081 2.253 2.276 2.06-2.08 2.528 2.551-2.06 2.081 2.253 2.276 2.061-2.08 2.528 2.552-2.061 2.08 2.254 2.276 2.06-2.08 2.528 2.552-2.06 2.08 2.253 2.276 2.06-2.08 2.528 2.552-2.06 2.08 2.253 2.276 2.06-2.08 2.528 2.552-2.06 2.08 2.253 2.277 2.061-2.081 2.528 2.552-2.061 2.081 2.254 2.276 2.06-2.081 2.528 2.552-2.06 2.081 2.253 2.276 2.06-2.081 7.31 7.38H6.374zm33.469-72.421h6.375v33.13l-6.375-6.437V24.14zm.985-3.22l2.202-4.447 2.203 4.448h-4.405zm19.76 32.37l2.716-8.228h4.078l2.716 8.229-2.532 25.536-4.949-4.997-2.029-20.54zm6.349-17.885v-7.263l4.505 7.28-3.814 6.42h-4.57l-3.815-6.42 4.506-7.28v7.263h3.188zm3.54 46.363l2.827-28.5a1.626 1.626 0 00-.075-.669l-2.955-8.953 4.404-7.413a1.624 1.624 0 00-.016-1.681l-7.968-12.875c-.582-.94-2.12-.94-2.702 0l-7.969 12.875a1.624 1.624 0 00-.016 1.681l4.405 7.413-2.955 8.953a1.628 1.628 0 00-.075.67l1.676 16.968-9.653-9.748V22.53c0-.25-.057-.496-.168-.72l-4.781-9.656c-.542-1.09-2.31-1.09-2.851 0l-4.782 9.656c-.11.224-.168.47-.168.72v25.084l-4.781-4.828V6.437h53.528l7.968 8.047h-5.715v-3.218H84.47v4.828a1.6 1.6 0 001.594 1.61h9.562v9.655H81.281a1.6 1.6 0 00-1.594 1.61v54.718H72.38l-1.9-1.918zm12.397 1.918V30.578h12.75v4.828h-3.188v3.219h3.188v4.828h-3.188v3.219h3.188V51.5h-3.188v3.219h3.188v4.828h-3.188v3.219h3.188v4.828h-3.188v3.219h3.188v4.828h-3.188v3.218h3.188v4.829h-12.75z" fill="#fff"/><path d="M9.563 90.125h3.187v3.219H9.562v-3.219zm6.375 0h3.187v3.219h-3.188v-3.219zm6.375 0H25.5v3.219h-3.188v-3.219z" fill="#fff"/></svg>