<svg width="104" height="104" fill="none" xmlns="http://www.w3.org/2000/svg"><path d="M1.742 53.742c.957 0 1.734-.775 1.734-1.733 0-26.766 21.776-48.542 48.541-48.542A48.263 48.263 0 0182.013 13.87H72.82a1.733 1.733 0 100 3.467h13.722c.114.01.221.012.334 0h1.545V1.734a1.733 1.733 0 10-3.468 0v10.072C75.67 4.175 64.12 0 52.018 0 23.34 0 .008 23.331.008 52.009c0 .958.777 1.733 1.734 1.733z" fill="#fff"/><path d="M52.018 13.869c-21.031 0-38.14 17.109-38.14 38.14 0 21.03 17.109 38.14 38.14 38.14 21.03 0 38.14-17.11 38.14-38.14 0-21.031-17.11-38.14-38.14-38.14zm0 72.812c-19.119 0-34.673-15.554-34.673-34.672 0-19.119 15.554-34.673 34.673-34.673 19.118 0 34.672 15.554 34.672 34.673 0 19.118-15.554 34.672-34.672 34.672z" fill="#fff"/><path d="M52.017 26.004c.957 0 1.733-.775 1.733-1.733v-3.468a1.733 1.733 0 10-3.467 0v3.468c0 .958.777 1.733 1.734 1.733zm0 52.009c-.957 0-1.734.775-1.734 1.734v3.467a1.733 1.733 0 103.467 0v-3.467c0-.96-.776-1.734-1.733-1.734zm27.738-24.271h3.467a1.733 1.733 0 100-3.467h-3.467a1.733 1.733 0 100 3.467zm-55.476-3.467h-3.467a1.733 1.733 0 100 3.467h3.467a1.733 1.733 0 100-3.467zm29.472-6.688v-8.915a1.733 1.733 0 10-3.467 0v8.915c-2.982.775-5.2 3.465-5.2 6.688 0 1.283.372 2.469.982 3.5L31.722 68.12a1.732 1.732 0 001.226 2.96c.444 0 .888-.17 1.226-.508l14.344-14.344c1.031.61 2.217.982 3.5.982a6.942 6.942 0 006.934-6.934c0-3.223-2.219-5.913-5.2-6.688zm-1.733 10.155a3.47 3.47 0 01-3.468-3.467 3.47 3.47 0 013.468-3.467 3.47 3.47 0 013.467 3.467 3.47 3.47 0 01-3.467 3.467zM20.62 91.293a1.724 1.724 0 00.363 2.425c.295.225.659.33 1.023.33.537 0 1.058-.226 1.404-.694a1.756 1.756 0 00-.364-2.426 1.727 1.727 0 00-2.427.365zm-8.078-11.078a1.759 1.759 0 00-2.427-.397 1.744 1.744 0 00-.398 2.425c.346.47.866.728 1.421.728a1.71 1.71 0 001.006-.327 1.747 1.747 0 00.398-2.43zm.675 3.779c-.71.64-.78 1.734-.139 2.442.33.4.815.592 1.3.592.4 0 .816-.139 1.145-.434a1.73 1.73 0 00.139-2.444c-.623-.728-1.715-.78-2.445-.156zm5.965 3.727c-.693-.641-1.803-.59-2.444.106a1.734 1.734 0 001.265 2.913c.468 0 .936-.191 1.283-.555.641-.711.607-1.803-.104-2.445v-.019zM9.838 76.002H9.82a1.712 1.712 0 00-2.357-.642 1.713 1.713 0 00-.642 2.358c.312.553.902.867 1.509.867a1.733 1.733 0 001.508-2.583zm92.351-20.318h.069c.936 0 1.699-.747 1.734-1.664a1.727 1.727 0 00-1.664-1.803 1.738 1.738 0 00-1.803 1.664 1.739 1.739 0 001.664 1.803zM2.193 58.926a1.736 1.736 0 00-.364-3.452 1.717 1.717 0 00-1.543 1.89c.086.901.85 1.56 1.716 1.56.07.002.121.002.19.002zm.971 5.097a1.712 1.712 0 001.335-2.046 1.714 1.714 0 00-2.046-1.337 1.714 1.714 0 00-1.335 2.048c.156.815.884 1.37 1.682 1.37.12 0 .242 0 .364-.035zm4.403 7.489a1.743 1.743 0 00-2.288-.884 1.742 1.742 0 00-.884 2.286 1.762 1.762 0 001.595 1.042c.225 0 .468-.052.693-.157a1.744 1.744 0 00.884-2.287zM5.78 66.831a1.713 1.713 0 00-2.167-1.127 1.733 1.733 0 00-1.126 2.186 1.742 1.742 0 001.647 1.195c.173 0 .364-.018.537-.07a1.741 1.741 0 001.11-2.184zm45.301 33.702a1.737 1.737 0 00-1.768 1.697 1.73 1.73 0 001.699 1.77h.034c.954 0 1.717-.747 1.734-1.699a1.74 1.74 0 00-1.699-1.768zm39.301-18.81c-.59.745-.45 1.84.295 2.427.33.243.693.364 1.074.364.503 0 1.023-.225 1.37-.678a1.72 1.72 0 00-.312-2.425 1.721 1.721 0 00-2.427.312zM79.459 92.02a1.727 1.727 0 00-.434 2.41c.33.486.867.746 1.422.746.347 0 .676-.087.988-.295.78-.537.988-1.628.433-2.41-.537-.797-1.61-.988-2.41-.45zm3.989-3.052a1.732 1.732 0 00-.191 2.444 1.75 1.75 0 001.317.609 1.732 1.732 0 001.317-2.86 1.734 1.734 0 00-2.443-.193zM95.633 77.04a1.754 1.754 0 00-2.392.555 1.74 1.74 0 00.555 2.393c.294.175.606.26.918.26.573 0 1.145-.278 1.474-.817a1.734 1.734 0 00-.555-2.39zm-8.528 8.48a1.711 1.711 0 00.052 2.444c.33.328.763.484 1.197.484.45 0 .918-.174 1.248-.538a1.727 1.727 0 00-.052-2.444 1.727 1.727 0 00-2.445.053zm14.925-28.122c-.936-.136-1.82.54-1.959 1.476-.138.953.52 1.82 1.474 1.959.086.017.173.017.242.017a1.734 1.734 0 00.243-3.452zm-.812 5.132a1.765 1.765 0 00-2.115 1.266 1.765 1.765 0 001.265 2.115c.139.036.278.052.416.052a1.74 1.74 0 001.682-1.318 1.742 1.742 0 00-1.248-2.115zM27.224 93.72c-.832-.484-1.89-.226-2.375.608a1.724 1.724 0 00.59 2.375c.277.174.59.243.884.243a1.72 1.72 0 001.491-.85c.503-.816.227-1.874-.59-2.376zm72.64-26.16c-.902-.328-1.907.138-2.22 1.04a1.72 1.72 0 001.613 2.324c.71 0 1.387-.433 1.63-1.144a1.72 1.72 0 00-1.023-2.22zm-1.871 4.853c-.85-.414-1.907-.069-2.323.798a1.748 1.748 0 00.797 2.323 1.741 1.741 0 002.323-.797 1.734 1.734 0 00-.797-2.324zm-51.922 27.773a1.72 1.72 0 00-1.924 1.508 1.709 1.709 0 001.508 1.923v.019h.208c.867 0 1.612-.642 1.717-1.527a1.72 1.72 0 00-1.509-1.923zM36.31 97.95a1.72 1.72 0 00-2.202 1.075 1.736 1.736 0 001.075 2.201c.19.052.382.087.572.087a1.73 1.73 0 001.63-1.162c.312-.918-.173-1.907-1.075-2.201zm4.82 1.37a1.742 1.742 0 00-2.08 1.299c-.208.937.381 1.873 1.3 2.081.139.035.26.034.399.034.78 0 1.508-.537 1.681-1.334a1.722 1.722 0 00-1.3-2.08zm-9.466-3.243a1.717 1.717 0 00-2.305.83c-.4.868-.035 1.91.832 2.306a1.8 1.8 0 00.728.157c.659 0 1.283-.365 1.577-1.004a1.717 1.717 0 00-.832-2.289zM61.067 99.7a1.747 1.747 0 00-1.387 2.029c.156.832.902 1.406 1.717 1.406.104 0 .208 0 .312-.019a1.755 1.755 0 001.386-2.028 1.734 1.734 0 00-2.028-1.387zm4.871-1.178a1.712 1.712 0 00-1.161 2.148 1.741 1.741 0 001.664 1.232c.156 0 .33-.019.503-.069a1.74 1.74 0 001.161-2.167 1.744 1.744 0 00-2.167-1.144zm4.732-1.699a1.742 1.742 0 00-.936 2.272 1.729 1.729 0 001.595 1.056c.226 0 .45-.035.676-.119a1.75 1.75 0 00.936-2.273 1.748 1.748 0 00-2.27-.936zm-14.58 3.552a1.73 1.73 0 00-1.578 1.872c.07.904.832 1.595 1.734 1.595h.138v-.017a1.704 1.704 0 001.578-1.855c-.07-.952-.917-1.664-1.872-1.595zm19.104-5.719a1.707 1.707 0 00-.693 2.342c.312.59.901.917 1.525.917.278 0 .555-.07.815-.226a1.705 1.705 0 00.694-2.34 1.705 1.705 0 00-2.34-.693z" fill="#fff"/></svg>