<svg width="650" height="53" fill="none" xmlns="http://www.w3.org/2000/svg"><path d="M27.386 51.248l18.34-48.72h-6.65l-8.96 24.5c-2.59 7.07-5.32 14.63-6.37 18.62h-.14c-1.05-4.48-3.57-11.69-6.09-18.83l-8.54-24.29h-6.93l17.71 48.72h7.63zm25.724 0h30.94l.91-5.53H59.55V2.529h-6.44v48.72zm67.739-14.63l5.39 14.63h6.93l-18.13-48.72h-7.91l-17.36 48.72h6.44l5.25-14.63h19.39zm-17.71-5.53c3.71-10.92 6.58-19.18 7.77-23.31h.07c1.05 3.71 3.57 10.5 8.26 23.31h-16.1zm37.676 20.16h17.15c14.14 0 23.17-10.43 23.17-24.85 0-14.49-9.24-23.87-22.96-23.87h-17.36v48.72zm6.44-43.19h10.22c11.9 0 16.87 8.89 16.87 18.48 0 10.99-5.39 19.25-16.87 19.25h-10.22V8.059zm44.009-5.53v48.72h6.44V2.529h-6.44zm15.776 35.14c1.05 7.49 6.3 14.21 18.55 14.21 11.9 0 17.71-6.16 17.71-14 0-6.3-2.45-11.69-16.31-15.05-8.54-2.1-11.27-3.92-11.27-8.47 0-4.62 3.29-7.28 9.24-7.28 7.14 0 9.8 3.57 10.71 7.84h6.58c-.7-6.37-5.46-13.09-17.08-13.09-10.85 0-16.17 5.88-16.17 13.16 0 6.86 3.99 10.78 15.47 13.58 9.73 2.31 12.11 5.04 12.11 9.94 0 4.62-3.01 8.19-10.57 8.19-7.07 0-11.06-3.15-12.39-9.03h-6.58zm45.816 13.58h30.94l.91-5.53h-25.41V2.529h-6.44v48.72zm67.739-14.63l5.39 14.63h6.93l-18.13-48.72h-7.91l-17.36 48.72h6.44l5.25-14.63h19.39zm-17.71-5.53c3.71-10.92 6.58-19.18 7.77-23.31h.07c1.05 3.71 3.57 10.5 8.26 23.31h-16.1zm53.378 20.16l18.34-48.72h-6.65l-8.96 24.5c-2.59 7.07-5.32 14.63-6.37 18.62h-.14c-1.05-4.48-3.57-11.69-6.09-18.83l-8.54-24.29h-6.93l17.71 48.72h7.63zm39.517-13.58c1.05 7.49 6.3 14.21 18.55 14.21 11.9 0 17.71-6.16 17.71-14 0-6.3-2.45-11.69-16.31-15.05-8.54-2.1-11.27-3.92-11.27-8.47 0-4.62 3.29-7.28 9.24-7.28 7.14 0 9.8 3.57 10.71 7.84h6.58c-.7-6.37-5.46-13.09-17.08-13.09-10.85 0-16.17 5.88-16.17 13.16 0 6.86 3.99 10.78 15.47 13.58 9.73 2.31 12.11 5.04 12.11 9.94 0 4.62-3.01 8.19-10.57 8.19-7.07 0-11.06-3.15-12.39-9.03h-6.58zm76.336-14.7h-24.22V8.058h25.41v-5.53h-31.71v48.72h32.06l.84-5.53h-26.6v-17.22h24.22v-5.53zm52.828 28.28h6.3V2.529h-9.31c-5.74 14.77-13.72 36.12-14.91 40.81h-.07c-1.68-6.16-8.47-25.69-14-40.81h-9.59v48.72h6.09v-19.39c0-8.4-.21-19.18-.56-24.85h.21c2.17 8.33 10.36 31.78 14.56 44.24h5.81c5.6-15.33 13.44-36.19 15.54-44.1h.28c-.21 5.11-.35 14.28-.35 23.38v20.72zm19.601 0h6.37v-18.34l6.23-5.67 18.69 24.01h7.84l-21.98-28.14 20.93-20.58h-8.05c-7.63 7.91-20.02 20.16-23.66 23.94V2.528h-6.37v48.72zm45.323-48.72v48.72h6.44V2.529h-6.44zm25.846 48.72v-19.46c0-8.82 0-17.08-.35-22.61h.14c3.01 5.46 18.83 31.5 25.27 42.07h8.05V2.529h-6.09v19.04c0 7.91-.07 15.61.42 21.84h-.07c-2.73-5.25-17.92-29.47-24.92-40.88h-8.54v48.72h6.09z" fill="#242833"/><path d="M27.386 51.248v1h.692l.244-.647-.936-.352zm18.34-48.72l.936.353.509-1.352h-1.445v1zm-6.65 0v-1h-.699l-.24.657.939.344zm-8.96 24.5l.939.345v-.001l-.939-.343zm-6.37 18.62v1h.77l.197-.745-.967-.255zm-.14 0l-.974.229.181.771h.793v-1zm-6.09-18.83l-.943.332v.001l.943-.332zm-8.54-24.29l.943-.331-.235-.668h-.708v1zm-6.93 0v-1H.618l.488 1.342.94-.341zm17.71 48.72l-.94.342.24.658h.7v-1zm8.566.353l18.34-48.72-1.872-.705-18.34 48.72 1.872.705zM45.726 1.529h-6.65v2h6.65v-2zm-7.59.656l-8.96 24.5 1.88.687 8.96-24.5-1.88-.687zm-8.959 24.5c-2.582 7.049-5.333 14.662-6.398 18.709l1.934.509c1.035-3.933 3.744-11.44 6.342-18.53l-1.878-.688zm-5.431 17.963h-.14v2h.14v-2zm.834.772c-1.066-4.546-3.61-11.817-6.121-18.934l-1.886.665c2.528 7.163 5.025 14.312 6.06 18.726l1.947-.457zm-6.12-18.933L9.92 2.197l-1.887.663 8.54 24.29 1.886-.663zM8.975 1.529h-6.93v2h6.93v-2zM1.106 2.87l17.71 48.72 1.88-.683-17.71-48.72-1.88.683zm18.65 49.378h7.63v-2h-7.63v2zm33.354-1h-1v1h1v-1zm30.94 0v1h.849l.138-.837-.987-.163zm.91-5.53l.987.163.19-1.163H84.96v1zm-25.41 0h-1v1h1v-1zm0-43.19h1v-1h-1v1zm-6.44 0v-1h-1v1h1zm0 49.72h30.94v-2H53.11v2zm31.927-.837l.91-5.53-1.974-.325-.91 5.53 1.974.325zm-.077-6.693H59.55v2h25.41v-2zm-24.41 1V2.529h-2v43.19h2zm-1-44.19h-6.44v2h6.44v-2zm-7.44 1v48.72h2V2.529h-2zm68.739 34.09l.938-.345-.241-.655h-.697v1zm5.39 14.63l-.938.346.241.654h.697v-1zm6.93 0v1h1.439l-.502-1.348-.937.349zm-18.13-48.72l.937-.348-.242-.651h-.695v1zm-7.91 0v-1h-.705l-.237.665.942.336zm-17.36 48.72l-.942-.335-.476 1.336h1.418v-1zm6.44 0v1h.704l.237-.662-.94-.337zm5.25-14.63v-1h-.703l-.238.663.941.337zm1.68-5.53l-.947-.321-.449 1.322h1.396v-1zm7.77-23.31v-1h-.752l-.209.724.961.277zm.07 0l.962-.272-.206-.727h-.756v1zm8.26 23.31v1h1.431l-.492-1.343-.939.343zm.672 5.876l5.39 14.63 1.876-.691-5.39-14.63-1.876.691zm6.328 15.285h6.93v-2h-6.93v2zm7.867-1.35l-18.13-48.72-1.874.698 18.13 48.72 1.874-.697zM115.039 1.53h-7.91v2h7.91v-2zm-8.852.664l-17.36 48.72 1.884.671 17.36-48.72-1.884-.671zM89.769 52.248h6.44v-2h-6.44v2zm7.381-.662l5.25-14.63-1.882-.675-5.25 14.63 1.882.675zm4.309-13.968h19.39v-2h-19.39v2zm2.627-6.208c3.702-10.896 6.585-19.195 7.784-23.355l-1.922-.553c-1.181 4.1-4.038 12.321-7.756 23.265l1.894.643zm6.823-22.631h.07v-2h-.07v2zm-.892-.728c1.063 3.757 3.604 10.602 8.283 23.381l1.878-.687c-4.701-12.84-7.2-19.576-8.237-23.239l-1.924.545zm9.222 22.038h-16.1v2h16.1v-2zm21.576 21.16h-1v1h1v-1zm0-48.72v-1h-1v1h1zm6.44 5.53v-1h-1v1h1zm0 37.73h-1v1h1v-1zm-6.44 6.46h17.15v-2h-17.15v2zm17.15 0c7.33 0 13.398-2.711 17.626-7.344 4.22-4.623 6.544-11.09 6.544-18.507h-2c0 7.003-2.191 12.962-6.021 17.159-3.822 4.187-9.339 6.691-16.149 6.691v2zm24.17-25.85c0-7.46-2.382-13.692-6.617-18.065-4.237-4.375-10.248-6.805-17.343-6.805v2c6.625 0 12.094 2.259 15.907 6.196 3.815 3.94 6.053 9.644 6.053 16.674h2zm-23.96-24.87h-17.36v2h17.36v-2zm-18.36 1v48.72h2V2.529h-2zm7.44 6.53h10.22v-2h-10.22v2zm10.22 0c5.673 0 9.592 2.104 12.116 5.267 2.55 3.196 3.754 7.574 3.754 12.212h2c0-4.951-1.281-9.813-4.191-13.46-2.936-3.679-7.452-6.02-13.679-6.02v2zm15.87 17.48c0 5.346-1.313 9.91-3.907 13.117-2.57 3.175-6.486 5.133-11.963 5.133v2c6.003 0 10.522-2.173 13.517-5.875 2.971-3.671 4.353-8.732 4.353-14.376h-2zm-15.87 18.25h-10.22v2h10.22v-2zm-9.22 1V8.059h-2v37.73h2zm43.009-43.26v-1h-1v1h1zm0 48.72h-1v1h1v-1zm6.44 0v1h1v-1h-1zm0-48.72h1v-1h-1v1zm-7.44 0v48.72h2V2.529h-2zm1 49.72h6.44v-2h-6.44v2zm7.44-1V2.529h-2v48.72h2zm-1-49.72h-6.44v2h6.44v-2zm9.336 36.14v-1h-1.15l.16 1.138.99-.139zm19.95-14.84l-.239.97.003.001.236-.972zm8.68-7.91l-.978.208.169.791h.809v-1zm6.58 0v1h1.116l-.122-1.11-.994.11zm-17.78 13.65l-.237.971.006.002.231-.974zm-10.85 9.1l.975-.221-.176-.78h-.799v1zm-7.57.138c.55 3.93 2.214 7.72 5.405 10.526 3.195 2.81 7.823 4.546 14.135 4.546v-2c-5.938 0-10.06-1.625-12.815-4.048-2.759-2.426-4.246-5.74-4.745-9.301l-1.98.277zm19.54 15.072c6.115 0 10.798-1.584 13.968-4.301 3.185-2.73 4.742-6.519 4.742-10.7h-2c0 3.66-1.348 6.87-4.043 9.181-2.71 2.323-6.882 3.82-12.667 3.82v2zm18.71-15c0-3.29-.644-6.496-3.221-9.304-2.54-2.768-6.844-5.019-13.853-6.718l-.472 1.943c6.85 1.661 10.702 3.785 12.852 6.127 2.113 2.302 2.694 4.94 2.694 7.952h2zm-17.071-16.021c-4.278-1.052-6.913-1.996-8.484-3.152-.76-.558-1.249-1.151-1.557-1.819-.312-.675-.468-1.49-.468-2.529h-2c0 1.236.185 2.356.652 3.367.471 1.02 1.198 1.865 2.188 2.593 1.929 1.417 4.928 2.433 9.191 3.482l.478-1.942zm-10.509-7.5c0-2.05.717-3.563 2.01-4.589 1.328-1.053 3.386-1.69 6.23-1.69v-2c-3.106 0-5.668.692-7.473 2.124-1.839 1.459-2.767 3.586-2.767 6.155h2zm8.24-6.28c3.402 0 5.599.848 7.042 2.08 1.449 1.237 2.263 2.967 2.69 4.969l1.956-.417c-.483-2.268-1.455-4.458-3.348-6.073-1.899-1.621-4.602-2.558-8.34-2.558v2zm10.71 7.84h6.58v-2h-6.58v2zm7.574-1.109c-.372-3.387-1.828-6.9-4.767-9.565C235.53 2.571 231.18.83 225.17.83v2c5.61 0 9.45 1.617 11.963 3.896 2.521 2.287 3.795 5.32 4.123 8.303l1.988-.219zM225.17.83c-5.601 0-9.903 1.519-12.817 4.101C209.429 7.52 208 11.095 208 14.989h2c0-3.387 1.23-6.392 3.679-8.562 2.458-2.178 6.242-3.598 11.491-3.598v-2zM208 14.989c0 3.657 1.08 6.644 3.761 9.056 2.62 2.356 6.685 4.084 12.472 5.495l.474-1.943c-5.693-1.389-9.363-3.02-11.608-5.04-2.184-1.963-3.099-4.366-3.099-7.568h-2zm16.239 14.552c4.838 1.15 7.66 2.365 9.276 3.78 1.532 1.338 2.065 2.93 2.065 5.188h2c0-2.644-.657-4.866-2.748-6.695-2.006-1.753-5.239-3.057-10.131-4.218l-.462 1.945zm11.341 8.967c0 2.085-.671 3.83-2.105 5.072-1.453 1.259-3.828 2.119-7.465 2.119v2c3.923 0 6.833-.926 8.775-2.607 1.961-1.699 2.795-4.048 2.795-6.584h-2zm-9.57 7.19c-3.392 0-5.926-.755-7.751-2.112-1.815-1.35-3.039-3.376-3.664-6.138l-1.95.441c.705 3.118 2.141 5.607 4.421 7.302 2.27 1.688 5.266 2.508 8.944 2.508v-2zm-12.39-9.03h-6.58v2h6.58v-2zm39.236 14.58h-1v1h1v-1zm30.94 0v1h.849l.138-.837-.987-.163zm.91-5.53l.987.163.191-1.163h-1.178v1zm-25.41 0h-1v1h1v-1zm0-43.19h1v-1h-1v1zm-6.44 0v-1h-1v1h1zm0 49.72h30.94v-2h-30.94v2zm31.927-.837l.91-5.53-1.974-.325-.91 5.53 1.974.325zm-.077-6.693h-25.41v2h25.41v-2zm-24.41 1V2.529h-2v43.19h2zm-1-44.19h-6.44v2h6.44v-2zm-7.44 1v48.72h2V2.529h-2zm68.739 34.09l.939-.345-.241-.655h-.698v1zm5.39 14.63l-.938.346.241.654h.697v-1zm6.93 0v1h1.439l-.502-1.348-.937.349zm-18.13-48.72l.937-.348-.242-.651h-.695v1zm-7.91 0v-1h-.705l-.237.665.942.336zm-17.36 48.72l-.942-.335-.476 1.336h1.418v-1zm6.44 0v1h.704l.237-.662-.941-.337zm5.25-14.63v-1h-.703l-.238.663.941.337zm1.68-5.53l-.947-.321-.449 1.322h1.396v-1zm7.77-23.31v-1h-.752l-.209.724.961.277zm.07 0l.962-.272-.206-.727h-.756v1zm8.26 23.31v1h1.431l-.492-1.343-.939.343zm.672 5.876l5.39 14.63 1.877-.691-5.39-14.63-1.877.691zm6.328 15.285h6.93v-2h-6.93v2zm7.867-1.35l-18.13-48.72-1.874.698 18.13 48.72 1.874-.697zM314.785 1.53h-7.91v2h7.91v-2zm-8.852.664l-17.36 48.72 1.884.671 17.36-48.72-1.884-.671zm-16.418 50.055h6.44v-2h-6.44v2zm7.381-.662l5.25-14.63-1.882-.675-5.25 14.63 1.882.675zm4.309-13.968h19.39v-2h-19.39v2zm2.627-6.208c3.702-10.896 6.586-19.195 7.784-23.355l-1.922-.553c-1.181 4.1-4.038 12.321-7.756 23.265l1.894.643zm6.823-22.631h.07v-2h-.07v2zm-.892-.728c1.063 3.757 3.604 10.602 8.283 23.381l1.878-.687c-4.701-12.84-7.2-19.576-8.237-23.239l-1.924.545zm9.222 22.038h-16.1v2h16.1v-2zm37.278 21.16v1h.692l.244-.648-.936-.352zm18.34-48.72l.936.352.509-1.352h-1.445v1zm-6.65 0v-1h-.699l-.24.656.939.344zm-8.96 24.5l.939.343-.939-.343zm-6.37 18.62v1h.771l.196-.746-.967-.255zm-.14 0l-.974.228.181.771h.793v-1zm-6.09-18.83l-.943.331v.001l.943-.332zm-8.54-24.29l.943-.332-.235-.668h-.708v1zm-6.93 0v-1h-1.428l.488 1.341.94-.341zm17.71 48.72l-.94.341.239.658h.701v-1zm8.566.352l18.34-48.72-1.872-.705-18.34 48.72 1.872.705zM374.603 1.53h-6.65v2h6.65v-2zm-7.589.656l-8.96 24.5 1.878.687 8.96-24.5-1.878-.687zm-8.96 24.5c-2.582 7.049-5.333 14.662-6.398 18.709l1.934.509c1.035-3.933 3.744-11.44 6.342-18.53l-1.878-.688zm-5.431 17.963h-.14v2h.14v-2zm.834.772c-1.066-4.546-3.609-11.817-6.121-18.934l-1.886.665c2.528 7.163 5.025 14.312 6.059 18.726l1.948-.457zm-6.121-18.933l-8.54-24.29-1.886.663 8.54 24.29 1.886-.663zM337.853 1.53h-6.93v2h6.93v-2zm-7.87 1.341l17.71 48.72 1.88-.683-17.71-48.72-1.88.683zm18.65 49.378h7.63v-2h-7.63v2zm47.147-14.58v-1h-1.15l.16 1.14.99-.14zm19.95-14.84l-.239.972h.004l.235-.972zm8.68-7.91l-.978.209.169.791h.809v-1zm6.58 0v1h1.116l-.122-1.109-.994.11zm-17.78 13.65l-.237.972.006.002.231-.974zm-10.85 9.1l.976-.22-.177-.78h-.799v1zm-7.57.14c.551 3.929 2.214 7.72 5.405 10.525 3.196 2.81 7.823 4.546 14.135 4.546v-2c-5.938 0-10.06-1.625-12.814-4.048-2.76-2.426-4.246-5.74-4.746-9.301l-1.98.277zm19.54 15.07c6.115 0 10.798-1.583 13.968-4.3 3.185-2.73 4.742-6.519 4.742-10.7h-2c0 3.66-1.347 6.87-4.043 9.181-2.71 2.323-6.882 3.82-12.667 3.82v2zm18.71-15c0-3.288-.644-6.495-3.221-9.303-2.54-2.768-6.843-5.019-13.853-6.718l-.471 1.943c6.85 1.661 10.701 3.785 12.851 6.127 2.113 2.302 2.694 4.94 2.694 7.952h2zm-17.071-16.02c-4.277-1.052-6.913-1.996-8.484-3.152-.76-.558-1.249-1.151-1.557-1.819-.312-.675-.468-1.49-.468-2.529h-2c0 1.236.185 2.356.652 3.367.471 1.02 1.198 1.865 2.188 2.593 1.929 1.417 4.929 2.433 9.191 3.482l.478-1.942zm-10.509-7.5c0-2.05.717-3.563 2.01-4.589 1.328-1.053 3.386-1.69 6.23-1.69v-2c-3.106 0-5.667.692-7.473 2.124-1.839 1.459-2.767 3.586-2.767 6.155h2zm8.24-6.28c3.403 0 5.599.848 7.042 2.08 1.45 1.237 2.263 2.967 2.69 4.969l1.956-.417c-.483-2.268-1.454-4.458-3.347-6.073-1.9-1.621-4.603-2.558-8.341-2.558v2zm10.71 7.84h6.58v-2h-6.58v2zm7.574-1.109c-.372-3.387-1.828-6.9-4.767-9.565C424.27 2.571 419.92.83 413.91.83v2c5.61 0 9.45 1.617 11.963 3.896 2.521 2.287 3.795 5.32 4.123 8.303l1.988-.219zM413.91.83c-5.601 0-9.902 1.519-12.817 4.101-2.923 2.59-4.353 6.165-4.353 10.059h2c0-3.387 1.231-6.392 3.68-8.562 2.458-2.178 6.241-3.598 11.49-3.598v-2zm-17.17 14.16c0 3.657 1.08 6.644 3.761 9.056 2.62 2.356 6.685 4.084 12.472 5.495l.474-1.943c-5.693-1.389-9.363-3.02-11.608-5.04-2.184-1.963-3.099-4.366-3.099-7.568h-2zm16.239 14.552c4.838 1.15 7.66 2.365 9.277 3.78 1.531 1.338 2.064 2.93 2.064 5.188h2c0-2.644-.657-4.866-2.748-6.695-2.006-1.753-5.239-3.057-10.131-4.218l-.462 1.945zm11.341 8.967c0 2.085-.671 3.83-2.104 5.072-1.454 1.259-3.829 2.119-7.466 2.119v2c3.923 0 6.833-.926 8.775-2.607 1.961-1.699 2.795-4.048 2.795-6.584h-2zm-9.57 7.19c-3.392 0-5.926-.755-7.751-2.112-1.815-1.35-3.039-3.376-3.663-6.138l-1.951.441c.705 3.118 2.141 5.607 4.421 7.302 2.27 1.688 5.266 2.508 8.944 2.508v-2zm-12.39-9.03h-6.58v2h6.58v-2zm69.756-13.7h1v-1h-1v1zm-24.22 0h-1v1h1v-1zm0-14.91v-1h-1v1h1zm25.41 0v1h1v-1h-1zm0-5.53h1v-1h-1v1zm-31.71 0v-1h-1v1h1zm0 48.72h-1v1h1v-1zm32.06 0v1h.86l.129-.85-.989-.15zm.84-5.53l.989.15.175-1.15h-1.164v1zm-26.6 0h-1v1h1v-1zm0-17.22v-1h-1v1h1zm24.22 0v1h1v-1h-1zm0-6.53h-24.22v2h24.22v-2zm-23.22 1V8.058h-2v14.91h2zm-1-13.91h25.41v-2h-25.41v2zm26.41-1v-5.53h-2v5.53h2zm-1-6.53h-31.71v2h31.71v-2zm-32.71 1v48.72h2V2.529h-2zm1 49.72h32.06v-2h-32.06v2zm33.049-.85l.84-5.53-1.977-.3-.84 5.53 1.977.3zm-.149-6.68h-26.6v2h26.6v-2zm-25.6 1v-17.22h-2v17.22h2zm-1-16.22h24.22v-2h-24.22v2zm25.22-1v-5.53h-2v5.53h2zm51.828 22.75h-1v1h1v-1zm6.3 0v1h1v-1h-1zm0-48.72h1v-1h-1v1zm-9.31 0v-1h-.684l-.248.638.932.363zm-14.91 40.81v1h.778l.191-.754-.969-.245zm-.07 0l-.965.264.201.737h.764v-1zm-14-40.81l.939-.343-.24-.656h-.699v1zm-9.59 0v-1h-1v1h1zm0 48.72h-1v1h1v-1zm6.09 0v1h1v-1h-1zm-.56-44.24v-1h-1.064l.066 1.062.998-.061zm.21 0l.968-.252-.195-.747h-.773v1zm14.56 44.24l-.948.32.23.68h.718v-1zm5.81 0v1h.699l.24-.656-.939-.343zm15.54-44.1v-1h-.769l-.198.744.967.257zm.28 0l.999.042.043-1.041h-1.042v1zm-.35 45.1h6.3v-2h-6.3v2zm7.3-1V2.529h-2v48.72h2zm-1-49.72h-9.31v2h9.31v-2zm-10.242.638a1545.867 1545.867 0 00-9.168 24.202c-2.852 7.747-5.168 14.316-5.779 16.725l1.938.491c.579-2.281 2.848-8.731 5.718-16.525a1543.234 1543.234 0 019.155-24.168l-1.864-.725zM507.024 42.34h-.07v2h.07v-2zm.895.736c-1.694-6.209-8.5-25.78-14.026-40.89l-1.878.687c5.534 15.131 12.307 34.618 13.974 40.73l1.93-.527zM492.954 1.53h-9.59v2h9.59v-2zm-10.59 1v48.72h2V2.529h-2zm1 49.72h6.09v-2h-6.09v2zm7.09-1V31.86h-2v19.39h2zm0-19.39c0-8.407-.21-19.211-.562-24.912l-1.996.123c.348 5.64.558 16.395.558 24.788h2zm-1.56-23.85h.21v-2h-.21v2zm-.758-.748c2.182 8.375 10.394 31.89 14.58 44.307l1.895-.639c-4.214-12.502-12.381-35.888-14.539-44.173l-1.936.505zm15.528 44.987h5.81v-2h-5.81v2zm6.749-.656c5.584-15.285 13.452-36.219 15.567-44.187l-1.933-.513c-2.084 7.852-9.896 28.638-15.512 44.013l1.878.687zM525.014 8.15h.28v-2h-.28v2zm-.719-1.042c-.211 5.13-.351 14.316-.351 23.422h2c0-9.095.14-18.25.349-23.34l-1.998-.082zm-.351 23.422v20.72h2V30.53h-2zm20.601 20.72h-1v1h1v-1zm6.37 0v1h1v-1h-1zm0-18.34l-.673-.74-.327.298v.441h1zm6.23-5.67l.79-.615-.664-.852-.799.727.673.74zm18.69 24.01l-.789.614.301.386h.488v-1zm7.84 0v1h2.05l-1.261-1.616-.789.615zm-21.98-28.14l-.701-.714-.636.626.549.703.788-.616zm20.93-20.58l.702.713 1.742-1.713h-2.444v1zm-8.05 0v-1h-.424l-.295.305.719.695zm-23.66 23.94h-1v2.48l1.721-1.787-.721-.694zm0-23.94h1v-1h-1v1zm-6.37 0v-1h-1v1h1zm0 49.72h6.37v-2h-6.37v2zm7.37-1V32.91h-2v18.34h2zm-.326-17.6l6.23-5.67-1.347-1.48-6.23 5.67 1.347 1.48zm4.767-5.796l18.69 24.01 1.579-1.229-18.69-24.01-1.579 1.229zm19.479 24.395h7.84v-2h-7.84v2zm8.629-1.615l-21.98-28.14-1.577 1.231 21.98 28.14 1.577-1.231zm-22.067-26.811l20.93-20.58-1.403-1.427-20.93 20.58 1.403 1.427zM582.625 1.53h-8.05v2h8.05v-2zm-8.769.305c-3.809 3.949-8.808 8.983-13.315 13.508-4.501 4.517-8.518 8.535-10.346 10.433l1.441 1.387c1.812-1.882 5.809-5.88 10.322-10.409 4.505-4.523 9.516-9.569 13.337-13.53l-1.439-1.389zm-21.941 24.634V2.528h-2v23.94h2zm-1-24.94h-6.37v2h6.37v-2zm-7.37 1v48.72h2V2.529h-2zm46.323 0v-1h-1v1h1zm0 48.72h-1v1h1v-1zm6.44 0v1h1v-1h-1zm0-48.72h1v-1h-1v1zm-7.44 0v48.72h2V2.529h-2zm1 49.72h6.44v-2h-6.44v2zm7.44-1V2.529h-2v48.72h2zm-1-49.72h-6.44v2h6.44v-2zm19.406 49.72v1h1v-1h-1zm-.35-42.07v-1h-1.066l.068 1.064.998-.063zm.14 0l.875-.482-.285-.517h-.59v1zm25.27 42.07l-.854.52.292.48h.562v-1zm8.05 0v1h1v-1h-1zm0-48.72h1v-1h-1v1zm-6.09 0v-1h-1v1h1zm.42 40.88v1h1.081l-.084-1.078-.997.078zm-.07 0l-.888.462.28.538h.608v-1zm-24.92-40.88l.852-.522-.293-.477h-.559v1zm-8.54 0v-1h-1v1h1zm0 48.72h-1v1h1v-1zm7.09 0v-19.46h-2v19.46h2zm0-19.46c0-8.805 0-17.103-.352-22.673l-1.996.127c.347 5.49.348 13.712.348 22.546h2zm-1.35-21.61h.14v-2h-.14v2zm-.736-.517c3.024 5.485 18.861 31.553 25.292 42.108l1.708-1.04c-6.45-10.586-22.252-36.598-25.249-42.033l-1.751.965zm26.146 42.587h8.05v-2h-8.05v2zm9.05-1V2.529h-2v48.72h2zm-1-49.72h-6.09v2h6.09v-2zm-7.09 1v19.04h2V2.529h-2zm0 19.04c0 7.887-.071 15.64.423 21.919l1.994-.157c-.487-6.18-.417-13.828-.417-21.761h-2zm1.42 20.84h-.07v2h.07v-2zm.817.54c-2.752-5.293-17.982-29.577-24.955-40.942l-1.705 1.045c7.028 11.455 22.177 35.61 24.885 40.819l1.775-.923zm-25.807-41.42h-8.54v2h8.54v-2zm-9.54 1v48.72h2V2.529h-2zm1 49.72h6.09v-2h-6.09v2z" fill="#000"/></svg>