<svg width="769" height="53" fill="none" xmlns="http://www.w3.org/2000/svg"><path d="M27.386 50.874l18.34-48.72h-6.65l-8.96 24.5c-2.59 7.07-5.32 14.63-6.37 18.62h-.14c-1.05-4.48-3.57-11.69-6.09-18.83l-8.54-24.29h-6.93l17.71 48.72h7.63zm25.724 0h30.94l.91-5.53H59.55V2.154h-6.44v48.72zm67.739-14.63l5.39 14.63h6.93l-18.13-48.72h-7.91l-17.36 48.72h6.44l5.25-14.63h19.39zm-17.71-5.53c3.71-10.92 6.58-19.18 7.77-23.31h.07c1.05 3.71 3.57 10.5 8.26 23.31h-16.1zm37.676 20.16h17.15c14.14 0 23.17-10.43 23.17-24.85 0-14.49-9.24-23.87-22.96-23.87h-17.36v48.72zm6.44-43.19h10.22c11.9 0 16.87 8.89 16.87 18.48 0 10.99-5.39 19.25-16.87 19.25h-10.22V7.684zm44.009-5.53v48.72h6.44V2.154h-6.44zm15.776 35.14c1.05 7.49 6.3 14.21 18.55 14.21 11.9 0 17.71-6.16 17.71-14 0-6.3-2.45-11.69-16.31-15.05-8.54-2.1-11.27-3.92-11.27-8.47 0-4.62 3.29-7.28 9.24-7.28 7.14 0 9.8 3.57 10.71 7.84h6.58c-.7-6.37-5.46-13.09-17.08-13.09-10.85 0-16.17 5.88-16.17 13.16 0 6.86 3.99 10.78 15.47 13.58 9.73 2.31 12.11 5.04 12.11 9.94 0 4.62-3.01 8.19-10.57 8.19-7.07 0-11.06-3.15-12.39-9.03h-6.58zm45.816 13.58h30.94l.91-5.53h-25.41V2.154h-6.44v48.72zm67.739-14.63l5.39 14.63h6.93l-18.13-48.72h-7.91l-17.36 48.72h6.44l5.25-14.63h19.39zm-17.71-5.53c3.71-10.92 6.58-19.18 7.77-23.31h.07c1.05 3.71 3.57 10.5 8.26 23.31h-16.1zm53.378 20.16l18.34-48.72h-6.65l-8.96 24.5c-2.59 7.07-5.32 14.63-6.37 18.62h-.14c-1.05-4.48-3.57-11.69-6.09-18.83l-8.54-24.29h-6.93l17.71 48.72h7.63zm38.747 0h37.17l.91-5.53h-30.1l29.12-37.8v-5.39h-35.63v5.53h28.21l-29.68 38.22v4.97zm46.86 0h6.44v-22.82h25.34v22.82h6.51V2.154h-6.51v20.37h-25.34V2.154h-6.44v48.72zm51.543-48.72v48.72h6.44V2.154h-6.44zm36.066 27.3c8.75 0 10.71 3.01 10.71 9.94v.98c0 4.62-.07 8.4.84 10.5h6.3c-.84-2.03-.7-6.3-.7-9.66v-2.1c0-8.4-3.43-11.41-7.42-12.46 4.69-1.26 8.33-5.11 8.33-11.48 0-7.56-5.32-13.02-15.33-13.02h-19.04v48.72h6.37v-21.42h9.94zm-9.94-21.84h11.34c6.58 0 9.94 2.94 9.94 8.12 0 5.46-3.22 8.26-10.71 8.26h-10.57V7.614zm58.702-6.16c-14.77 0-22.89 11.13-22.89 25.06 0 14 7.98 25.06 22.33 25.06 15.33 0 22.82-11.9 22.82-25.34 0-14.49-8.54-24.78-22.26-24.78zm-.28 5.53c10.71 0 15.82 8.89 15.82 19.39 0 10.36-4.55 19.67-15.82 19.67-10.5 0-15.82-9.24-15.82-19.74 0-10.36 4.83-19.32 15.82-19.32zm38.778 43.89v-19.46c0-8.82 0-17.08-.35-22.61h.14c3.01 5.46 18.83 31.5 25.27 42.07h8.05V2.154h-6.09v19.04c0 7.91-.07 15.61.42 21.84h-.07c-2.73-5.25-17.92-29.47-24.92-40.88h-8.54v48.72h6.09zm46.41 0h6.37v-18.34l6.23-5.67 18.69 24.01h7.84l-21.98-28.14 20.93-20.58h-8.05c-7.63 7.91-20.02 20.16-23.66 23.94V2.154h-6.37v48.72zm45.322-48.72v48.72h6.44V2.154h-6.44zm25.846 48.72v-19.46c0-8.82 0-17.08-.35-22.61h.14c3.01 5.46 18.83 31.5 25.27 42.07h8.05V2.154h-6.09v19.04c0 7.91-.07 15.61.42 21.84h-.07c-2.73-5.25-17.92-29.47-24.92-40.88h-8.54v48.72h6.09z" fill="#242833"/><path d="M27.386 50.874v1h.692l.244-.647-.936-.352zm18.34-48.72l.936.353.509-1.352h-1.445v1zm-6.65 0v-1h-.699l-.24.657.939.344zm-8.96 24.5l.939.345v-.001l-.939-.344zm-6.37 18.62v1h.77l.197-.745-.967-.255zm-.14 0l-.974.229.181.772h.793v-1zm-6.09-18.83l-.943.332v.001l.943-.332zm-8.54-24.29l.943-.331-.235-.668h-.708v1zm-6.93 0v-1H.618l.488 1.342.94-.341zm17.71 48.72l-.94.342.24.658h.7v-1zm8.566.353l18.34-48.72-1.872-.705-18.34 48.72 1.872.705zM45.726 1.155h-6.65v2h6.65v-2zm-7.59.656l-8.96 24.5 1.88.687 8.96-24.5-1.88-.687zm-8.959 24.5c-2.582 7.049-5.333 14.662-6.398 18.709l1.934.509c1.035-3.933 3.744-11.44 6.342-18.53l-1.878-.688zm-5.431 17.964h-.14v2h.14v-2zm.834.771c-1.066-4.546-3.61-11.817-6.121-18.934l-1.886.665c2.528 7.163 5.025 14.312 6.06 18.726l1.947-.457zm-6.12-18.933L9.92 1.823l-1.887.663 8.54 24.29 1.886-.663zM8.975 1.155h-6.93v2h6.93v-2zm-7.87 1.341l17.71 48.72 1.88-.683-17.71-48.72-1.88.683zm18.65 49.379h7.63v-2h-7.63v2zm33.354-1h-1v1h1v-1zm30.94 0v1h.849l.138-.838-.987-.163zm.91-5.53l.987.162.19-1.163H84.96v1zm-25.41 0h-1v1h1v-1zm0-43.19h1v-1h-1v1zm-6.44 0v-1h-1v1h1zm0 49.72h30.94v-2H53.11v2zm31.927-.838l.91-5.53-1.974-.325-.91 5.53 1.974.325zm-.077-6.693H59.55v2h25.41v-2zm-24.41 1V2.154h-2v43.19h2zm-1-44.19h-6.44v2h6.44v-2zm-7.44 1v48.72h2V2.154h-2zm68.739 34.09l.938-.345-.241-.654h-.697v1zm5.39 14.63l-.938.346.241.654h.697v-1zm6.93 0v1h1.439l-.502-1.348-.937.348zm-18.13-48.72l.937-.348-.242-.651h-.695v1zm-7.91 0v-1h-.705l-.237.665.942.336zm-17.36 48.72l-.942-.335-.476 1.335h1.418v-1zm6.44 0v1h.704l.237-.662-.94-.338zm5.25-14.63v-1h-.703l-.238.663.941.338zm1.68-5.53l-.947-.321-.449 1.322h1.396v-1zm7.77-23.31v-1h-.752l-.209.724.961.277zm.07 0l.962-.272-.206-.727h-.756v1zm8.26 23.31v1h1.431l-.492-1.343-.939.344zm.672 5.876l5.39 14.63 1.876-.691-5.39-14.63-1.876.691zm6.328 15.284h6.93v-2h-6.93v2zm7.867-1.348l-18.13-48.72-1.874.697 18.13 48.72 1.874-.697zM115.039 1.155h-7.91v2h7.91v-2zm-8.852.664l-17.36 48.72 1.884.671 17.36-48.72-1.884-.671zM89.769 51.874h6.44v-2h-6.44v2zm7.381-.662l5.25-14.63-1.882-.675-5.25 14.63 1.882.675zm4.309-13.968h19.39v-2h-19.39v2zm2.627-6.208c3.702-10.896 6.585-19.195 7.784-23.355l-1.922-.553c-1.181 4.1-4.038 12.321-7.756 23.265l1.894.643zm6.823-22.631h.07v-2h-.07v2zm-.892-.728c1.063 3.757 3.604 10.602 8.283 23.381l1.878-.687c-4.701-12.84-7.2-19.576-8.237-23.239l-1.924.545zm9.222 22.038h-16.1v2h16.1v-2zm21.576 21.16h-1v1h1v-1zm0-48.72v-1h-1v1h1zm6.44 5.53v-1h-1v1h1zm0 37.73h-1v1h1v-1zm-6.44 6.46h17.15v-2h-17.15v2zm17.15 0c7.33 0 13.398-2.711 17.626-7.344 4.22-4.623 6.544-11.09 6.544-18.506h-2c0 7.003-2.191 12.961-6.021 17.158-3.822 4.187-9.339 6.691-16.149 6.691v2zm24.17-25.85c0-7.46-2.382-13.692-6.617-18.065-4.237-4.375-10.248-6.805-17.343-6.805v2c6.625 0 12.094 2.259 15.907 6.196 3.815 3.94 6.053 9.644 6.053 16.673h2zm-23.96-24.87h-17.36v2h17.36v-2zm-18.36 1v48.72h2V2.154h-2zm7.44 6.53h10.22v-2h-10.22v2zm10.22 0c5.673 0 9.592 2.104 12.116 5.267 2.55 3.196 3.754 7.574 3.754 12.213h2c0-4.952-1.281-9.814-4.191-13.46-2.936-3.68-7.452-6.02-13.679-6.02v2zm15.87 17.48c0 5.346-1.313 9.91-3.907 13.117-2.57 3.175-6.486 5.133-11.963 5.133v2c6.003 0 10.522-2.173 13.517-5.875 2.971-3.671 4.353-8.732 4.353-14.375h-2zm-15.87 18.25h-10.22v2h10.22v-2zm-9.22 1V7.684h-2v37.73h2zm43.009-43.26v-1h-1v1h1zm0 48.72h-1v1h1v-1zm6.44 0v1h1v-1h-1zm0-48.72h1v-1h-1v1zm-7.44 0v48.72h2V2.154h-2zm1 49.72h6.44v-2h-6.44v2zm7.44-1V2.154h-2v48.72h2zm-1-49.72h-6.44v2h6.44v-2zm9.336 36.14v-1h-1.15l.16 1.138.99-.139zm19.95-14.84l-.239.97.003.001.236-.971zm8.68-7.91l-.978.208.169.791h.809v-1zm6.58 0v1h1.116l-.122-1.11-.994.11zm-17.78 13.65l-.237.971.006.002.231-.973zm-10.85 9.1l.975-.221-.176-.78h-.799v1zm-7.57.138c.55 3.93 2.214 7.72 5.405 10.526 3.195 2.81 7.823 4.545 14.135 4.545v-2c-5.938 0-10.06-1.624-12.815-4.047-2.759-2.426-4.246-5.74-4.745-9.301l-1.98.277zm19.54 15.072c6.115 0 10.798-1.584 13.968-4.301 3.185-2.73 4.742-6.519 4.742-10.7h-2c0 3.66-1.348 6.87-4.043 9.181-2.71 2.323-6.882 3.82-12.667 3.82v2zm18.71-15c0-3.29-.644-6.496-3.221-9.304-2.54-2.768-6.844-5.019-13.853-6.718l-.472 1.943c6.85 1.661 10.702 3.785 12.852 6.127 2.113 2.302 2.694 4.94 2.694 7.951h2zm-17.071-16.022c-4.278-1.051-6.913-1.995-8.484-3.15-.76-.56-1.249-1.152-1.557-1.82-.312-.675-.468-1.49-.468-2.529h-2c0 1.236.185 2.356.652 3.367.471 1.02 1.198 1.865 2.188 2.593 1.929 1.418 4.928 2.433 9.191 3.482l.478-1.943zm-10.509-7.498c0-2.051.717-3.564 2.01-4.59 1.328-1.053 3.386-1.69 6.23-1.69v-2c-3.106 0-5.668.692-7.473 2.124-1.839 1.459-2.767 3.586-2.767 6.156h2zm8.24-6.28c3.402 0 5.599.847 7.042 2.079 1.449 1.237 2.263 2.967 2.69 4.969l1.956-.417c-.483-2.268-1.455-4.458-3.348-6.073-1.899-1.621-4.602-2.558-8.34-2.558v2zm10.71 7.84h6.58v-2h-6.58v2zm7.574-1.11c-.372-3.387-1.828-6.9-4.767-9.565C235.53 2.197 231.18.455 225.17.455v2c5.61 0 9.45 1.617 11.963 3.896 2.521 2.287 3.795 5.32 4.123 8.303l1.988-.219zM225.17.455c-5.601 0-9.903 1.519-12.817 4.101-2.924 2.59-4.353 6.165-4.353 10.058h2c0-3.386 1.23-6.391 3.679-8.561 2.458-2.178 6.242-3.598 11.491-3.598v-2zM208 14.615c0 3.657 1.08 6.644 3.761 9.056 2.62 2.356 6.685 4.084 12.472 5.495l.474-1.943c-5.693-1.389-9.363-3.02-11.608-5.04-2.184-1.963-3.099-4.366-3.099-7.569h-2zm16.239 14.553c4.838 1.148 7.66 2.364 9.276 3.778 1.532 1.34 2.065 2.932 2.065 5.189h2c0-2.644-.657-4.866-2.748-6.694-2.006-1.754-5.239-3.058-10.131-4.22l-.462 1.947zm11.341 8.967c0 2.084-.671 3.83-2.105 5.071-1.453 1.259-3.828 2.118-7.465 2.118v2c3.923 0 6.833-.925 8.775-2.606 1.961-1.699 2.795-4.048 2.795-6.584h-2zm-9.57 7.19c-3.392 0-5.926-.756-7.751-2.113-1.815-1.35-3.039-3.376-3.664-6.138l-1.95.441c.705 3.118 2.141 5.607 4.421 7.302 2.27 1.688 5.266 2.508 8.944 2.508v-2zm-12.39-9.03h-6.58v2h6.58v-2zm39.236 14.58h-1v1h1v-1zm30.94 0v1h.849l.138-.838-.987-.163zm.91-5.53l.987.162.191-1.163h-1.178v1zm-25.41 0h-1v1h1v-1zm0-43.19h1v-1h-1v1zm-6.44 0v-1h-1v1h1zm0 49.72h30.94v-2h-30.94v2zm31.927-.838l.91-5.53-1.974-.325-.91 5.53 1.974.325zm-.077-6.693h-25.41v2h25.41v-2zm-24.41 1V2.154h-2v43.19h2zm-1-44.19h-6.44v2h6.44v-2zm-7.44 1v48.72h2V2.154h-2zm68.739 34.09l.939-.345-.241-.654h-.698v1zm5.39 14.63l-.938.346.241.654h.697v-1zm6.93 0v1h1.439l-.502-1.348-.937.348zm-18.13-48.72l.937-.348-.242-.651h-.695v1zm-7.91 0v-1h-.705l-.237.665.942.336zm-17.36 48.72l-.942-.335-.476 1.335h1.418v-1zm6.44 0v1h.704l.237-.662-.941-.338zm5.25-14.63v-1h-.703l-.238.663.941.338zm1.68-5.53l-.947-.321-.449 1.322h1.396v-1zm7.77-23.31v-1h-.752l-.209.724.961.277zm.07 0l.962-.272-.206-.727h-.756v1zm8.26 23.31v1h1.431l-.492-1.343-.939.344zm.672 5.876l5.39 14.63 1.877-.691-5.39-14.63-1.877.691zm6.328 15.284h6.93v-2h-6.93v2zm7.867-1.348l-18.13-48.72-1.874.697 18.13 48.72 1.874-.697zM314.785 1.155h-7.91v2h7.91v-2zm-8.852.664l-17.36 48.72 1.884.671 17.36-48.72-1.884-.671zm-16.418 50.055h6.44v-2h-6.44v2zm7.381-.662l5.25-14.63-1.882-.675-5.25 14.63 1.882.675zm4.309-13.968h19.39v-2h-19.39v2zm2.627-6.208c3.702-10.896 6.586-19.195 7.784-23.355l-1.922-.553c-1.181 4.1-4.038 12.321-7.756 23.265l1.894.643zm6.823-22.631h.07v-2h-.07v2zm-.892-.728c1.063 3.757 3.604 10.602 8.283 23.381l1.878-.687c-4.701-12.84-7.2-19.576-8.237-23.239l-1.924.545zm9.222 22.038h-16.1v2h16.1v-2zm37.278 21.16v1h.692l.244-.648-.936-.352zm18.34-48.72l.936.352.509-1.352h-1.445v1zm-6.65 0v-1h-.699l-.24.656.939.344zm-8.96 24.5l.939.343-.939-.344zm-6.37 18.62v1h.771l.196-.746-.967-.255zm-.14 0l-.974.228.181.772h.793v-1zm-6.09-18.83l-.943.331v.001l.943-.332zm-8.54-24.29l.943-.332-.235-.668h-.708v1zm-6.93 0v-1h-1.428l.488 1.341.94-.341zm17.71 48.72l-.94.341.239.658h.701v-1zm8.566.352l18.34-48.72-1.872-.705-18.34 48.72 1.872.705zm17.404-50.072h-6.65v2h6.65v-2zm-7.589.656l-8.96 24.5 1.878.687 8.96-24.5-1.878-.687zm-8.96 24.5c-2.582 7.049-5.333 14.662-6.398 18.709l1.934.509c1.035-3.933 3.744-11.44 6.342-18.53l-1.878-.688zm-5.431 17.964h-.14v2h.14v-2zm.834.771c-1.066-4.546-3.609-11.817-6.121-18.934l-1.886.665c2.528 7.163 5.025 14.312 6.059 18.726l1.948-.457zm-6.121-18.933l-8.54-24.29-1.886.663 8.54 24.29 1.886-.663zm-9.483-24.958h-6.93v2h6.93v-2zm-7.87 1.341l17.71 48.72 1.88-.683-17.71-48.72-1.88.683zm18.65 49.379h7.63v-2h-7.63v2zm46.377-1h-1v1h1v-1zm37.17 0v1h.849l.138-.838-.987-.163zm.91-5.53l.987.162.191-1.163h-1.178v1zm-30.1 0l-.792-.61-1.241 1.61h2.033v-1zm29.12-37.8l.792.61.208-.27v-.34h-1zm0-5.39h1v-1h-1v1zm-35.63 0v-1h-1v1h1zm0 5.53h-1v1h1v-1zm28.21 0l.79.613 1.253-1.613h-2.043v1zm-29.68 38.22l-.79-.614-.21.27v.343h1zm0 5.97h37.17v-2h-37.17v2zm38.157-.838l.91-5.53-1.974-.325-.91 5.53 1.974.325zm-.077-6.693h-30.1v2h30.1v-2zm-29.308 1.61l29.12-37.8-1.584-1.22-29.12 37.8 1.584 1.22zm29.328-38.41v-5.39h-2v5.39h2zm-1-6.39h-35.63v2h35.63v-2zm-36.63 1v5.53h2v-5.53h-2zm1 6.53h28.21v-2h-28.21v2zm27.42-1.613l-29.68 38.22 1.58 1.227 29.68-38.22-1.58-1.227zm-29.89 38.834v4.97h2v-4.97h-2zm47.86 4.97h-1v1h1v-1zm6.44 0v1h1v-1h-1zm0-22.82v-1h-1v1h1zm25.34 0h1v-1h-1v1zm0 22.82h-1v1h1v-1zm6.51 0v1h1v-1h-1zm0-48.72h1v-1h-1v1zm-6.51 0v-1h-1v1h1zm0 20.37v1h1v-1h-1zm-25.34 0h-1v1h1v-1zm0-20.37h1v-1h-1v1zm-6.44 0v-1h-1v1h1zm0 49.72h6.44v-2h-6.44v2zm7.44-1v-22.82h-2v22.82h2zm-1-21.82h25.34v-2h-25.34v2zm24.34-1v22.82h2v-22.82h-2zm1 23.82h6.51v-2h-6.51v2zm7.51-1V2.154h-2v48.72h2zm-1-49.72h-6.51v2h6.51v-2zm-7.51 1v20.37h2V2.155h-2zm1 19.37h-25.34v2h25.34v-2zm-24.34 1V2.154h-2v20.37h2zm-1-21.37h-6.44v2h6.44v-2zm-7.44 1v48.72h2V2.154h-2zm52.543 0v-1h-1v1h1zm0 48.72h-1v1h1v-1zm6.44 0v1h1v-1h-1zm0-48.72h1v-1h-1v1zm-7.44 0v48.72h2V2.154h-2zm1 49.72h6.44v-2h-6.44v2zm7.44-1V2.154h-2v48.72h2zm-1-49.72h-6.44v2h6.44v-2zm41.176 49.72l-.918.397.261.602h.657v-1zm6.3 0v1h1.496l-.572-1.383-.924.383zm-8.12-24.22l-.26-.966-3.632.976 3.637.957.255-.968zm-26.04-24.5v-1h-1v1h1zm0 48.72h-1v1h1v-1zm6.37 0v1h1v-1h-1zm0-21.42v-1h-1v1h1zm0-21.84v-1h-1v1h1zm0 16.38h-1v1h1v-1zm9.94 6.46c4.32 0 6.635.756 7.921 2.07 1.286 1.315 1.789 3.435 1.789 6.87h2c0-3.496-.478-6.346-2.359-8.269-1.882-1.923-4.922-2.672-9.351-2.672v2zm9.71 8.94v.98h2v-.98h-2zm0 .98c0 2.292-.018 4.429.08 6.248.097 1.8.311 3.424.842 4.65l1.835-.796c-.379-.875-.585-2.191-.68-3.961-.095-1.75-.077-3.814-.077-6.142h-2zm1.84 11.5h6.3v-2h-6.3v2zm7.224-1.383c-.345-.832-.52-2.242-.59-3.989-.069-1.714-.034-3.582-.034-5.288h-2c0 1.653-.036 3.6.035 5.368.07 1.736.245 3.476.741 4.674l1.848-.765zm-.624-9.277v-2.1h-2v2.1h2zm0-2.1c0-4.327-.883-7.404-2.396-9.56-1.524-2.174-3.607-3.298-5.77-3.868l-.509 1.935c1.827.48 3.454 1.386 4.642 3.08 1.2 1.711 2.033 4.34 2.033 8.412h2zm-8.161-11.495c5.113-1.373 9.071-5.608 9.071-12.446h-2c0 5.904-3.322 9.368-7.59 10.515l.519 1.931zm9.071-12.446c0-4.025-1.424-7.565-4.245-10.09-2.81-2.515-6.904-3.93-12.085-3.93v2c4.828 0 8.399 1.316 10.751 3.42 2.342 2.096 3.579 5.066 3.579 8.6h2zm-16.33-14.02h-19.04v2h19.04v-2zm-20.04 1v48.72h2V2.154h-2zm1 49.72h6.37v-2h-6.37v2zm7.37-1v-21.42h-2v21.42h2zm-1-20.42h9.94v-2h-9.94v2zm0-21.84h11.34v-2h-11.34v2zm11.34 0c3.16 0 5.381.709 6.798 1.887 1.386 1.153 2.142 2.873 2.142 5.234h2c0-2.82-.925-5.16-2.864-6.772-1.908-1.587-4.656-2.348-8.076-2.348v2zm8.94 7.12c0 2.526-.735 4.257-2.169 5.395-1.482 1.177-3.889 1.865-7.541 1.865v2c3.837 0 6.785-.71 8.785-2.299 2.049-1.627 2.925-4.026 2.925-6.96h-2zm-9.71 7.26h-10.57v2h10.57v-2zm-9.57 1V7.614h-2v16.38h2zM578.241.454c-7.658 0-13.665 2.896-17.743 7.656-4.063 4.741-6.147 11.253-6.147 18.405h2c0-6.78 1.975-12.797 5.665-17.104 3.674-4.287 9.112-6.956 16.225-6.956v-2zm-23.89 26.06c0 7.182 2.046 13.69 6.017 18.423 3.989 4.753 9.857 7.638 17.313 7.638v-2c-6.895 0-12.191-2.646-15.781-6.923-3.606-4.298-5.549-10.319-5.549-17.137h-2zm23.33 26.06c7.951 0 13.947-3.1 17.934-7.998 3.966-4.873 5.886-11.448 5.886-18.341h-2c0 6.546-1.826 12.641-5.437 17.078-3.59 4.411-9.005 7.261-16.383 7.261v2zm23.82-26.34c0-7.436-2.193-13.882-6.234-18.483-4.053-4.615-9.899-7.296-17.026-7.296v2c6.592 0 11.876 2.463 15.523 6.616 3.659 4.166 5.737 10.11 5.737 17.163h2zm-23.54-18.25c5.039 0 8.695 2.074 11.122 5.353 2.453 3.315 3.698 7.933 3.698 13.038h2c0-5.396-1.311-10.473-4.09-14.228-2.806-3.791-7.06-6.162-12.73-6.162v2zm14.82 18.39c0 5.055-1.114 9.747-3.502 13.146-2.356 3.35-6.003 5.524-11.318 5.524v2c5.954 0 10.217-2.48 12.954-6.374 2.704-3.847 3.866-8.99 3.866-14.296h-2zm-14.82 18.67c-4.915 0-8.576-2.144-11.04-5.521-2.487-3.41-3.78-8.122-3.78-13.219h-2c0 5.404 1.366 10.562 4.164 14.397 2.822 3.868 7.071 6.343 12.656 6.343v-2zm-14.82-18.74c0-5.043 1.178-9.643 3.596-12.955 2.388-3.27 6.04-5.364 11.224-5.364v-2c-5.807 0-10.065 2.386-12.839 6.185-2.745 3.758-3.981 8.818-3.981 14.135h2zm53.598 24.57v1h1v-1h-1zm-.35-42.07v-1h-1.065l.067 1.064.998-.063zm.14 0l.876-.482-.285-.517h-.591v1zm25.27 42.07l-.854.52.292.48h.562v-1zm8.05 0v1h1v-1h-1zm0-48.72h1v-1h-1v1zm-6.09 0v-1h-1v1h1zm.42 40.88v1h1.082l-.085-1.078-.997.078zm-.07 0l-.887.462.28.538h.607v-1zm-24.92-40.88l.852-.522-.292-.477h-.56v1zm-8.54 0v-1h-1v1h1zm0 48.72h-1v1h1v-1zm7.09 0v-19.46h-2v19.46h2zm0-19.46c0-8.805 0-17.103-.352-22.673l-1.996.127c.347 5.49.348 13.712.348 22.547h2zm-1.35-21.61h.14v-2h-.14v2zm-.736-.517c3.024 5.485 18.861 31.553 25.292 42.108l1.708-1.04c-6.449-10.586-22.252-36.598-25.248-42.033l-1.752.965zm26.146 42.587h8.05v-2h-8.05v2zm9.05-1V2.154h-2v48.72h2zm-1-49.72h-6.09v2h6.09v-2zm-7.09 1v19.04h2V2.155h-2zm0 19.04c0 7.887-.071 15.64.423 21.919l1.994-.157c-.486-6.18-.417-13.828-.417-21.762h-2zm1.42 20.84h-.07v2h.07v-2zm.817.54c-2.752-5.293-17.982-29.577-24.955-40.942l-1.704 1.045c7.027 11.455 22.177 35.61 24.885 40.819l1.774-.923zm-25.807-41.42h-8.54v2h8.54v-2zm-9.54 1v48.72h2V2.154h-2zm1 49.72h6.09v-2h-6.09v2zm52.5-1h-1v1h1v-1zm6.37 0v1h1v-1h-1zm0-18.34l-.673-.74-.327.299v.441h1zm6.23-5.67l.789-.614-.663-.852-.799.727.673.74zm18.69 24.01l-.789.615.3.386h.489v-1zm7.84 0v1h2.05l-1.262-1.615-.788.615zm-21.98-28.14l-.701-.713-.636.626.549.703.788-.616zm20.93-20.58l.701.714 1.742-1.713h-2.443v1zm-8.05 0v-1h-.425l-.295.306.72.695zm-23.66 23.94h-1v2.48l1.72-1.786-.72-.694zm0-23.94h1v-1h-1v1zm-6.37 0v-1h-1v1h1zm0 49.72h6.37v-2h-6.37v2zm7.37-1v-18.34h-2v18.34h2zm-.327-17.6l6.23-5.67-1.346-1.48-6.23 5.67 1.346 1.48zm4.768-5.795l18.69 24.01 1.578-1.229-18.69-24.01-1.578 1.229zm19.479 24.395h7.84v-2h-7.84v2zm8.628-1.615l-21.98-28.14-1.576 1.231 21.98 28.14 1.576-1.231zM681 23.448l20.93-20.58-1.402-1.427-20.93 20.58L681 23.448zm20.229-22.293h-8.05v2h8.05v-2zm-8.77.305c-3.808 3.949-8.808 8.983-13.315 13.508-4.5 4.517-8.518 8.535-10.345 10.433l1.44 1.387c1.813-1.882 5.81-5.88 10.322-10.409 4.506-4.523 9.516-9.569 13.338-13.53l-1.44-1.389zm-21.94 24.634V2.154h-2v23.94h2zm-1-24.94h-6.37v2h6.37v-2zm-7.37 1v48.72h2V2.154h-2zm46.322 0v-1h-1v1h1zm0 48.72h-1v1h1v-1zm6.44 0v1h1v-1h-1zm0-48.72h1v-1h-1v1zm-7.44 0v48.72h2V2.154h-2zm1 49.72h6.44v-2h-6.44v2zm7.44-1V2.154h-2v48.72h2zm-1-49.72h-6.44v2h6.44v-2zm19.406 49.72v1h1v-1h-1zm-.35-42.07v-1h-1.065l.067 1.064.998-.063zm.14 0l.876-.482-.285-.517h-.591v1zm25.27 42.07l-.854.52.292.48h.562v-1zm8.05 0v1h1v-1h-1zm0-48.72h1v-1h-1v1zm-6.09 0v-1h-1v1h1zm.42 40.88v1h1.082l-.085-1.078-.997.078zm-.07 0l-.887.462.28.538h.607v-1zm-24.92-40.88l.852-.522-.292-.477h-.56v1zm-8.54 0v-1h-1v1h1zm0 48.72h-1v1h1v-1zm7.09 0v-19.46h-2v19.46h2zm0-19.46c0-8.805.001-17.103-.352-22.673l-1.996.127c.348 5.49.348 13.712.348 22.547h2zm-1.35-21.61h.14v-2h-.14v2zm-.736-.517c3.024 5.485 18.861 31.553 25.292 42.108l1.708-1.04c-6.449-10.586-22.252-36.598-25.248-42.033l-1.752.965zm26.146 42.587h8.05v-2h-8.05v2zm9.05-1V2.154h-2v48.72h2zm-1-49.72h-6.09v2h6.09v-2zm-7.09 1v19.04h2V2.155h-2zm0 19.04c0 7.887-.071 15.64.423 21.919l1.994-.157c-.486-6.18-.417-13.828-.417-21.762h-2zm1.42 20.84h-.07v2h.07v-2zm.817.54c-2.751-5.293-17.982-29.577-24.955-40.942l-1.704 1.045c7.027 11.455 22.177 35.61 24.885 40.819l1.774-.923zm-25.807-41.42h-8.54v2h8.54v-2zm-9.54 1v48.72h2V2.154h-2zm1 49.72h6.09v-2h-6.09v2z" fill="#000"/></svg>