<svg width="499" height="53" fill="none" xmlns="http://www.w3.org/2000/svg"><path d="M43.436 50.751h-1v1h1v-1zm6.3 0v1h1v-1h-1zm0-48.72h1v-1h-1v1zm-9.31 0v-1h-.684l-.248.638.932.362zm-14.91 40.81v1h.778l.191-.754-.969-.246zm-.07 0l-.965.264.201.736h.764v-1zm-14-40.81l.94-.343-.24-.657h-.7v1zm-9.59 0v-1h-1v1h1zm0 48.72h-1v1h1v-1zm6.09 0v1h1v-1h-1zm-.56-44.24v-1H6.323l.065 1.062.998-.062zm.21 0l.968-.252-.195-.748h-.773v1zm14.56 44.24l-.947.32.23.68h.717v-1zm5.81 0v1h.7l.24-.657-.94-.343zm15.54-44.1v-1h-.769l-.197.744.966.256zm.28 0l1 .041.042-1.04h-1.042v1zm-.35 45.1h6.3v-2h-6.3v2zm7.3-1V2.031h-2v48.72h2zm-1-49.72h-9.31v2h9.31v-2zm-10.242.638a1542.906 1542.906 0 00-9.167 24.202c-2.853 7.746-5.169 14.316-5.78 16.724l1.938.492c.58-2.281 2.849-8.732 5.718-16.525a1541.245 1541.245 0 019.155-24.168l-1.864-.725zM25.516 41.841h-.07v2h.07v-2zm.895.737c-1.693-6.209-8.5-25.781-14.026-40.89l-1.878.687c5.534 15.13 12.308 34.618 13.975 40.73l1.929-.527zM11.446 1.031h-9.59v2h9.59v-2zm-10.59 1v48.72h2V2.031h-2zm1 49.72h6.09v-2h-6.09v2zm7.09-1v-19.39h-2v19.39h2zm0-19.39c0-8.406-.21-19.21-.562-24.911l-1.996.123c.348 5.639.558 16.395.558 24.788h2zm-1.56-23.85h.21v-2h-.21v2zm-.757-.748c2.181 8.376 10.394 31.89 14.58 44.308l1.895-.64C18.89 37.93 10.722 14.545 8.564 6.26l-1.935.504zm15.527 44.988h5.81v-2h-5.81v2zm6.75-.657C34.489 35.81 42.357 14.876 44.473 6.908l-1.933-.513c-2.085 7.852-9.896 28.638-15.513 44.013l1.879.686zm14.6-43.443h.28v-2h-.28v2zm-.719-1.04c-.21 5.13-.35 14.315-.35 23.42h2c0-9.094.14-18.249.348-23.339l-1.998-.082zm-.35 23.42v20.72h2v-20.72h-2zm46.23 6.09l.94-.345-.242-.655h-.697v1zm5.39 14.63l-.938.346.242.654h.697v-1zm6.931 0v1h1.439l-.502-1.348-.937.348zm-18.13-48.72l.937-.348-.242-.652h-.695v1zm-7.91 0v-1h-.705l-.237.665.942.335zm-17.36 48.72l-.942-.335-.476 1.335h1.418v-1zm6.44 0v1h.703l.238-.662-.941-.338zm5.25-14.63v-1h-.704l-.237.663.94.337zm1.68-5.53l-.947-.321-.45 1.321h1.397v-1zm7.77-23.31v-1h-.753l-.208.723.96.277zm.07 0l.962-.272-.206-.728h-.756v1zm8.26 23.31v1h1.43l-.491-1.344-.94.344zm.671 5.876l5.39 14.63 1.877-.691-5.39-14.63-1.877.691zm6.329 15.284h6.93v-2h-6.93v2zm7.867-1.348l-18.13-48.72-1.874.697 18.13 48.72 1.874-.697zM82.858 1.03h-7.91v2h7.91v-2zm-8.852.665l-17.36 48.72 1.884.671 17.36-48.72-1.884-.671zM57.588 51.75h6.44v-2h-6.44v2zm7.381-.662l5.25-14.63-1.882-.675-5.25 14.63 1.882.675zm4.309-13.968h19.39v-2h-19.39v2zm2.627-6.208c3.702-10.896 6.585-19.195 7.784-23.355l-1.922-.554c-1.181 4.1-4.038 12.322-7.756 23.266l1.894.643zM78.728 8.28h.07v-2h-.07v2zm-.892-.727c1.063 3.757 3.604 10.601 8.283 23.381l1.878-.688c-4.701-12.84-7.2-19.575-8.237-23.238l-1.925.545zm9.222 22.037h-16.1v2h16.1v-2zm49.436 21.16l-.918.398.261.602h.657v-1zm6.3 0v1h1.496l-.572-1.382-.924.382zm-8.12-24.22l-.26-.965-3.632.975 3.637.957.255-.967zm-26.04-24.5v-1h-1v1h1zm0 48.72h-1v1h1v-1zm6.37 0v1h1v-1h-1zm0-21.42v-1h-1v1h1zm0-21.84v-1h-1v1h1zm0 16.38h-1v1h1v-1zm9.94 6.46c4.32 0 6.635.757 7.921 2.07 1.286 1.316 1.789 3.436 1.789 6.87h2c0-3.495-.478-6.345-2.359-8.268-1.882-1.923-4.922-2.672-9.351-2.672v2zm9.71 8.94v.98h2v-.98h-2zm0 .98c0 2.293-.018 4.43.08 6.25.097 1.8.311 3.423.842 4.648l1.835-.795c-.379-.876-.585-2.192-.68-3.962-.094-1.75-.077-3.813-.077-6.14h-2zm1.84 11.5h6.3v-2h-6.3v2zm7.224-1.382c-.345-.832-.52-2.243-.59-3.99-.069-1.714-.034-3.58-.034-5.288h-2c0 1.654-.036 3.601.035 5.37.07 1.735.245 3.475.741 4.673l1.848-.765zm-.624-9.278v-2.1h-2v2.1h2zm0-2.1c0-4.327-.883-7.404-2.395-9.56-1.525-2.173-3.608-3.298-5.771-3.867l-.509 1.934c1.827.481 3.454 1.387 4.642 3.081 1.2 1.711 2.033 4.34 2.033 8.412h2zm-8.161-11.494c5.113-1.373 9.071-5.609 9.071-12.446h-2c0 5.903-3.322 9.368-7.59 10.515l.519 1.931zm9.071-12.446c0-4.025-1.424-7.565-4.245-10.09-2.81-2.515-6.904-3.93-12.085-3.93v2c4.828 0 8.399 1.316 10.751 3.42 2.342 2.096 3.579 5.065 3.579 8.6h2zm-16.33-14.02h-19.04v2h19.04v-2zm-20.04 1v48.72h2V2.031h-2zm1 49.72h6.37v-2h-6.37v2zm7.37-1V29.33h-2v21.42h2zm-1-20.42h9.94v-2h-9.94v2zm0-21.84h11.34v-2h-11.34v2zm11.34 0c3.16 0 5.381.709 6.798 1.887 1.386 1.153 2.142 2.872 2.142 5.233h2c0-2.819-.925-5.159-2.864-6.771-1.908-1.587-4.656-2.349-8.076-2.349v2zm8.94 7.12c0 2.526-.735 4.257-2.168 5.395-1.483 1.177-3.89 1.865-7.542 1.865v2c3.837 0 6.785-.711 8.785-2.299 2.049-1.627 2.925-4.026 2.925-6.96h-2zm-9.71 7.26h-10.57v2h10.57v-2zm-9.57 1V7.491h-2v16.38h2zm37.884 26.88h-1v1h1v-1zm6.37 0v1h1v-1h-1zm0-18.34l-.674-.74-.326.298v.442h1zm6.23-5.67l.789-.614-.664-.852-.799.727.674.74zm18.69 24.01l-.79.615.301.385h.489v-1zm7.84 0v1h2.05l-1.262-1.615-.788.615zm-21.98-28.14l-.702-.713-.636.626.549.703.789-.616zm20.93-20.58l.701.713 1.742-1.713h-2.443v1zm-8.05 0v-1h-.425l-.295.306.72.694zm-23.66 23.94h-1v2.48l1.72-1.786-.72-.694zm0-23.94h1v-1h-1v1zm-6.37 0v-1h-1v1h1zm0 49.72h6.37v-2h-6.37v2zm7.37-1V32.41h-2v18.34h2zm-.327-17.6l6.23-5.67-1.347-1.48-6.23 5.67 1.347 1.48zm4.767-5.795l18.69 24.01 1.579-1.229-18.69-24.01-1.579 1.229zm19.48 24.395h7.84v-2h-7.84v2zm8.628-1.615l-21.98-28.14-1.577 1.23 21.98 28.14 1.577-1.23zm-22.067-26.812l20.93-20.58-1.403-1.426-20.93 20.58 1.403 1.426zM191.968 1.03h-8.05v2h8.05v-2zm-8.77.306c-3.809 3.948-8.808 8.983-13.315 13.507-4.501 4.518-8.518 8.536-10.346 10.434l1.441 1.387c1.812-1.882 5.81-5.88 10.322-10.41 4.505-4.522 9.516-9.568 13.337-13.53l-1.439-1.388zm-21.94 24.634V2.031h-2v23.94h2zm-1-24.94h-6.37v2h6.37v-2zm-7.37 1v48.72h2V2.031h-2zm59.842 35.14v-1h-1.15l.159 1.14.991-.14zm19.95-14.84l-.239.971.003.001.236-.972zm8.68-7.91l-.978.209.168.791h.81v-1zm6.58 0v1h1.116l-.122-1.109-.994.11zm-17.78 13.65l-.237.972.006.001.231-.973zm-10.85 9.1l.975-.22-.176-.78h-.799v1zm-7.571.14c.551 3.928 2.214 7.719 5.405 10.525 3.196 2.81 7.824 4.545 14.136 4.545v-2c-5.939 0-10.061-1.625-12.815-4.047-2.759-2.426-4.246-5.74-4.745-9.302l-1.981.278zm19.541 15.07c6.115 0 10.798-1.583 13.968-4.3 3.184-2.73 4.742-6.519 4.742-10.7h-2c0 3.66-1.348 6.87-4.044 9.181-2.709 2.323-6.881 3.82-12.666 3.82v2zm18.71-15c0-3.288-.644-6.495-3.221-9.303-2.541-2.768-6.844-5.02-13.854-6.718l-.471 1.943c6.85 1.66 10.702 3.785 12.851 6.127 2.113 2.302 2.695 4.94 2.695 7.951h2zm-17.072-16.02c-4.277-1.053-6.912-1.997-8.484-3.152-.76-.558-1.248-1.152-1.556-1.82-.312-.675-.468-1.488-.468-2.528h-2c0 1.236.185 2.356.652 3.367.47 1.02 1.198 1.865 2.188 2.593 1.928 1.417 4.928 2.433 9.191 3.481l.477-1.942zm-10.508-7.5c0-2.05.717-3.563 2.01-4.589 1.327-1.053 3.386-1.69 6.23-1.69v-2c-3.106 0-5.668.691-7.473 2.123-1.839 1.46-2.767 3.587-2.767 6.156h2zm8.24-6.28c3.402 0 5.599.848 7.042 2.08 1.449 1.237 2.263 2.966 2.69 4.969l1.956-.417c-.484-2.268-1.455-4.458-3.348-6.074-1.899-1.62-4.603-2.558-8.34-2.558v2zm10.71 7.84h6.58v-2h-6.58v2zm7.574-1.109c-.373-3.387-1.829-6.9-4.768-9.565C241.219 2.074 236.869.33 230.86.33v2c5.61 0 9.45 1.618 11.963 3.897 2.521 2.287 3.795 5.32 4.123 8.303l1.988-.219zM230.86.332c-5.602 0-9.903 1.519-12.817 4.1-2.924 2.591-4.353 6.165-4.353 10.06h2c0-3.387 1.23-6.392 3.679-8.562 2.458-2.178 6.242-3.599 11.491-3.599v-2zm-17.17 14.16c0 3.657 1.079 6.644 3.761 9.055 2.62 2.356 6.684 4.084 12.472 5.496l.474-1.943c-5.693-1.389-9.364-3.02-11.609-5.04-2.183-1.963-3.098-4.366-3.098-7.569h-2zm16.239 14.552c4.838 1.149 7.659 2.365 9.276 3.779 1.532 1.339 2.065 2.932 2.065 5.188h2c0-2.643-.657-4.865-2.748-6.694-2.006-1.753-5.239-3.057-10.131-4.219l-.462 1.946zm11.341 8.967c0 2.085-.672 3.83-2.105 5.072-1.454 1.259-3.828 2.118-7.465 2.118v2c3.923 0 6.833-.925 8.774-2.606 1.962-1.699 2.796-4.048 2.796-6.584h-2zm-9.57 7.19c-3.392 0-5.926-.755-7.751-2.112-1.815-1.35-3.039-3.376-3.664-6.138l-1.951.441c.706 3.118 2.141 5.606 4.421 7.302 2.27 1.688 5.267 2.507 8.945 2.507v-2zm-12.39-9.03h-6.58v2h6.58v-2zm69.756-13.7h1v-1h-1v1zm-24.22 0h-1v1h1v-1zm0-14.91v-1h-1v1h1zm25.41 0v1h1v-1h-1zm0-5.53h1v-1h-1v1zm-31.71 0v-1h-1v1h1zm0 48.72h-1v1h1v-1zm32.06 0v1h.859l.129-.85-.988-.15zm.84-5.53l.988.15.175-1.15h-1.163v1zm-26.6 0h-1v1h1v-1zm0-17.22v-1h-1v1h1zm24.22 0v1h1v-1h-1zm0-6.53h-24.22v2h24.22v-2zm-23.22 1V7.561h-2v14.91h2zm-1-13.91h25.41v-2h-25.41v2zm26.41-1v-5.53h-2v5.53h2zm-1-6.53h-31.71v2h31.71v-2zm-32.71 1v48.72h2V2.031h-2zm1 49.72h32.06v-2h-32.06v2zm33.048-.85l.84-5.53-1.977-.3-.84 5.53 1.977.3zm-.148-6.68h-26.6v2h26.6v-2zm-25.6 1v-17.22h-2v17.22h2zm-1-16.22h24.22v-2h-24.22v2zm25.22-1v-5.53h-2v5.53h2zm38.107 22.75l-.917.398.261.602h.656v-1zm6.3 0v1h1.496l-.572-1.382-.924.382zm-8.12-24.22l-.259-.965-3.632.975 3.637.957.254-.967zm-26.04-24.5v-1h-1v1h1zm0 48.72h-1v1h1v-1zm6.37 0v1h1v-1h-1zm0-21.42v-1h-1v1h1zm0-21.84v-1h-1v1h1zm0 16.38h-1v1h1v-1zm9.94 6.46c4.321 0 6.636.757 7.922 2.07 1.286 1.316 1.788 3.436 1.788 6.87h2c0-3.495-.477-6.345-2.359-8.268-1.882-1.923-4.921-2.672-9.351-2.672v2zm9.71 8.94v.98h2v-.98h-2zm0 .98c0 2.293-.018 4.43.08 6.25.098 1.8.312 3.423.843 4.648l1.835-.795c-.379-.876-.585-2.192-.68-3.962-.095-1.75-.078-3.813-.078-6.14h-2zm1.84 11.5h6.3v-2h-6.3v2zm7.224-1.382c-.344-.832-.519-2.243-.59-3.99-.068-1.714-.034-3.58-.034-5.288h-2c0 1.654-.035 3.601.036 5.37.07 1.735.245 3.475.74 4.673l1.848-.765zm-.624-9.278v-2.1h-2v2.1h2zm0-2.1c0-4.327-.882-7.404-2.395-9.56-1.524-2.173-3.608-3.298-5.77-3.867l-.509 1.934c1.827.481 3.454 1.387 4.642 3.081 1.2 1.711 2.032 4.34 2.032 8.412h2zm-8.16-11.494c5.112-1.373 9.07-5.609 9.07-12.446h-2c0 5.903-3.322 9.368-7.589 10.515l.519 1.931zm9.07-12.446c0-4.025-1.423-7.565-4.244-10.09-2.811-2.515-6.904-3.93-12.086-3.93v2c4.829 0 8.4 1.316 10.752 3.42 2.342 2.096 3.578 5.065 3.578 8.6h2zm-16.33-14.02h-19.04v2h19.04v-2zm-20.04 1v48.72h2V2.031h-2zm1 49.72h6.37v-2h-6.37v2zm7.37-1v-21.42h-2v21.42h2zm-1-20.42h9.94v-2h-9.94v2zm0-21.84h11.34v-2h-11.34v2zm11.34 0c3.16 0 5.382.709 6.798 1.887 1.387 1.153 2.142 2.872 2.142 5.233h2c0-2.819-.924-5.159-2.863-6.771-1.908-1.587-4.657-2.349-8.077-2.349v2zm8.94 7.12c0 2.526-.734 4.257-2.168 5.395-1.482 1.177-3.889 1.865-7.542 1.865v2c3.838 0 6.786-.711 8.786-2.299 2.049-1.627 2.924-4.026 2.924-6.96h-2zm-9.71 7.26h-10.57v2h10.57v-2zm-9.57 1V7.491h-2v16.38h2zm68.404-1.4h1v-1h-1v1zm-24.22 0h-1v1h1v-1zm0-14.91v-1h-1v1h1zm25.41 0v1h1v-1h-1zm0-5.53h1v-1h-1v1zm-31.71 0v-1h-1v1h1zm0 48.72h-1v1h1v-1zm32.06 0v1h.86l.129-.85-.989-.15zm.84-5.53l.989.15.175-1.15h-1.164v1zm-26.6 0h-1v1h1v-1zm0-17.22v-1h-1v1h1zm24.22 0v1h1v-1h-1zm0-6.53h-24.22v2h24.22v-2zm-23.22 1V7.561h-2v14.91h2zm-1-13.91h25.41v-2h-25.41v2zm26.41-1v-5.53h-2v5.53h2zm-1-6.53h-31.71v2h31.71v-2zm-32.71 1v48.72h2V2.031h-2zm1 49.72h32.06v-2h-32.06v2zm33.049-.85l.84-5.53-1.977-.3-.84 5.53 1.977.3zm-.149-6.68h-26.6v2h26.6v-2zm-25.6 1v-17.22h-2v17.22h2zm-1-16.22h24.22v-2h-24.22v2zm25.22-1v-5.53h-2v5.53h2zm49.728-3.57h1v-1h-1v1zm-20.02 0v-1h-1v1h1zm0 5.53h-1v1h1v-1zm13.72 0h1v-1h-1v1zm.14-13.79l-.956.294.217.706h.739v-1zm6.44 0v1h1.174l-.187-1.159-.987.16zm-5.88 28l1-.02-.069-3.416-1.784 2.914.853.522zm.63 6.58l-.934.36.247.64h.687v-1zm4.97 0v1h1v-1h-1zm0-27.32h-20.02v2h20.02v-2zm-21.02 1v5.53h2v-5.53h-2zm1 6.53h13.72v-2h-13.72v2zm12.72-1v.56h2v-.56h-2zm0 .56c0 4.018-.676 7.631-2.542 10.222-1.819 2.527-4.894 4.248-10.108 4.248v2c5.705 0 9.455-1.918 11.731-5.08 2.23-3.096 2.919-7.217 2.919-11.39h-2zm-12.65 14.47c-5.163 0-8.725-2.18-11.035-5.51-2.341-3.377-3.435-8.003-3.435-12.88h-2c0 5.134 1.145 10.203 3.792 14.019 2.678 3.862 6.851 6.371 12.678 6.371v-2zm-14.47-18.39c0-5.31 1.1-10.05 3.468-13.435 2.332-3.333 5.956-5.445 11.282-5.445v-2c-5.945 0-10.196 2.404-12.921 6.298-2.689 3.843-3.829 9.043-3.829 14.582h2zm14.75-18.88c3.818 0 6.546.952 8.505 2.469 1.964 1.52 3.251 3.683 4.049 6.275l1.912-.588c-.883-2.868-2.361-5.43-4.737-7.269-2.381-1.843-5.568-2.887-9.729-2.887v2zm13.51 9.45h6.44v-2h-6.44v2zm7.427-1.159c-.738-4.574-2.978-8.514-6.549-11.304-3.566-2.786-8.397-4.377-14.248-4.377v2c5.488 0 9.863 1.49 13.017 3.953 3.149 2.46 5.143 5.94 5.806 10.047l1.974-.319zM407.285.332c-7.622 0-13.581 2.86-17.619 7.672-4.019 4.79-6.061 11.424-6.061 18.877h2c0-7.107 1.948-13.247 5.593-17.592 3.628-4.323 9.008-6.958 16.087-6.958v-2zm-23.68 26.55c0 7.097 1.899 13.466 5.696 18.082 3.818 4.64 9.482 7.417 16.794 7.417v-2c-6.759 0-11.839-2.543-15.249-6.688-3.43-4.169-5.241-10.049-5.241-16.812h-2zm22.49 25.5c4.557 0 7.987-.978 10.574-2.45a14.898 14.898 0 005.399-5.239l-1.706-1.044a12.893 12.893 0 01-4.682 4.544c-2.242 1.276-5.322 2.188-9.585 2.188v2zm14.12-8.19c.035 1.762.106 3.207.214 4.336.106 1.101.255 1.99.482 2.582l1.867-.718c-.122-.317-.253-.968-.358-2.055-.101-1.059-.171-2.448-.205-4.186l-2 .04zm1.63 7.56h4.97v-2h-4.97v2zm5.97-1v-26.32h-2v26.32h2zm10.789-48.72v-1h-1v1h1zm0 48.72h-1v1h1v-1zm6.44 0v1h1v-1h-1zm0-48.72h1v-1h-1v1zm-7.44 0v48.72h2V2.031h-2zm1 49.72h6.44v-2h-6.44v2zm7.44-1V2.031h-2v48.72h2zm-1-49.72h-6.44v2h6.44v-2zm19.406 49.72v1h1v-1h-1zm-.35-42.07v-1h-1.065l.067 1.063.998-.064zm.14 0l.876-.483-.285-.518h-.591v1zm25.27 42.07l-.854.52.292.48h.562v-1zm8.05 0v1h1v-1h-1zm0-48.72h1v-1h-1v1zm-6.09 0v-1h-1v1h1zm.42 40.88v1h1.082l-.085-1.08-.997.08zm-.07 0l-.887.46.28.54h.607v-1zM466.9 2.031l.853-.524-.293-.477h-.56v1zm-8.54 0v-1h-1v1h1zm0 48.72h-1v1h1v-1zm7.09 0v-19.46h-2v19.46h2zm0-19.46c0-8.806.001-17.105-.352-22.674l-1.996.127c.348 5.49.348 13.712.348 22.546h2zm-1.35-21.61h.14v-2h-.14v2zm-.736-.518c3.024 5.485 18.861 31.553 25.292 42.108l1.708-1.041c-6.449-10.585-22.252-36.597-25.248-42.032l-1.752.965zM489.51 51.75h8.05v-2h-8.05v2zm9.05-1V2.031h-2v48.72h2zm-1-49.72h-6.09v2h6.09v-2zm-7.09 1v19.04h2V2.031h-2zm0 19.04c0 7.887-.071 15.639.423 21.919l1.994-.157c-.486-6.18-.417-13.828-.417-21.762h-2zm1.42 20.84h-.07v2h.07v-2zm.817.539c-2.751-5.292-17.982-29.576-24.954-40.942l-1.705 1.046c7.027 11.455 22.177 35.61 24.885 40.819l1.774-.923zM466.9 1.031h-8.54v2h8.54v-2zm-9.54 1v48.72h2V2.031h-2zm1 49.72h6.09v-2h-6.09v2z" fill="#000"/></svg>