<svg version="1.1" id="Слой_1" xmlns="http://www.w3.org/2000/svg" x="0" y="0" viewBox="0 0 377 193.2" xml:space="preserve"><style>.st0{fill:#fff}</style><path class="st0" d="M.2 80.3H11V63.7l11.2 16.6h13.4l-15-19.8 14.6-18.7H22.7L11.2 58V41.8H.2v38.5zm42.9-38.5h29.3v38.6H61.6V51h-7.8v15.1c0 5.5-.6 14.6-14 14.6-1.5 0-2.8 0-4.5-.6v-9.3c.8.2 1.5.4 2.5.4 4.7 0 5.3-3 5.3-8.5V41.8zm32.3 38.5H87l2.1-6.6h13l2.1 6.6h11.5l-13.6-38.6H89L75.4 80.3zM95.7 51l4.3 14.2h-8.9L95.7 51zm51.6 16.7c-1.9 2.1-5.1 4.2-9.1 4.2-6.2 0-9.8-4.5-9.8-10.4 0-6.2 4-11.2 9.8-11.2 4.2 0 7.2 2.3 9.1 4.5V43.7c-3.2-2.3-7.2-3-10.6-3-10.4 0-19.5 7.6-19.5 20.4 0 12.3 8.3 20.4 19.7 20.4 3.2 0 7-.6 10.4-2.8v-11zm10.9 12.6H169V51h8.5v-9.3h-27.8V51h8.5v29.3zm23.1 0h23.1V71h-12.3v-6.2h11.2v-8.5h-11.2V51h12.3v-9.3h-23.1v38.6zm28.9 0H221V67.7h5.5c11 0 14-7.6 14-12.9s-3-12.9-14-12.9h-16.3v38.4zm10.8-30h3c4.5 0 5.3 2.5 5.3 4.3 0 1.7-.6 4.5-5.3 4.5h-3v-8.8zM.4 153.3h15.1v-40.8h17.2V99.6H.4v53.7zm44-53.7v29.7c0 7.6-.8 11.7-7.4 11.7-1.1 0-2.1-.2-3.2-.6v12.9c2.5.6 4.2.8 6.2.8 18.7 0 19.5-12.7 19.5-20.4v-21.2h10.8v40.8h15.1V99.6h-41zm77 55.2c19.7 0 28.9-14 28.9-28.4S141 98 121.4 98s-28.9 14-28.9 28.4c.1 14.4 9.2 28.4 28.9 28.4zm0-12.8c-7 0-13.4-5.1-13.4-15.5s6.4-15.5 13.4-15.5 13.4 5.1 13.4 15.5-6.4 15.5-13.4 15.5zm36.3 11.3h15.1V132h18.3v21.6h15.1v-54h-15.1v19.3h-18.3V99.6h-15.1v53.7zm52.5 0h16.1l3-9.3h18.3l3 9.3h16.1l-19.1-53.7h-18.3l-19.1 53.7zm28.4-40.8l6 19.8h-12.3l6.3-19.8zm72 23c-2.8 2.8-7.2 5.9-12.7 5.9-8.5 0-13.8-6.4-13.8-14.6 0-8.9 5.5-15.5 13.8-15.5 5.7 0 10 3.2 12.7 6.4v-15.5c-4.5-3-10-4.3-14.7-4.3-14.6 0-27.2 10.4-27.2 28.4 0 17.2 11.5 28.4 27.4 28.4 4.5 0 9.6-.8 14.6-4v-15.2h-.1zm47.3 0c-2.8 2.8-7.2 5.9-12.7 5.9-8.5 0-13.8-6.4-13.8-14.6 0-8.9 5.5-15.5 13.8-15.5 5.7 0 10 3.2 12.7 6.4v-15.5c-4.5-3-10-4.3-14.7-4.3-14.6 0-27.2 10.4-27.2 28.4 0 17.2 11.5 28.4 27.4 28.4 4.5 0 9.6-.8 14.6-4v-15.2z"/><path d="M7 188.5c-1.1 0-2.1-.2-3-.6s-1.5-.9-2.3-1.5c-.6-.6-1.1-1.5-1.3-2.3-.4-.9-.4-1.9-.4-3s.2-2.1.6-3 .8-1.7 1.3-2.5c.6-.8 1.3-1.1 2.1-1.5.9-.4 1.9-.6 2.8-.6.6 0 1.3 0 1.9.2.6.2 1.3.4 1.9.6l-.6 2.1c-.4-.2-.8-.4-1.3-.4-.6-.2-.9-.2-1.5-.2-1.5 0-2.6.4-3.4 1.3s-1.1 2.3-1.1 4c0 .8 0 1.5.2 2.1.2.6.4 1.1.8 1.7.4.4.9.8 1.5 1.1.6.2 1.3.4 2.1.4s1.3 0 1.9-.2c.6-.2.9-.2 1.3-.4l.4 2.1c-.2 0-.4.2-.6.2s-.6.2-.9.2-.8.2-1.1.2H7zm18.1-.4h-2.6V176h-6.4v12.1h-2.5v-14.2h11.5v14.2zm3.6-7.2c0-1.3.2-2.5.6-3.4.4-.9.9-1.7 1.5-2.3s1.3-1.1 2.1-1.3c.8-.4 1.5-.4 2.5-.4 1.9 0 3.4.6 4.3 1.9.9 1.1 1.5 3 1.5 5.5v1h-9.8c.2 1.5.6 2.6 1.3 3.4.8.8 1.9 1.1 3.6 1.1.9 0 1.7 0 2.3-.2.6-.2 1.1-.4 1.3-.4l.4 2.1c-.4.2-.9.4-1.7.6-.8.2-1.7.2-2.6.2-1.3 0-2.3-.2-3.2-.6-.9-.4-1.7-.9-2.3-1.5-.6-.6-.9-1.5-1.3-2.3-.5-1.3-.5-2.2-.5-3.4zm9.9-1.3c0-1.1-.2-2.1-.9-2.8-.6-.8-1.3-1.1-2.5-1.1-.6 0-1.1.2-1.5.4-.4.2-.8.6-1.1.9-.4.4-.6.8-.8 1.3-.2.6-.4.9-.4 1.5h7.2v-.2zm11.5.8c.6.4 1.1.9 1.9 1.5.6.6 1.3 1.3 1.9 2.1s1.1 1.5 1.7 2.3c.6.8.9 1.5 1.3 2.1h-3c-.4-.6-.9-1.3-1.3-1.9-.6-.6-1.1-1.3-1.7-1.9l-1.7-1.7c-.6-.6-1.1-.9-1.7-1.3v6.8h-2.6V174h2.6v6l1.5-1.5 1.7-1.7 1.7-1.7c.6-.6.9-.9 1.1-1.3h3c-.4.4-.9.9-1.3 1.5l-1.7 1.7-1.7 1.7c-.8.7-1.3 1.3-1.7 1.7zm19.7-6.5v2.1H65v12.1h-2.6V176h-4.7v-2.1h12.1zm12.4 7c0-1.7-.4-3-1.3-3.8-.8-.9-1.9-1.3-3.2-1.3h-1.9c-.4 0-.8.2-.9.2v9.1c.4.2.8.6 1.3.8s1.1.4 1.9.4c.8 0 1.3-.2 1.9-.4.6-.2.9-.6 1.3-1.1.4-.4.6-.9.8-1.7.1-.7.1-1.4.1-2.2zm2.7 0c0 1.1-.2 2.1-.4 3-.4.9-.8 1.7-1.3 2.5-.6.6-1.1 1.1-2.1 1.5-.8.4-1.7.6-2.6.6-.8 0-1.5-.2-2.3-.4-.6-.2-1.1-.4-1.3-.6v5.7h-2.6v-18.9c.6-.2 1.3-.4 2.3-.6.9-.2 1.9-.2 3.2-.2 1.1 0 2.1.2 3 .6.9.4 1.7.8 2.3 1.5.6.6 1.1 1.5 1.5 2.3.1.9.3 1.9.3 3zm12.5 5.3h2.8c.6 0 1.1 0 1.5-.2.6 0 .9-.2 1.3-.4s.6-.4.9-.8c.2-.4.4-.8.4-1.1 0-.4-.2-.8-.4-1.1-.2-.4-.4-.6-.8-.8-.4-.2-.8-.4-1.1-.4-.4 0-.9-.2-1.5-.2h-3l-.1 5zm2.6-6.4c.6 0 .9 0 1.3-.2.4 0 .8-.2 1.1-.4.4-.2.6-.4.8-.6.2-.2.2-.6.2-1.1 0-.4-.2-.8-.4-1.1-.2-.2-.6-.4-.9-.6-.4-.2-.8-.2-1.1-.2h-3.7v4h2.8v.2zm0 8.5c-1.1 0-2.1 0-3-.2-.9-.2-1.7-.2-2.1-.4v-13.8c.6-.2 1.3-.2 2.1-.4.9-.2 1.9-.2 3-.2.8 0 1.5 0 2.3.2.8.2 1.3.4 1.9.6.6.4.9.8 1.3 1.3.4.6.6 1.1.6 1.9 0 .8-.2 1.3-.6 1.7-.4.6-.8.9-1.3 1.1.8.2 1.3.8 1.9 1.1.4.6.8 1.3.8 2.3s-.2 1.5-.6 2.1c-.4.6-.8.9-1.3 1.3-.6.4-1.3.6-2.1.8-1 .6-1.9.6-2.9.6zm15.1-7.2h-1.5c-.4 0-.9 0-1.3.2v4.9h3c1.1 0 1.9-.2 2.6-.6.6-.4.9-1.1.9-2.1 0-.4-.2-.9-.4-1.1-.2-.4-.4-.6-.8-.8-.4-.2-.8-.4-1.1-.4-.4-.1-.8-.1-1.4-.1zm-5.1-7.2h2.6v5.5c.4 0 .8-.2 1.3-.2s1.1-.2 1.7-.2c.8 0 1.5 0 2.1.2.8.2 1.3.4 1.7.8.6.4.9.9 1.1 1.5.4.6.4 1.3.4 2.1 0 .9-.2 1.5-.4 2.3-.4.6-.8 1.1-1.3 1.5-.6.4-1.1.8-1.9.8-.8.2-1.5.2-2.5.2s-1.7 0-2.6-.2c-.9-.2-1.7-.2-2.6-.4V174h.4zm16.3 14.2h-2.6v-14.2h2.6v14.2zm10.8.4c-1.1 0-2.1-.2-3-.6s-1.5-.9-2.3-1.5c-.6-.6-1.1-1.5-1.3-2.3-.4-.9-.4-1.9-.4-3s.2-2.1.6-3 .8-1.7 1.3-2.5c.6-.8 1.3-1.1 2.1-1.5.9-.4 1.9-.6 2.8-.6.6 0 1.3 0 1.9.2.6.2 1.3.4 1.9.6l-.6 2.1c-.4-.2-.8-.4-1.3-.4-.6-.2-1.1-.2-1.7-.2-1.5 0-2.5.4-3.2 1.3-.8.9-1.1 2.3-1.1 4 0 .8 0 1.5.2 2.1.2.6.4 1.1.8 1.7.4.4.9.8 1.5 1.1.6.2 1.3.4 2.1.4s1.3 0 1.9-.2c.6-.2.9-.2 1.3-.4l.4 2.1c-.2 0-.4.2-.6.2-.2 0-.6.2-.9.2-.4 0-.8.2-1.1.2h-1.3zm18.7-7.6c0 1.1-.2 2.1-.6 3-.4.9-.8 1.7-1.3 2.5-.6.6-1.3 1.1-2.1 1.5-.8.4-1.7.6-2.6.6-.9 0-1.9-.2-2.6-.6-.8-.4-1.5-.9-2.1-1.5-.6-.6-1.1-1.5-1.3-2.5-.4-.9-.6-1.9-.6-3s.2-2.1.6-3c.4-.9.8-1.7 1.3-2.5.6-.6 1.3-1.1 2.1-1.5.8-.4 1.7-.6 2.6-.6.9 0 1.9.2 2.6.6.8.4 1.5.9 2.1 1.5.6.6 1.1 1.5 1.3 2.5.4.9.6 1.9.6 3zm-2.7 0c0-1.7-.4-2.8-1.1-3.8s-1.7-1.3-3-1.3-2.3.4-3 1.3-1.1 2.3-1.1 3.8c0 1.7.4 2.8 1.1 3.8s1.7 1.3 3 1.3 2.3-.4 3-1.3c.8-.8 1.1-2.1 1.1-3.8zm11.6-.5c.6.4 1.1.9 1.9 1.5.6.6 1.3 1.3 1.9 2.1.6.8 1.1 1.5 1.7 2.3.6.8.9 1.5 1.3 2.1h-3c-.4-.6-.9-1.3-1.3-1.9-.6-.6-1.1-1.3-1.7-1.9l-1.7-1.7c-.6-.6-1.1-.9-1.7-1.3v6.8h-2.6V174h2.6v6l1.5-1.5 1.7-1.7 1.7-1.7c.6-.6.9-.9 1.1-1.3h3c-.4.4-.9.9-1.3 1.5l-1.7 1.7-1.7 1.7c-.8.7-1.4 1.3-1.7 1.7zm21.5-6.5v14.4h-2.5v-11c-.6.8-1.1 1.5-1.9 2.5-.6.9-1.3 1.9-1.9 2.8-.6.9-1.3 1.9-1.9 3-.6.9-1.1 1.9-1.5 2.6h-2.3v-14.4h2.5V184c.6-.8.9-1.7 1.7-2.6.6-.9 1.3-1.9 1.9-2.8s1.3-1.9 1.9-2.6c.6-.9 1.3-1.5 1.9-2.3h2.1v.2zm12.9 14.2c-.2-.4-.4-.9-.8-1.3-.4-.6-.6-.9-.9-1.5-.4-.6-.8-1.1-1.1-1.5-.4-.6-.8-.9-1.1-1.5-.4.4-.8.9-1.1 1.5-.4.6-.8 1.1-1.1 1.5-.4.6-.6.9-.9 1.5-.4.6-.6.9-.8 1.3h-2.6c.6-1.3 1.3-2.5 2.3-3.8.9-1.3 1.7-2.5 2.6-3.8l-4.3-6.6h2.8l3.4 4.9 3.4-4.9h2.6l-4.5 6.6c.9 1.1 1.7 2.5 2.6 3.8.9 1.3 1.7 2.6 2.3 4h-2.6v-.2zm21.9-14.2v2.1h-4.7v12.1h-2.6V176H209v-2.1h12zm1.9 7c0-1.3.2-2.5.6-3.4.4-.9.9-1.7 1.5-2.3.6-.6 1.3-1.1 2.1-1.3.8-.4 1.5-.4 2.5-.4 1.9 0 3.4.6 4.3 1.9.9 1.1 1.5 3 1.5 5.5v1h-9.8c.2 1.5.6 2.6 1.3 3.4.8.8 1.9 1.1 3.6 1.1.9 0 1.7 0 2.3-.2.6-.2 1.1-.4 1.3-.4l.4 2.1c-.4.2-.9.4-1.7.6-.8.2-1.7.2-2.6.2-1.3 0-2.3-.2-3.2-.6s-1.7-.9-2.3-1.5-.9-1.5-1.3-2.3c-.3-1.3-.5-2.2-.5-3.4zm9.8-1.3c0-1.1-.2-2.1-.9-2.8-.6-.8-1.3-1.1-2.5-1.1-.6 0-1.1.2-1.5.4s-.8.6-1.1.9c-.4.4-.6.8-.8 1.3s-.4.9-.4 1.5h7.2v-.2zm15 8.5c-.2-.4-.4-.9-.8-1.3-.4-.6-.6-.9-.9-1.5-.4-.6-.8-1.1-1.1-1.5-.4-.6-.8-.9-1.1-1.5-.4.4-.8.9-1.1 1.5-.4.6-.8 1.1-1.1 1.5-.4.6-.6.9-.9 1.5-.4.6-.6.9-.8 1.3h-2.6c.6-1.3 1.3-2.5 2.3-3.8.9-1.3 1.7-2.5 2.6-3.8l-4.7-6.8h2.8l3.4 4.9 3.4-4.9h2.6l-4.5 6.6c.9 1.1 1.7 2.5 2.6 3.8.9 1.3 1.7 2.6 2.3 4h-2.4zm17.2 0h-2.6v-6.2h-6.6v6.2h-2.6v-14.2h2.6v5.7h6.6v-5.7h2.6v14.2zm17-7.2c0 1.1-.2 2.1-.6 3s-.8 1.7-1.3 2.5c-.6.6-1.3 1.1-2.1 1.5-.8.4-1.7.6-2.6.6-.9 0-1.9-.2-2.6-.6-.8-.4-1.5-.9-2.1-1.5-.6-.6-1.1-1.5-1.3-2.5-.4-.9-.6-1.9-.6-3s.2-2.1.6-3 .8-1.7 1.3-2.5c.6-.6 1.3-1.1 2.1-1.5.8-.4 1.7-.6 2.6-.6.9 0 1.9.2 2.6.6.8.4 1.5.9 2.1 1.5.6.6 1.1 1.5 1.3 2.5.4.9.6 1.9.6 3zm-2.7 0c0-1.7-.4-2.8-1.1-3.8-.8-.9-1.7-1.3-3-1.3s-2.3.4-3 1.3-1.1 2.3-1.1 3.8c0 1.7.4 2.8 1.1 3.8.8.9 1.7 1.3 3 1.3s2.3-.4 3-1.3c.7-.8 1.1-2.1 1.1-3.8zm11.2-4.9v1.9c0 .8 0 1.3-.2 2.1 0 .8-.2 1.3-.4 2.1s-.4 1.3-.6 1.9-.4 1.1-.8 1.7-.8.9-1.1 1.3c-.4.4-.9.8-1.5.9-.6.2-1.3.4-2.1.6l-.4-2.1c.9-.2 1.7-.6 2.1-.9.6-.6.9-1.1 1.3-1.9.2-.6.6-1.3.6-2.1.2-.8.2-1.7.2-2.5 0-.9 0-1.7.2-2.6v-2.5h9.5v14.4h-2.3v-12.1h-4.5v-.2zm24.2 4.9c0 1.1-.2 2.1-.6 3-.4.9-.8 1.7-1.3 2.5-.6.6-1.3 1.1-2.1 1.5-.8.4-1.7.6-2.6.6s-1.9-.2-2.6-.6c-.8-.4-1.5-.9-2.1-1.5-.6-.6-1.1-1.5-1.3-2.5-.4-.9-.6-1.9-.6-3s.2-2.1.6-3c.4-.9.8-1.7 1.3-2.5.6-.6 1.3-1.1 2.1-1.5s1.7-.6 2.6-.6 1.9.2 2.6.6c.8.4 1.5.9 2.1 1.5.6.6 1.1 1.5 1.3 2.5.4.9.6 1.9.6 3zm-2.7 0c0-1.7-.4-2.8-1.1-3.8s-1.7-1.3-3-1.3-2.3.4-3 1.3c-.8.9-1.1 2.3-1.1 3.8 0 1.7.4 2.8 1.1 3.8s1.7 1.3 3 1.3 2.3-.4 3-1.3c.8-.8 1.1-2.1 1.1-3.8zm15.2-4.9h-6.2v12.1h-2.6v-14.2h8.9v2.1h-.1zm14.5-2.1v14.4h-2.5v-11c-.6.8-1.1 1.5-1.9 2.5-.6.9-1.3 1.9-1.9 2.8-.6.9-1.3 1.9-1.9 3-.6.9-1.1 1.9-1.5 2.6h-2.3v-14.4h2.5V184c.6-.8.9-1.7 1.7-2.6.6-.9 1.3-1.9 1.9-2.8.6-.9 1.3-1.9 1.9-2.6.6-.9 1.3-1.5 1.9-2.3h2.1v.2zm16.5 0v14.4h-2.5v-11c-.6.8-1.1 1.5-1.9 2.5-.6.9-1.3 1.9-1.9 2.8-.6.9-1.3 1.9-1.9 3-.6.9-1.1 1.9-1.5 2.6H346v-14.4h2.5V184c.6-.8.9-1.7 1.7-2.6.6-.9 1.3-1.9 1.9-2.8s1.3-1.9 1.9-2.6c.6-.9 1.3-1.5 1.9-2.3h2.3v.2zm-6.1-2.4c-1.1 0-2.1-.4-2.8-.9-.8-.6-1.1-1.3-1.3-2.5l1.9-.6c.2.6.4 1.1.8 1.5s.8.6 1.5.6c.6 0 1.1-.2 1.5-.6.4-.4.6-.8.8-1.5l1.9.6c-.2 1.1-.6 1.9-1.3 2.5-.9.7-1.9.9-3 .9z" fill="#60687f"/><path d="M343.3 0c6.6 4.9 12.5 11 17 17.8l-23.8 15.5c-2.6-4.2-6-7.6-9.8-10.2L343.3 0z" fill="#e5007e"/><path class="st0" d="M275.1 67.9c-.4-.8-.9-1.5-1.7-2.5-.6-.9-1.3-1.7-2.1-2.6-.8-.9-1.5-1.7-2.3-2.5-.8-.8-1.5-1.5-2.5-2.1v9.6h-5.1V45h5.1v8.5c1.3-1.3 2.6-2.8 4-4.3 1.3-1.5 2.6-3 3.8-4.2h6c-1.5 1.9-3.2 3.6-4.7 5.3-1.5 1.7-3.2 3.4-4.9 5.1 1.9 1.5 3.6 3.4 5.3 5.5 1.7 2.1 3.4 4.3 4.9 7h-5.8zm5.4-12.1v4.5h9.6v-4.5h-9.6zm22.4 5.5c0-.6-.2-1.1-.4-1.7-.4-.6-.8-.9-1.5-1.3-.8-.4-1.7-.6-2.8-.8-1.1-.2-2.6-.2-4.5-.2.2-2.1.4-4.2.6-6.2.2-2.1.2-4.2.4-5.9H307v4h-8.1c0 .8 0 1.5-.2 2.3 0 .8-.2 1.3-.2 1.9 3.2.2 5.7.9 7.2 2.3 1.5 1.3 2.3 3 2.3 5.3 0 1.1-.2 2.1-.6 3-.4.9-.9 1.7-1.7 2.3-.8.6-1.7 1.1-2.8 1.5s-2.5.6-4 .6c-.6 0-1.1 0-1.9-.2-.6 0-1.3-.2-1.9-.4-.6-.2-1.1-.2-1.7-.4-.6-.2-.9-.2-1.1-.4l.9-4c.6.2 1.3.6 2.3.8.9.2 1.9.4 3.2.4 1.5 0 2.6-.4 3.2-.9.6-.5 1-1.3 1-2zm11.5 6.6c.2-1.5.4-3.2.8-5.1.4-1.7.9-3.4 1.5-5.1.6-1.7 1.3-3.2 2.1-4.7s1.5-2.8 2.3-3.8h-10V45h16.1v3.6c-.8.8-1.5 1.9-2.3 3.2-.8 1.3-1.7 2.8-2.5 4.7-.8 1.7-1.5 3.6-1.9 5.5-.6 1.9-.9 4-.9 5.9h-5.2zm45.9-50.1c5.1 7.8 10.4 20.6 10.8 31.6h-28.7c-.8-5.5-2.6-11.2-5.9-16.1l23.8-15.5z"/><path d="M365.2 14.6c13 19.8 15.3 45.2 6.4 66.9l-31.8-12.9c2.5-6 3.4-12.7 2.5-19.3H371c-.4-10.8-5.5-23.4-10.4-31.2l-.2-.4 4.8-3.1z" fill="#aec90b"/></svg>