<svg width="99" height="99" fill="none" xmlns="http://www.w3.org/2000/svg"><g clip-path="url(#clip0)" fill="#222328"><path d="M88.56 4.81H24.543c-5.555 0-10.075 4.477-10.075 9.963l-.413 56.37H1.562c-.886 0-1.562.783-1.562 1.669v7.758c0 7.262 5.812 13.201 12.826 13.527v.093h53.909v-.105c.4.017.643.105.919.105h.038c7.48-.044 13.511-6.141 13.472-13.622V31.263h16.274c.886 0 1.562-.802 1.562-1.686V15.343C99.01 9.557 94.345 4.85 88.56 4.81zM13.527 90.984h-.01c-5.704 0-10.31-4.714-10.31-10.416V74.35h50.902v6.192a13.57 13.57 0 003.961 9.628c.271.273.555.413.844.814H13.527zm64.43-10.417c0 5.703-4.562 10.417-10.267 10.417h-.033c-5.733-.042-10.354-4.708-10.341-10.442v-7.73a1.66 1.66 0 00-1.604-1.668h-38.45l.412-56.36c0-3.728 3.081-6.768 6.87-6.768H80.99c-1.827 2.004-3.034 4.54-3.034 7.37v65.18zM95.794 15.37v12.685h-14.63V15.383c0-4.012 3.338-7.366 7.35-7.366h.044a7.308 7.308 0 017.235 7.343v.012z"/><path d="M37.647 44.272l8.266 5.652c.54.371 1.252.371 1.792 0l8.24-5.65c2.863-1.953 4.978-6.037 4.978-9.499V23.341a1.567 1.567 0 00-.855-1.44l-12.586-6.19c-.441-.22-.96-.22-1.4 0l-12.563 6.173a1.565 1.565 0 00-.853 1.44v11.451c0 3.462 2.119 7.546 4.98 9.497zm-1.775-19.948l10.922-5.389 10.922 5.404v10.436c0 2.415-1.583 5.487-3.58 6.848l-7.36 5.035-7.333-5.034c-1.996-1.363-3.57-4.434-3.57-6.849v-10.45z"/><path d="M44.083 37.195a1.6 1.6 0 001.135.481h.004a1.605 1.605 0 001.133-.474l6.378-6.38a1.604 1.604 0 10-2.267-2.27l-5.239 5.238-2.094-2.114a1.604 1.604 0 10-2.279 2.258l3.229 3.261zM66.735 54.51H28.258a1.603 1.603 0 000 3.207h38.477a1.603 1.603 0 000-3.207zm0 7.415H28.258a1.603 1.603 0 000 3.206h38.477a1.603 1.603 0 000-3.206z"/></g><defs><clipPath id="clip0"><path fill="#fff" d="M0 0h99v99H0z"/></clipPath></defs></svg>