<svg width="103" height="103" fill="none" xmlns="http://www.w3.org/2000/svg"><g clip-path="url(#clip0)"><path d="M101.491 73.534c.834 0 1.509-.675 1.509-1.509V59.832c0-.833-.675-1.509-1.509-1.509h-1.764a1.509 1.509 0 100 3.018h.255v9.175H80.646v-9.175h12.04a1.509 1.509 0 100-3.018h-.863v-6.62c0-.833-.675-1.509-1.508-1.509H53.008v-5.518H68.57c.834 0 1.509-.675 1.509-1.508v-8.942c0-5.314-4.323-9.637-9.637-9.637h-1.12a11.643 11.643 0 003.848-8.652c0-6.435-5.235-11.67-11.67-11.67-6.434 0-11.67 5.235-11.67 11.67 0 3.428 1.487 6.515 3.848 8.652h-1.12c-5.313 0-9.637 4.323-9.637 9.637v8.942c0 .833.676 1.508 1.51 1.508h15.56v5.518H12.686a1.51 1.51 0 00-1.51 1.509v6.62h-.862a1.509 1.509 0 100 3.018h12.04v9.175H3.018v-9.175h.255a1.509 1.509 0 100-3.018H1.51A1.51 1.51 0 000 59.833v12.192c0 .834.675 1.509 1.509 1.509h9.668v9.988H1.509C.675 83.522 0 84.197 0 85.03v12.193c0 .834.675 1.51 1.509 1.51h22.354c.833 0 1.508-.676 1.508-1.51V85.03c0-.833-.675-1.508-1.508-1.508h-9.669v-9.988h9.669c.834 0 1.509-.675 1.509-1.509V59.832c0-.833-.675-1.509-1.509-1.509h-9.668v-5.111H49.99v5.11h-9.668a1.51 1.51 0 00-1.509 1.51v12.192c0 .834.676 1.51 1.51 1.51h9.667v9.988h-9.668c-.834 0-1.509.676-1.509 1.509v12.193c0 .833.675 1.509 1.509 1.509h7.657a1.509 1.509 0 100-3.018h-6.148V86.54h19.336v9.175H55.02a1.509 1.509 0 100 3.018h7.657c.834 0 1.509-.676 1.509-1.509V85.031c0-.833-.675-1.509-1.509-1.509H53.01v-9.989h9.668c.833 0 1.509-.675 1.509-1.509V59.831c0-.833-.676-1.508-1.51-1.508H53.01v-5.111h35.796v5.111h-9.668a1.51 1.51 0 00-1.509 1.51v12.192c0 .834.675 1.509 1.509 1.509h9.669v9.988h-9.669c-.833 0-1.508.675-1.508 1.508v12.193c0 .834.675 1.51 1.508 1.51h22.354a1.51 1.51 0 001.509-1.51V85.03c0-.833-.675-1.508-1.509-1.508h-9.668v-9.988h9.668zM42.848 15.937c0-4.77 3.881-8.652 8.652-8.652 4.77 0 8.652 3.881 8.652 8.652 0 4.77-3.881 8.652-8.652 8.652-4.77 0-8.652-3.881-8.652-8.652zm-6.91 18.29c0-3.65 2.97-6.62 6.62-6.62h17.883c3.65 0 6.62 2.97 6.62 6.62v7.432h-5.517v-2.556a1.509 1.509 0 10-3.018 0v2.556H44.473v-2.556a1.509 1.509 0 10-3.017 0v2.556h-5.518v-7.433zM22.354 95.714H3.018v-9.176h19.336v9.176zm38.814-25.2H41.832V61.34h19.336v9.176zm38.814 25.2H80.646v-9.176h19.336v9.176z" fill="#222328"/></g><defs><clipPath id="clip0"><path fill="#fff" d="M0 0h103v103H0z"/></clipPath></defs></svg>