<svg xmlns="http://www.w3.org/2000/svg" xmlns:xlink="http://www.w3.org/1999/xlink" height="595.276" width="841.89"><defs><linearGradient id="a"><stop stop-color="#003357" offset="0%"/><stop stop-color="#6ea8cf" offset="100%"/></linearGradient><linearGradient gradientUnits="objectBoundingBox" gradientTransform="rotate(177 .5 .5)" y2="1" x2="0" y1="0" x1="0" id="b" xlink:href="#a"/></defs><path d="M442.968 437.103c97.943 0 177.833-79.88 177.833-177.835 0-97.944-79.89-177.828-177.833-177.828-97.944 0-177.83 79.884-177.83 177.828 0 97.955 79.886 177.835 177.83 177.835z" fill="url(#b)"/><defs><linearGradient id="c"><stop stop-color="#005288" offset="0%"/><stop stop-color="#fff" offset="12%"/><stop stop-color="#d6d6d6" offset="0%"/><stop stop-color="#fff" offset="83887360%"/></linearGradient></defs><path d="M358.48 110.35c-1.883 0 10.626-.4 12.012-.26 2.43.238 7.733 2.628 6.24 4.093-1.506 1.454-6.229.608-6.12 3.218.11 2.6 4.83 8.161 4.593 10.609-.249 2.44-.598 2.293 1.364 3.607 1.962 1.307 9.486-1.263 6.826-2.897-2.683-1.635-4.335-3.658-4.464-7.135-.141-3.474 4.712-7.69 4.712-7.69l4.83-.367s-6.594-8.968-1.335-7.445c5.263 1.516 5.81 2.203 5.083 5.72-.727 3.507-2.631 7.77-.658 9.086 1.961 1.314 1.454 6.207 5.23 5.357 3.787-.864 6.505-2.188 8.489-4.72 1.978-2.512 3.274-4.485 7.025-6.198 3.744-1.732 9.064-3.168 12.47-4.184 3.434-1.014 3.996-4.182 3.996-4.182l7.228-.998s8.683-4.183 6.926-4.982c-1.77-.796-2.721 1.336-7.66-.903-4.953-2.232-8.524-4.706-12.492-4.364-3.989.34-11.764.666-11.764.666s6.61-3.405 9.878-4.086c3.283-.647 10.54-.774 12.953-1.392 2.404-.627 7.559-1.704 7.559-1.704s1.807 1.653 5.962 1.833c4.183.18 4.305-1.047 5.946.987 1.635 2.012 6.97 5.28 5.868 7.768-1.13 2.48-.187 4.187-1.692 5.648-1.498 1.447-8.46.868-11.008 1.843-2.563.98-7.654 3.81-7.654 3.81l8.31-.52-.966 2.132s3.334 4.91 5.098 5.716c1.764.8 4.103-5.4 8.669-4.2 4.55 1.213 5.01 3.974 7.344 1.623 2.346-2.372 4.528-8.2 6.997-7.106 2.463 1.137 9.785 1.875 9.785 1.875s2.182-5.85 4.946-6.307c2.758-.467 9.936-2.322 9.936-2.322l3.362-2.757 7.639.028 7.351 1.613 15.263 5.321s-23.363-16.466-52.14-20.93c-27.618-4.309-53.545-4.503-80.834 3.953-10.202 3.172-19.785 7.196-29.27 12.722-9.465 5.53-11.833 8.42-11.833 8.42zm115.947 46.898c.337-9.075 14.557-22.355 22.664-23.748 8.122-1.393-1.015-5.587 3.046-12.593 4.068-6.983 9.468-2.08 15.911-2.08 6.43 0 19.282 3.495 21.312 11.872 2.023 8.38.993 22.01 3.038 32.5 2.03 10.468-7.445 10.829-24.695 17.114-17.258 6.285-26.402-6.984-29.778-10.134-3.384-3.146-11.837-3.844-11.498-12.93zm-125.422 244.93c-1.963 8.049 12.851 14.345 18.618 17.337 8.071 4.183 16.567 8.524 23.122 10.738 6.538 2.211 14.465 2.708 16.421 2.837 1.937.14.454-1.501.065-2.52-.374-1.026 3.557.339 8.906 1.156 5.37.817 16.812.996 17.1.378.273-.627.993-1.782 2.908-2.527 1.93-.72.814-.58-.1-1.635-.908-1.059 1.943-1.037 3.203-2.92 1.267-1.865-.389-1.234.166-2.689.533-1.465 2.002-.258 4.471-1.486 2.448-1.253 2.83-1.393 4.284-2.013 1.44-.626 3.607-.277 4.99-.518 1.375-.216 2.613-.616 4.564-.486 1.944.14 6.523-2.26 7.667-2.491 1.167-.21 9.584-1.663 14.904-3.1 5.321-1.443 16.517-9.403 20.095-12.678 3.6-3.28 2.304-3.23-1.152-3.082-3.47.14-8.539 1.048-11.462 1.426-2.923.388-4.493.529-7.762-1.167-3.275-1.691-.835-1.433-.913-5.08-.059-3.657-2.593-4.172-4.242-6.634-1.663-2.44-1.886-1.483-1.367-3.586.526-2.112.518-4.463.259-6.277-.238-1.822.36-4.543 1.814-8.784 1.476-4.244-1.684-2.891-2.39-5.562-.72-2.668.137-2.707.827-5.17.677-2.47-.676-3.715-.323-7.819.352-4.103.95-2.13 2.973-3.787 1.987-1.652 1.736.36 2.909 3.45 1.152 3.088 1.087 5.18 1.094 9.881.029 4.701.929 1.692 1.282 4.211.382 2.524-.08 4.007-.007 8.1.08 4.086 1.418 2.553 1.591 4.982.18 2.43.072 1.732 1.05 6.657.995 4.928-1.345 3.017-2.209 4.978-.872 1.956-.843 4.723-1.052 6.138-.208 1.393 3.399.457 7.777-.755 4.348-1.239 5.846-.771 10.583-1.409 4.744-.636 5.782-.586 9.857-.226 4.096.349 2.757-2.39 5.227-3.618 2.469-1.224 3.167-.907 4.852-1.843 1.707-.954 3.161-1.353 4.73-2.988 1.577-1.634 4.867-3.776 8.201-4.622 3.355-.818 4.803-1.663 6.43-3.917 1.641-2.24.785-4.132.18-6.523-.634-2.423-4.198-1.048-3.81-3.867.418-2.79-1.353-1.673-2.599-.316-1.26 1.354-5.608 2.588-9.028 3.586-3.427 1.025-.828-2.909-.374-4.853.438-1.944-1.195-1.602-3.219 1.962-2.016 3.567-1.216-2.042-1.483-4.72-.302-2.692-.62-4.334-.85-7.631-.209-3.287.108-3.578 3.917-3.986 3.788-.417 2.988 3.266 3.917 6.883.936 3.618 3.953 3.496 5.717 4.285 1.771.806 2.038-.79 3.722-2.164 1.684-1.365 2.283.619 3.78 3.427 1.512 2.8 3.347 1.516 5.436 1.605 2.08.09 6.228-.169 8.013-1.306 1.764-1.105 4.63-.875 7.46-1.512 2.836-.648.38 1.026 1.317 2.729.943 1.695 2.858 2.141 1.18 3.528-1.663 1.375 1.009 3.427 2.246 4.003 1.246.558 4.19-3.665 4.587-4.55.389-.9 1.116 1.781.086 4.071-1.036 2.322-4.708 6.216-4.787 8.308-.058 2.092-3.125 9.885-3.053 12.057.108 2.17 2.268-1.754 5.328-2.93 3.088-1.174 4.47-3.745 6.112-7.47 1.663-3.738 3.42-5.282 5.516-7.103 2.08-1.825 3.182-6.667 6.422-10.113 3.24-3.438 5.133-5.777 5.701-7.034.533-1.235 6.545-11.325 7.258-12.92.706-1.584 2.513-1.843 2.513-1.843s1.397 2.12 3.722-2.153c2.348-4.284 7.754-21.358 11.26-31.797 3.507-10.462 3.838-21.262 4.782-29.988.95-8.725.157-16.267.173-20.641.064-15.54-3.428-28.37-6.128-42.507-1.476-7.841-5.43-18.004-9.424-25.038-.663-1.134-2.485-3.456-4.075-5.558-1.598-2.11-3.356-6.951-4.954-8.845-1.591-1.893-.288-2.89-.893-4.126-.62-1.256-4.104-6.224-4.457-7.333-.345-1.116-6.112-8.834-7.451-9.86-1.333-1.036-3.946-5.619-5.062-6.447-1.116-.824-.655.767-1.879.637-1.21-.108-.022.53.655 2.333.684 1.804.08.767.18 3.596.137 2.819-.597.897-.547 2.192.057 1.304-.957 1.692.137 3.478 1.116 1.771 1.634.846 1.764 1.742.137.915 1.166 3.309 1.094 3.906-.035.616 1.289 2.17 2.275 3.258.994 1.084-.338.288-2.203-.04-1.872-.31.59 1.761-.202 1.405-.791-.36-1.094 2.908-1.972 2.29a13.15 13.15 0 00-1.872-1.038s.122 3.032-.734 3.29c-.857.249.547 1.833 1.216 3.197.656 1.365-.727 2.12-1.274 1.883-.511-.237-.54-3.02-1.18-4.91-.634-1.883-3.169-5.252-5.113-6.127-1.922-.879-.676.119-1.52 1.314-.87 1.216-.95-1.177-2.555-1.894-1.584-.716-.842.26-.165 2.052.676 1.814 1.036 2.174 1.641 4.363.597 2.192-.424.98-1.051 1.656-.619.677-.065 2.75-.763 4.78-.684 2.013.504 1.704 2.167 4.166 1.649 2.451.756 1.613-.303 3.268-1.043 1.653.274 2.24 1.678 3.834 1.404 1.606 1.663 3.039 1.663 3.039s-2.131-.958-4.406-1.555c-2.268-.605-1.317 1.533-.1 5.94 1.223 4.37 3.283 5.936 6.882 11.623 3.607 5.689-2.714 5.598-2.959 3.788-.244-1.826-.036-2.78-1.713-5.67-1.67-2.898-2.57-8.01-3.413-9.443-.835-1.454-2.988-5.18-5.32-5.18-2.34.007-1.11 2.927 2.419 10.26 3.498 7.344 2.613 4.593-.627 1.853-3.24-2.739-2.851 2.121-6.178 1.473-3.319-.637-5.118 3.877-5.118 3.877s-.123-3.038-4.284-.868c-4.133 2.171-3.766 3.197-3.766 3.197s-.777-4.403-2.678-6.325c-1.908-1.922-.13 5.48-1 7.434-.872 1.962-2.168 2.012-4.156 4.104-2 2.07-6.652-1.746-6.652-1.746s-2.901-3.017-3.665-6.984c-.777-3.963 4.68 1.894 10.836 2.783 6.2.864.036-3.838-1.72-6.549-1.772-2.706-3.082-3.095-6.128-5.756-3.06-2.65-1.865-2.98-4.571-5.907-2.722-2.93-3.32-2.56-6.754-1.973-3.441.57-4.751-2.163-9.813-.817-5.061 1.346-6.56 2.79-8.431 3.658-1.858.856-4.71 3.416-7.682 2.926-2.952-.496-5.515.49-9.936-1.95-4.428-2.423-1.116 2.49-3.758 5.997-2.62 3.506-3.52 2.678-4.226 4.262-.727 1.595.33 4.007 3.808 6.217 3.456 2.192 3.845-1.037 4.968-1.177 1.116-.137.223.957-1.051 3.787-1.282 2.84.856 4.233-1.606 7.383-2.47 3.147-.56.807-1.368 2.577-.806 1.775.67 3.72 2.808 3.201 2.153-.53.281-1.584 5.63-2.142 5.35-.58 2.247-2.631 6.704-5.519 4.456-2.869 5.932-1.375 5.968-4.334.065-2.97-.569-5.37.158-6.965.713-1.602 5.263-.397 6.538-.886 1.275-.486 4.126-3.038 6.386-2.88 2.254.162.806 2.92-.784 4.125-1.599 1.195-4.558 1.145-6.286 3.129-1.735 1.99-.958 2.13-1.39 4.064-.439 1.944-.324.717 1.887 3.845 2.218 3.128 3.902 2.181 6.875 3.117 2.989.907 3.615 1.408 2.053 3.47-1.549 2.07-4.155-2.084-5.314-2.822-1.152-.727-4.133.259-6.365.958-2.21.698.526 6.037.778 3.578.238-2.44-6.653 2.538-8.122 4.87-1.483 2.323-6.63 3.406-9.107 2.29-2.455-1.116-1.41-.637-7.336-1.613-5.933-.975-4.126-3.128-4.644-7.65-.526-4.503 3.614-4.334 4.903-7.174 1.274-2.83-.85-3.783-4.738-5.558-3.895-1.742-4.587 6.476-8.625 9.78-4.01 3.298-4.789 1.24-7.956-.197-3.19-1.433-9.23 3.506-9.23 3.506s-3.716 2.61-9.36.05c-5.652-2.548-3.578-2.458-6.3-5.846-2.75-3.37-6.703 1.674-5.385 4.42 1.332 2.733-2.283 3.23-.778 10.304 1.512 7.091-5.687 5.119-8.697 3.326-3.038-1.793-4.665-3.816-6.364-6.703-1.65-2.901-2.254-4.435-7.036-7.023-4.781-2.593-6.178 1.472-9.972 6.156-3.798 4.69-6.048 4.95-5.32 9.982.727 5.018 1.864 7.243 9.784 14.223 7.898 6.995 3.305.22 9.003-.198 5.708-.4 6.298-2.689 10.538-.777 4.249 1.933 5.674-1.275 9.13-1.422 3.463-.14 1.987 2.181 7.257 3.704 5.263 1.523 5.155-1.087 6.746 3.895 1.599 5 1.599 5 2.744 11.916 1.151 6.933 2.62 4.6 4.6 10.62 1.98 6.015-5.04 3.685-5.04 3.685s-2.887-2.141-7.43-3.337c-4.557-1.227 1.872 3.395 6.97 9.115 5.09 5.717.619-1.415 2.627-3.07 2.024-1.652 1.628-2.69 3.104-5.011 1.462-2.319 2.944.05 6.292 1.137 3.341 1.088-.389-4.863-.389-4.863s-3.801-8.558-4.154-12.55c-.324-3.996.03-7.66 5.054-3.697 5.012 3.986.627 2.412 2.37 7.052 1.756 4.634 1.713 3.748 3.138 9.108 1.447 5.339-.907 2.988-2.678 6.038-1.793 3.027.677 4.143.597 6.234-.093 2.113-1.483 6.167.267 10.8 1.735 4.64.511-.202 5.141-1.076 4.644-.897 3.398-1.894 3.24-6.236-.202-4.356-.835-2.93 1.331-4.942 2.182-2.001 1.938.446 7.236 2.847 5.306 2.394-1.627 2.672-.67 9.087.958 6.397-2.397.619-2.181 5.839.209 5.22 4.975 3.088 6.898 3.545 1.937.44 3.65 4.205 6.911 3.557 3.269-.666 6.675 2.153 8.474 3.816 1.808 1.674 1.779.806-.136 5.069-1.901 4.254-7.035 6.21-11.527 10.572-4.5 4.382-3.377-1.943-7.46-4.204-4.074-2.271-8.877-1.037-11.03-2.851-2.159-1.832-6.285-4.979-9.842-7.441-3.578-2.47-2.93-3.896-8.236-6.285-5.292-2.391-2.253 4.103-6.336 5.67-4.104 1.55-3.499-4.566-6.242-7.942-2.736-3.366-4.86-4.324-3.96-8.2.864-3.864-3.607-3.327-5.249-5.35-1.655-2.03-4.168-4.014-6.069-8.298-1.9-4.273 5.853-.767 7.358-2.22 1.505-1.456 2.139-2.87 2.902-5.52.756-2.65-.893-.839-5.148-2.75-4.233-1.912-1.318-2.728-4.738-5.558-3.405-2.82-7.955-4.025-10.338-7.233-2.389-3.207-7.043-2.321-10.838-2.34-3.826-.01-4.989-3.11-3.884-5.59 1.105-2.49-4.543-5.04-9.943-10.04-5.41-5.011-7.084.637-10.81 2.35-3.755 1.732-3.406 1.89-8.817 5.43-5.389 3.534-6.983-1.466-9.064-1.545-2.08-.09-4.87-.497-10.32 2.17-5.43 2.672-9.663.739-9.843 4.944-.18 4.193-5.299 6.133-11.437 8.488-6.145 2.35-4.734 2.988-9.007 8.737-4.273 5.745 2.401 7.908 2.401 7.908s-.237 19.537 4.036 30.863c4.294 11.329 4.385 5.388 8.067 10.471 3.68 5.07 4.914 9.911 4.914 9.911s14.234.45 20.022 6.477c5.79 6.047 5.7 11.972 5.7 11.972s4.622 2.942 2.152 10.361c-2.47 7.423-3.697 2.6-3.884 6.786-.17 4.183-.519 12.57-.252 19.526.291 6.952-5.288.615-7.261 8.665zm85.657-192.328s.094.021 1.404-.022c1.281-.057.857-.04.612-1.63-.245-1.606 1.347.277 2.592.097 1.26-.18 2.563-.756 3.686-1.85 1.13-1.088 1.346-2.052.785-2.93-.555-.897-.576-1.337.72-2.132 1.325-.777 1.325-.58.526-2.091-.785-1.538.273-.85.38-1.556.101-.687 1.11-2.47 1.945-3.366.814-.917 3.074-.298 6.703-1.025 3.585-.71 2.383 1.72 1.721 3.236-.662 1.494-1.937 2.203-4.119 2.83-2.174.597-1 1.234-.727 2.329.274 1.069-.05 1.994-1.281 3.567-1.231 1.566-1.051 2.61-1.959 5.08-.885 2.472-1.187 2.652-2.836 4.453-1.656 1.803 1.238 1.735 2.052 2.523.806.796.208 2.35-1.26 2.837-1.505.5-2.138.968-2.283 2.49-.158 1.527-4.139-.924-6.033-2.62-1.886-1.703-3.067-2.131-3.715-3.056-.626-.936-1.628.547-2.564.007-.914-.515-2.894-2.48-3.088-3.722-.18-1.257 1.656.097 3.362.338 1.692.216 3.377.238 3.377.238s-.62-1.973-1.26-3.118c-.648-1.144.13-1.227 1.26-.907zm-3.06-3.236c-2.642-1.206-5.328-1.358-5.314-2.84.022-1.476-1.26-3.338 1.131-3.964 2.42-.62 1.281-2.83 2.103-3.737.835-.907 3.045-2.044 4.29-1.048 1.246.998-.467 1.06 2.125 1.397 2.635.317 4.464-1.414 5.745.458 1.296 1.854 3.499 3.067.885 4.662-2.62 1.573-5.536.06-5.745 1.454-.331 2.322-2.311 4.921-5.22 3.618zm116.83-23.123s.455 2.319-.676 4.8c-1.094 2.49.468 7.034 1.728 10.381 1.267 3.348.994 3.01.238 3.748-.75.716-3.377-2.394-4.536-5.044-1.145-2.65.022-3.833.065-4.881.05-1.055-.23-5.648 1.043-8.485 1.268-2.84 1.743-3.906 3.083-5.004 1.339-1.094 2.052-.784 3.664.807 1.634 1.584-4.608 3.679-4.608 3.679zm-81.803-31.78c-1.469-.02-10.21.08-12.117 1.991-1.923 1.905-9.691 2.65-10.807 2.79-1.123.141-9.115 1.415-13.053 2.632-3.945 1.213-9.957-.022-12.86-1.116-2.915-1.098-1.554-3.676-7.17-5.8-5.621-2.113-19.556-6.065-22.796-6.904-3.236-.817-5.328 1.019-3.884-1.743 1.454-2.768 1.882-2.35 2.17-3.924.292-1.572-2.48-1.554 1.077-3.347 3.567-1.815 5.28-2.311 7.052-3.427 1.775-1.116 7.145-3.168 9.965-1.905 2.838 1.286 4.76 2.164 4.76 2.164s4.341 4.086 6.12 3.405c1.8-.694 5.673-1.274 5.508-2.847-.152-1.555-3.29-2.124.964-2.131 4.227 0 7.186.057 10.57.097 3.377.022 7.553.637 8.107-.605.554-1.238.31-.698 1.109-2.484.806-1.771 2.656-4.979 4.363-5.497 1.713-.496 4.363-1.217 4.852.061.49 1.293-.13 6.973 2.26 8.266 2.384 1.306 3.032.32 5.012 2.051 1.966 1.757 1.166 3.09 2.757 4.245 1.614 1.156 7.294 2.232 6.747 3.906-.519 1.674 2.721 4.842 5.147 5.09 2.441.248 5.854 1.149 2.434 2.164-3.427 1.015-8.849-.587-7.574 1.274 1.296 1.861 3.34 2.988 1.051 2.39-2.26-.597-2.246-.158-1.764-.795z" fill="url(#c)"/><path d="M459.436 148.493c.176.652-144.591 3.772-192.093 86.268m204.291-59.758S340.66 269.338 288.42 349.082" fill="none" stroke="#fff" stroke-width="2"/><path d="M609.657 321.078c-2.76 5.361-5.857 10.555-9.586 15.26-41.271 53.931-135.476 50.835-210.372-6.661-74.884-57.34-102.326-147.666-61.077-201.425 3.894-5.19 8.457-9.918 13.486-14.15" fill="none" stroke="#fff" stroke-width="2"/><path d="M574.804 377.707c-42.822 54.742-139.389 51.295-216.011-7.52-70.919-54.397-101.462-138.228-71.245-195.08" fill="none" stroke="#fff" stroke-width="2"/><path d="M507.916 424.73c-46.37 22.135-112.772 9.269-166.655-31.909-51.103-39.222-80.721-96.335-75.357-145.5" fill="none" stroke="#fff" stroke-width="2"/><path d="M419.939 84.4s60.625 20.217 81.748 78.32c20.966 58.248 4.737 201.613-41.015 274.323m34.235-245.777s-33.998 156.11-110.429 234.146m140.179-233.501s43.885 81.467 2.603 220.333" fill="none" stroke="#fff" stroke-width="2"/><path d="M518.465 132.875c19.198 14.808 26.35 37.892 15.778 51.712-10.733 13.824-34.793 13.004-54.137-1.611-19.197-14.812-26.357-38.056-15.777-51.898 10.564-13.799 34.785-12.982 54.136 1.797z" fill="none" stroke="#fff" stroke-width="2"/><path d="M531.319 122.37c38.052 29.267 52.022 74.957 31.06 102.276-20.823 27.32-68.631 25.847-106.844-3.408-38.037-29.117-51.693-74.96-31.045-102.116 20.962-27.32 68.762-25.858 106.829 3.248z" fill="none" stroke="#fff" stroke-width="2"/><path d="M525.423 101.46c-7.995 24.038-15.553 42.835-27.155 58.035-11.624 15.038-169.188 240.425-175.23 231.44m-35.401-216.912C436.628 38.077 635.56 224.01 583.47 367.793m-83.675-209.942c30.234-9.363 65.153-20.696 105.009 27.147M269.22 293.994s64.592-108.31 230.575-136.143m26.006-19.247s19.782-10.728 41.797-7.43m-28.636 37.636s67.927 26.016 79.419 116.91" fill="none" stroke="#fff" stroke-width="2"/><path d="M544.008 123.309c58.533 44.866 79.83 115.284 47.807 157.4-32.197 41.96-105.866 39.7-164.385-5.206-58.545-44.88-79.843-115.44-47.652-157.4 32.042-41.952 105.53-39.678 164.23 5.206z" fill="none" stroke="#fff" stroke-width="2"/><path d="M456.774 82.339c97.913 6.96 171.346 92.055 163.73 189.973-7.616 97.896-93.122 171.767-191.02 164.8-97.751-6.798-171.017-91.91-163.578-189.807 7.615-97.903 93.121-171.764 190.868-164.966zm42.18 41.368s-5.407-30.621-23.89-39.023m-7.331 42.825s-45.389-36.036-116.462-20.03" fill="none" stroke="#fff" stroke-width="2"/><path d="M375.864 90.926c6.347-.817 11.863 1.473 12.369 5.205.474 3.744-4.247 7.324-10.743 8.112-6.336.838-11.877-1.451-12.359-5.184-.484-3.733 4.386-7.324 10.733-8.133z" fill="#102a83" fill-rule="evenodd" stroke="#1b1918" stroke-width="6"/><path d="M374.716 73.372l14.334-6.183 10.38 6.344m30.732 19.19l18.71 11.702-14.474 7.648m-34.289 18.542l-25.547 13.317-18.187-12.993m-33.193-23.911l-9.606-6.992 22.781-10.076" fill="none" stroke="#3c3b3b" stroke-width="6"/><path d="M395.854 129.265c6.343-.828 11.874 1.454 12.359 5.199.492 3.74-4.218 7.313-10.726 8.118-6.336.828-11.862-1.45-12.369-5.206-.463-3.733 4.24-7.302 10.736-8.111zm-9.586-22.531l14.144-6.193 10.388 6.354m-6.003 15.351c27.208-10.499 56.42-16.663 81.716-13.95m-146.782 30.917l-9.595-6.993 22.77-10.087m-44.336 54.749c20.898-15.65 32.569-22.593 65.51-30.7m93.061 36.488c-18.374-19.34-25.212-26.008-57.395-39.832m-21.693-16.963c-5.833-7.003-22.256-16.748-28.935-20.652m81.68 18.192l18.71 11.702-14.641 7.649m-31.348 19.05l-25.524 13.335-18.057-13.015" fill="none" stroke="#6e6f70" stroke-width="6"/><path d="M287.33 135.57l67.39-28.046" fill="none" stroke="#041433" stroke-width="6"/><path d="M287.33 133.517l67.39-28.046" fill="none" stroke="#fff" stroke-width="6"/><path d="M398.787 87.841l66.478-27.76" fill="none" stroke="#041433" stroke-width="6"/><path d="M398.787 85.788l66.478-27.76" fill="none" stroke="#fff" stroke-width="6"/><path d="M447.533 139.796l-48.241-33.574" fill="none" stroke="#041433" stroke-width="6"/><path d="M447.533 137.743l-48.241-33.574" fill="none" stroke="#fff" stroke-width="6"/><path d="M368.551 87.021l-47.445-32.924" fill="none" stroke="#041433" stroke-width="6"/><path d="M368.551 84.968l-47.445-32.924" fill="none" stroke="#fff" stroke-width="6"/><path d="M375.864 90.926c6.347-.817 11.863 1.473 12.369 5.205.474 3.744-4.247 7.324-10.743 8.112-6.336.838-11.877-1.451-12.359-5.184-.484-3.733 4.386-7.324 10.733-8.133z" fill="#041433" fill-rule="evenodd" stroke="#041433" stroke-width="6"/><path d="M375.723 88.255c6.347-.817 11.863 1.473 12.37 5.206.473 3.744-4.248 7.324-10.744 8.111-6.336.839-11.877-1.45-12.359-5.183-.484-3.734 4.386-7.324 10.733-8.133z" fill="#fff" fill-rule="evenodd" stroke="#fff" stroke-width="6"/><path d="M374.716 73.372l14.334-6.183 10.38 6.344" fill="none" stroke="#041433" stroke-width="6"/><path d="M374.716 71.32l14.334-6.184 10.38 6.343" fill="none" stroke="#fff" stroke-width="6"/><path d="M430.162 92.723l18.71 11.702-14.474 7.648" fill="none" stroke="#041433" stroke-width="6"/><path d="M430.162 90.67l18.71 11.702-14.474 7.648" fill="none" stroke="#fff" stroke-width="6"/><path d="M400.109 130.615l-25.547 13.317-18.187-12.993" fill="#030208" fill-rule="evenodd" stroke="#041433" stroke-width="6"/><path d="M400.109 128.562l-25.547 13.317-18.187-12.993" fill="#030208" fill-rule="evenodd" stroke="#fff" stroke-width="6"/><path d="M323.182 107.028l-9.606-6.992 22.781-10.076" fill="none" stroke="#041433" stroke-width="6"/><path d="M323.182 104.975l-9.606-6.992 22.781-10.077" fill="none" stroke="#fff" stroke-width="6"/><path d="M194.866 326.428h12.73v37.71h12.752v-37.71h12.603v100.391h-12.603v-50.13h-12.752v50.13h-12.73zm70.578 87.833v0-27.12h-12.742v27.12zm-6.435 12.558v0c-2.665 0-5.147-.496-7.437-1.483-2.289-.989-4.298-2.32-6.022-4.014a18.185 18.185 0 01-4.007-6.016c-.947-2.307-1.432-4.771-1.432-7.403v-14.688c0-2.643.485-5.104 1.432-7.404a17.867 17.867 0 014.007-6.016c1.724-1.695 3.733-3.026 6.022-4.014 2.29-.998 4.772-1.494 7.437-1.494h6.435v-10.15H240.11v-12.57h18.898c2.683 0 5.184.456 7.525 1.404 2.33.948 4.36 2.26 6.084 3.955a19.198 19.198 0 014.076 6.001c.999 2.3 1.502 4.824 1.502 7.557v56.335zm26.35-18.22v0-38.83c0-2.624.463-5.124 1.433-7.476.948-2.351 2.29-4.4 4.006-6.135 1.714-1.754 3.73-3.118 6.012-4.105 2.29-.988 4.783-1.484 7.466-1.484 2.65 0 5.155.496 7.495 1.484 2.341.987 4.368 2.351 6.085 4.105 1.735 1.735 3.084 3.784 4.075 6.135 1.018 2.352 1.513 4.852 1.513 7.477v6.92c-.393 3.105-1.301 5.912-2.796 8.39-1.494 2.506-3.35 3.854-5.657 4.037 2.58 1.695 4.64 3.372 6.153 5.006 1.531 1.654 2.3 4.177 2.3 7.564v6.912c0 2.734-.495 5.227-1.513 7.484-.991 2.253-2.34 4.247-4.075 5.942-1.717 1.688-3.744 3.008-6.085 3.956-2.34.93-4.844 1.392-7.495 1.392-2.683 0-5.176-.462-7.466-1.392-2.282-.948-4.298-2.268-6.012-3.956a18.204 18.204 0 01-4.006-5.942c-.97-2.257-1.433-4.75-1.433-7.484zm18.917-13.267v0h-6.307v18.929h12.741v-12.574c0-1.692-.605-3.186-1.804-4.448-1.192-1.28-2.745-1.907-4.63-1.907zm-6.307-31.194v18.482h7.426c1.444-.273 2.622-.958 3.591-2.037.937-1.09 1.513-2.712 1.724-4.882v-11.563zm71.005 62.681v0h-19.048c-2.563 0-5.024-.496-7.364-1.483-2.352-.989-4.371-2.352-6.085-4.094a21.27 21.27 0 01-4.156-5.994 17.136 17.136 0 01-1.575-7.204v-56.476h12.895v62.693h12.73v-62.693h12.603zm7.455-56.335v0c0-2.642.514-5.115 1.564-7.414 1.046-2.312 2.439-4.317 4.156-6.012a19.375 19.375 0 016.092-4.018c2.329-.987 4.782-1.472 7.356-1.472h6.313v12.57h-12.74v62.681h-12.74zm57.984 43.777v0-27.12h-12.745v27.12zm-6.445 12.558v0c-2.669 0-5.14-.496-7.467-1.483-2.267-.989-4.286-2.32-5.992-4.014a18.083 18.083 0 01-4.01-6.016c-.949-2.307-1.437-4.771-1.437-7.403v-14.688c0-2.643.488-5.104 1.436-7.404a17.768 17.768 0 014.01-6.016c1.707-1.695 3.726-3.026 5.993-4.014 2.326-.998 4.798-1.494 7.467-1.494h6.445v-10.15h-25.351v-12.57h18.906c2.676 0 5.169.456 7.51 1.404 2.347.948 4.367 2.26 6.08 3.955 1.728 1.695 3.077 3.701 4.083 6.001 1.014 2.3 1.51 4.824 1.51 7.557v56.335zm39.51 0v0-62.841h-13.036v-12.41h38.519v12.57h-12.73v62.681zm70.738-18.22v0c0 2.734-.503 5.227-1.494 7.484-1.029 2.253-2.348 4.247-4.09 5.942-1.722 1.688-3.748 3.008-6.096 3.956-2.319.93-4.841 1.392-7.51 1.392-2.668 0-5.155-.462-7.444-1.392-2.297-.948-4.309-2.268-6.022-3.956a18.339 18.339 0 01-4.003-5.942c-.948-2.257-1.422-4.75-1.422-7.484v-38.83c0-2.624.474-5.124 1.422-7.476.954-2.351 2.29-4.4 4.002-6.135 1.714-1.754 3.726-3.118 6.023-4.105 2.29-.988 4.776-1.484 7.444-1.484 2.669 0 5.191.496 7.51 1.484 2.348.987 4.374 2.351 6.095 4.105 1.743 1.735 3.062 3.784 4.09 6.135a19.083 19.083 0 011.495 7.477zm-25.489-44.462v50.124h12.738v-50.124zm45.831 50.124v0h12.738v-50.124h-12.738zm0 37.264v0c-1.749 0-3.36-.332-4.877-.988-1.531-.667-2.895-1.553-4.076-2.683-1.218-1.13-2.143-2.472-2.814-4.017-.642-1.564-.985-3.187-.985-4.86v-87.41h19.176c2.574 0 5.03.456 7.364 1.404 2.362.948 4.39 2.26 6.095 3.955 1.735 1.695 3.084 3.701 4.076 6.001 1.006 2.3 1.524 4.783 1.524 7.408v37.568c0 2.632-.518 5.096-1.524 7.403-.992 2.301-2.34 4.31-4.076 6.016-1.706 1.695-3.733 3.025-6.095 4.014a18.71 18.71 0 01-7.364 1.483h-6.424zm-344.976-5.301v5.597h-11.418v24.578h-6.802v-30.175zm2.289 15.626c0-2.866-.087-5.283-.175-7.343h5.906l.314 3.044h.095c1.61-2.282 4.119-3.536 7.298-3.536 4.79 0 9.089 4.164 9.089 11.148 0 7.97-5.06 11.728-9.942 11.728-2.64 0-4.703-1.072-5.687-2.505h-.087v10.878h-6.81zm6.81 5.147v0c0 .54.044.984.131 1.432.452 1.838 2.013 3.223 3.989 3.223 2.953 0 4.699-2.46 4.699-6.175 0-3.493-1.571-6.136-4.612-6.136-1.924 0-3.624 1.433-4.076 3.449a5.39 5.39 0 00-.13 1.206zm26.522-12.49l3.27 10.791c.357 1.25.806 2.909 1.071 4.072h.183c.266-1.207.627-2.821.94-4.12l2.73-10.742h7.252l-5.104 14.414c-3.135 8.731-5.239 12.18-7.7 14.374-2.329 2.06-4.837 2.819-6.536 2.997l-1.48-5.731c.853-.179 1.929-.58 2.957-1.163 1.028-.536 2.194-1.655 2.821-2.73.223-.358.358-.718.358-.985 0-.27-.044-.583-.27-1.119l-8.057-20.057zm40.892 0V476.4h-6.85v-16.653h-6.715V476.4h-6.806v-21.892zm28.045 0V476.4h-6.85v-16.653h-6.715V476.4h-6.806v-21.892zm25.938 16.609c0 2.06.088 4.076.358 5.283H338.3l-.401-2.195h-.135c-1.432 1.747-3.67 2.687-6.266 2.687-4.434 0-7.077-3.223-7.077-6.715 0-5.687 5.104-8.37 12.85-8.37v-.27c0-1.21-.626-2.865-3.983-2.865-2.239 0-4.612.761-6.045 1.655l-1.254-4.386c1.524-.853 4.52-1.972 8.505-1.972 7.299 0 9.584 4.297 9.584 9.493zm-6.584-5.06v0c-3.58 0-6.357.853-6.357 3.449 0 1.746 1.166 2.595 2.686 2.595 1.659 0 3.092-1.119 3.536-2.504a4.78 4.78 0 00.135-1.167zm32.347-11.549v8.732h.715l5.552-8.731h7.925l-8.06 9.445c2.6.448 4.255 2.822 5.509 6 .762 1.79 1.567 4.386 2.642 6.446h-7.12c-.583-.94-1.118-2.505-1.968-4.834-.94-2.509-2.33-3.85-4.524-3.85h-.67v8.684h-6.807v-21.891zm40.489 10.7c0 8.013-5.686 11.684-11.55 11.684-6.402 0-11.327-4.207-11.327-11.283 0-7.116 4.659-11.64 11.73-11.64 6.67 0 11.147 4.611 11.147 11.239zm-15.848.223v0c0 3.761 1.567 6.583 4.48 6.583 2.685 0 4.34-2.643 4.34-6.627 0-3.223-1.254-6.537-4.34-6.537-3.226 0-4.48 3.357-4.48 6.58zm22.942-10.923h8.685l2.369 8.283c.364 1.298.992 3.536 1.436 5.505h.132a377.745 377.745 0 011.75-5.997l2.413-7.79h8.596l1.349 21.89h-6.315l-.356-8.774c-.044-1.882-.183-5.06-.227-7.656h-.13c-.853 2.91-.992 3.627-2.108 7.164l-2.908 8.91h-4.974l-2.595-8.688c-.584-2.056-1.298-5.191-1.794-7.251h-.175c-.088 2.73-.139 5.818-.226 7.656l-.358 8.64h-6.087zm53.969 0V476.4h-6.853v-16.653h-6.715V476.4h-6.803v-21.892zm25.935 16.609c0 2.06.088 4.076.358 5.283h-6.133l-.4-2.195h-.14c-1.428 1.747-3.666 2.687-6.262 2.687-4.433 0-7.08-3.223-7.08-6.715 0-5.687 5.103-8.37 12.854-8.37v-.27c0-1.21-.627-2.865-3.988-2.865-2.238 0-4.608.761-6.044 1.655l-1.254-4.386c1.524-.853 4.52-1.972 8.509-1.972 7.298 0 9.58 4.297 9.58 9.493zm-6.584-5.06v0c-3.58 0-6.358.853-6.358 3.449 0 1.746 1.167 2.595 2.69 2.595 1.655 0 3.092-1.119 3.537-2.504a5.04 5.04 0 00.131-1.167zm21.02-11.549v7.925h6.89v-7.925h6.81V476.4h-6.81v-8.684h-6.89v8.684h-6.81v-21.892zm27.816 0v6.715c0 3.493-.183 5.954-.358 8.91l.175.044c1.036-2.508 1.612-4.207 2.509-6.267l4.258-9.402h8.326V476.4h-6.445v-6.672c0-3.401.175-4.834.401-9.445h-.182c-.846 2.373-1.386 3.806-2.283 5.865-1.385 3.044-3.047 6.85-4.564 10.252h-8.282v-21.892zm28.982 0v6.715c0 3.493-.175 5.954-.357 8.91l.182.044c1.028-2.508 1.611-4.207 2.508-6.267l4.251-9.402h8.326V476.4h-6.445v-6.672c0-3.401.183-4.834.4-9.445h-.175c-.852 2.373-1.391 3.806-2.281 5.865-1.393 3.044-3.048 6.85-4.571 10.252h-8.284v-21.892zm2.107-9.044v0c.044 1.968.81 3.178 2.063 3.178 1.342 0 2.057-1.253 2.188-3.178h4.301c-.27 4.163-2.733 6.314-6.584 6.314-4.119 0-6.088-2.465-6.262-6.314z" fill="#fff" fill-rule="evenodd" stroke="#1b1918" stroke-width="1.5"/></svg>