<svg version="1.2" width="210mm" height="297mm" viewBox="0 0 21000 29700" preserveAspectRatio="xMidYMid" fill-rule="evenodd" stroke-width="28.222" stroke-linejoin="round" xmlns="http://www.w3.org/2000/svg"><defs class="ClipPathGroup"><clipPath id="a" clipPathUnits="userSpaceOnUse"><path d="M0 0h21000v29700H0z"/></clipPath></defs><g class="SlideGroup"><g class="Slide" clip-path="url(#a)"><g class="Page"><g class="com.sun.star.drawing.ClosedBezierShape"><path class="BoundingBox" fill="none" d="M2809 6011h11898v16590H2809z"/><path fill="#000200" d="M9547 6051c10 132-29 353 64 428 680 0 1428-233 2108-200 283 46 587 231 686 521 79 251 72 574-119 765 59 205 205 350 344 514 619 515 1007 848 1920 785 44-3 99 85 144 86 40 1576-20 3152-251 4630-131 917-395 1768-686 2619l305 415 33 1571-899 269-866-22-745 756-255 328c-673 593-1470 1235-2183 1789-86 322-72 826-529 1295-369-416-366-888-472-1409-856-571-1379-1022-2232-1809l-84-459-653-443-769-170-1102-389-80-1518c224-72 435-125 660-263-917-2112-1088-4618-1076-7124 132-53 317-20 469-66 798-152 1577-686 1972-1438-99-244-105-560 27-804 237-383 686-508 1141-416 502 33 990 172 1505 132 38-96 14-217 19-333l1468-79 136 39zm0 0zM8057 18572l-985-700-1-481-243-249c-144-223 1036-446 1207-426 5 651-11 1330 22 1856zm0 0zm1257 157l1233-814 2-480 374-293c0-118-1420-568-1592-548 31 616 37 1533-17 2135zm0 0zm2550-3216l-1443-519 1905-1311c6 521-304 1540-462 1830zm0 0zm-4759-363c-455 112-752 284-1299 436-238-521-429-1082-528-1670l1827 1234zm0 0zm885-6833v1504-14l-3101 2065c-66-469-86-963-93-1465 677-306 1113-528 1443-851 316-311 536-718 743-1239 336-7 671-13 1008 0zm0 0zm1469 43l-4 1344 3319 2168c73-469 92-913 98-1414-719-264-1497-697-1912-1449-119-224-218-435-317-673-330-6-850-12-1187 1l3 23z"/></g><g class="com.sun.star.drawing.PolyPolygonShape"><path class="BoundingBox" fill="none" d="M6794 4032h7883v4028H6794z"/><defs><linearGradient id="b" x1="14890" y1="6703" x2="6579" y2="5387" gradientUnits="userSpaceOnUse"><stop offset="0"/><stop offset="1" stop-color="#6e6f70"/></linearGradient></defs><path d="M14676 4032L7195 8059l-400-320 5567-2968-158-264 2472-475z" fill="url(#b)"/></g><g class="com.sun.star.drawing.PolyPolygonShape"><path class="BoundingBox" fill="none" d="M4048 17716h8999v4828H4048z"/><defs><linearGradient id="c" x1="13309" y1="20883" x2="3784" y2="19375" gradientUnits="userSpaceOnUse"><stop offset="0"/><stop offset="1" stop-color="#6e6f70"/></linearGradient></defs><path d="M4048 22543l8965-4827 33 381-7353 3920 112 188-1757 338z" fill="url(#c)"/></g><g class="com.sun.star.drawing.PolyPolygonShape"><path class="BoundingBox" fill="none" d="M4655 17927h8562v4607H4655z"/><defs><linearGradient id="d" x1="4480" y1="22121" x2="13390" y2="18339" gradientUnits="userSpaceOnUse"><stop offset="0"/><stop offset="1" stop-color="#b1b3b4"/></linearGradient></defs><path d="M13216 22533l-8555-4606-6 393 6915 3687-112 188 1758 338z" fill="url(#d)"/></g><g class="com.sun.star.drawing.PolyPolygonShape"><path class="BoundingBox" fill="none" d="M4654 17606h8564v4927H4654z"/><defs><linearGradient id="e" x1="4332" y1="21132" x2="13540" y2="19006" gradientUnits="userSpaceOnUse"><stop offset="0"/><stop offset="1" stop-color="#c4c6c8"/></linearGradient></defs><path d="M13217 22532l-8562-4594 122-332 7131 3838 113-188 1196 1276z" fill="url(#e)"/></g><g class="com.sun.star.drawing.PolyPolygonShape"><path class="BoundingBox" fill="none" d="M4654 17516h8731v5100H4654z"/><path fill="none" stroke="#B1B3B4" stroke-width="106" stroke-linejoin="miter" d="M4795 17600l7130 3843 112-187 1196 1276-1758-339 113-187-6877-3677 84-729z"/></g><g class="com.sun.star.drawing.PolyPolygonShape"><path class="BoundingBox" fill="none" d="M4640 17512h8745v5108H4640z"/><path fill="none" stroke="#1B1918" stroke-width="106" stroke-linejoin="miter" d="M4770 17597l7154 3851 113-188 1196 1276-1758-338 112-187-6890-3674 73-740z"/></g><g class="com.sun.star.drawing.PolyPolygonShape"><path class="BoundingBox" fill="none" d="M4048 17365h8967v5179H4048z"/><defs><linearGradient id="f" x1="3758" y1="19198" x2="13304" y2="20710" gradientUnits="userSpaceOnUse"><stop offset="0" stop-color="#fff"/><stop offset="1" stop-color="#868789"/></linearGradient></defs><path d="M4048 22543l8966-4828-90-350-7568 4090-113-188-1195 1276z" fill="url(#f)"/></g><g class="com.sun.star.drawing.PolyPolygonShape"><path class="BoundingBox" fill="none" d="M3891 17284h9216v5344H3891z"/><path fill="none" stroke="#9B9D9F" stroke-width="106" stroke-linejoin="miter" d="M12917 17366l-7567 4090-113-188-1195 1276 1757-339-112-187 7360-3921-130-731z"/></g><g class="com.sun.star.drawing.PolyPolygonShape"><path class="BoundingBox" fill="none" d="M3917 17285h9266v5342H3917z"/><path fill="none" stroke="#1B1918" stroke-width="106" stroke-linejoin="miter" d="M12944 17365l-7568 4090-113-188-1195 1276 1757-339-112-187 7407-3948-176-704z"/></g><g class="com.sun.star.drawing.PolyPolygonShape"><path class="BoundingBox" fill="none" d="M1905 9871h881v956h-881z"/><path fill="#1B1918" d="M1905 10315l832-444 48 955-880-511z"/></g><g class="com.sun.star.drawing.PolyPolygonShape"><path class="BoundingBox" fill="none" d="M14421 9857h881v957h-881z"/><path fill="#1B1918" d="M15301 10302l-833-444-47 955 880-511z"/></g><g class="com.sun.star.drawing.PolyPolygonShape"><path class="BoundingBox" fill="none" d="M2528 4046h7355v3781H2528z"/><defs><linearGradient id="g" x1="2410" y1="7547" x2="10000" y2="4325" gradientUnits="userSpaceOnUse"><stop offset="0"/><stop offset="1" stop-color="#b1b3b4"/></linearGradient></defs><path d="M2528 4046l7023 3780 331-354-5041-2687 158-264-2471-475z" fill="url(#g)"/></g><g class="com.sun.star.drawing.PolyPolygonShape"><path class="BoundingBox" fill="none" d="M2474 4022h6940v4095H2474z"/><defs><linearGradient id="h" x1="2200" y1="6933" x2="9686" y2="5205" gradientUnits="userSpaceOnUse"><stop offset="0"/><stop offset="1" stop-color="#c4c6c8"/></linearGradient></defs><path d="M2474 4022l6939 3722-334 372-4766-2565-158 264-1681-1793z" fill="url(#h)"/></g><g class="com.sun.star.drawing.PolyPolygonShape"><path class="BoundingBox" fill="none" d="M2304 3935h7684v4323H2304z"/><path fill="none" stroke="#B1B3B4" stroke-width="141" stroke-linejoin="miter" d="M9154 8170L4342 5576l-157 264-1681-1794 2470 475-158 264 5052 2701-714 684z"/></g><g class="com.sun.star.drawing.PolyPolygonShape"><path class="BoundingBox" fill="none" d="M2305 3931h7556v4303H2305z"/><path fill="none" stroke="#1B1918" stroke-width="141" stroke-linejoin="miter" d="M9122 8143L4344 5571l-158 264-1681-1793 2471 475-158 264 4931 2628-627 734z"/></g><g class="com.sun.star.drawing.PolyPolygonShape"><path class="BoundingBox" fill="none" d="M7243 4032h7433v4270H7243z"/><defs><linearGradient id="i" x1="7004" y1="5540" x2="14915" y2="6793" gradientUnits="userSpaceOnUse"><stop offset="0" stop-color="#fff"/><stop offset="1" stop-color="#868789"/></linearGradient></defs><path d="M14675 4032L7243 8033l524 268 5069-2739 158 264 1681-1794z" fill="url(#i)"/></g><g class="com.sun.star.drawing.PolyPolygonShape"><path class="BoundingBox" fill="none" d="M7006 3919h7880v4362H7006z"/><path fill="none" stroke="#9B9D9F" stroke-width="141" stroke-linejoin="miter" d="M7968 8196l4878-2636 158 264 1681-1794-2471 475 158 264-5236 2790 832 637z"/></g><g class="com.sun.star.drawing.PolyPolygonShape"><path class="BoundingBox" fill="none" d="M6818 3919h8068v4352H6818z"/><path fill="none" stroke="#1B1918" stroke-width="141" stroke-linejoin="miter" d="M7980 8189l4867-2630 157 264 1681-1793-2471 475 158 264-5404 2880 1012 540z"/></g><g class="com.sun.star.drawing.ClosedBezierShape"><path class="BoundingBox" fill="none" d="M2656 6005h11898v16596H2656z"/><defs><linearGradient id="j" x1="2061" y1="6504" x2="15148" y2="22100" gradientUnits="userSpaceOnUse"><stop offset="0"/><stop offset="1" stop-color="#1b1918"/></linearGradient></defs><path d="M9412 6011l1 49-2 48-5 90v21l2 20 3 20 5 18 8 18 10 17 13 15 16 15 257-8 262-20 532-59 532-53 262-12 258 3 53 10 53 14 53 16 53 20 52 23 51 25 49 29 48 32 45 34 43 37 40 40 36 43 34 46 29 48 26 51 21 53 25 97 16 101 4 52 2 51-1 52-5 51-7 51-11 49-14 49-18 47-22 45-25 42-30 41-33 37 12 38 14 36 17 35 19 34 42 66 47 63 212 242 220 193 229 170 239 146 250 122 260 97 271 72 282 48 294 23 10 1181-34 1172-85 1152-142 1125-56 341-66 335-161 658-192 645-211 639 601 192v1899l-1162 165-866-23-601 843-255 329-1031 892-528 438-532 424-24 58-22 63-41 143-97 334-68 181-42 93-48 93-54 92-63 92-71 91-80 89-66-78-57-80-50-81-43-83-37-84-32-84-52-174-38-179-32-184-66-381-532-394-523-418-513-439-497-457-227-216-178-431-653-443-788-23-1317-140 154-1914 329-107 82-32 82-35 83-42 84-48-310-809-247-842-190-869-140-893-96-911-59-925-34-1874 25-9 26-7 28-6 28-4 59-6 61-4 123-8 60-8 30-6 29-8 149-33 148-42 147-50 145-58 142-66 139-75 135-81 132-89 126-96 121-103 116-109 109-115 102-122 95-128 87-133 79-138-18-47-15-48-24-99-13-104-3-52-1-52 3-53 5-52 8-52 11-52 14-50 16-49 20-48 24-47 46-69 52-62 56-57 60-51 64-45 67-40 70-33 73-29 76-22 78-17 80-12 82-6 83-1 84 4 84 10 86 15 187 17 187 23 373 53 187 23 189 16 190 7 192-7 6-18 5-19 4-20 3-20 3-41v-42l-2-86-1-44 1-43 1622 6zM7904 18487l-985-702-1-480-243-249v-6l2-5 4-6 5-7 14-12 18-13 50-27 66-29 167-57 197-56 204-48 191-38 157-23 58-5 42 1 54 1762zm1465 100l1025-758 2-481 290-249-1-6-3-6-9-13-14-15-20-15-54-35-70-37-178-80-209-82-218-75-202-61-164-39-60-9-24-2-18 1 9 482-14 504-30 501-38 475zm2342-3160l-1307-436 1782-1200-3 101-10 107-37 227-56 235-70 234-78 224-80 203-75 173-66 132zm-4759-363l-164 45-154 49-297 109-315 116-175 58-194 58-169-398-148-411-64-211-57-213-49-216-41-219 1827 1233zm885-6834v1504-13l-3101 2065-42-356-27-364-16-370-8-374 271-105 272-120 268-136 259-156 245-179 115-99 110-105 104-113 97-121 90-128 83-137 85-169 79-172 74-175 72-177 484-7 239 1 247 6zm1514-5l-12 1506 3282 2055 45-356 29-364 17-370 8-374-272-105-272-120-268-136-259-156-244-179-116-99-110-105-103-113-98-121-89-128-82-137-86-169-80-172-151-352-480-7-238 1-245 6-176-5z" fill="url(#j)"/></g><g class="Group"><g class="com.sun.star.drawing.ClosedBezierShape"><path class="BoundingBox" fill="none" d="M2981 7649h2512v4223H2981z"/></g><g class="com.sun.star.drawing.ClosedBezierShape"><path class="BoundingBox" fill="none" d="M2982 9201h1261v6872H2982z"/></g></g><g class="Group"><g class="com.sun.star.drawing.ClosedBezierShape"><path class="BoundingBox" fill="none" d="M11785 7599h2511v4223h-2511z"/></g><g class="com.sun.star.drawing.ClosedBezierShape"><path class="BoundingBox" fill="none" d="M13035 9150h1260v6872h-1260z"/></g></g><g class="com.sun.star.drawing.ClosedBezierShape"><path class="BoundingBox" fill="none" d="M7798 16513h1748v6002H7798z"/><path fill="#000200" d="M9507 16603l-64 22c62 1213-76 2392-170 3573-109 785-141 1603-579 2276-16 33-55 13-78 26-384-540-454-1180-548-1821-133-1319-291-2665-253-4030 564-158 1152-158 1692-46z"/><path fill="none" stroke="#000200" stroke-width="20" stroke-linejoin="miter" d="M9507 16603l-64 22c62 1213-76 2392-170 3573-109 785-141 1603-579 2276-16 33-55 13-78 26-384-540-454-1180-548-1821-133-1319-291-2665-253-4030 564-158 1152-158 1692-46z"/></g><g class="com.sun.star.drawing.PolyPolygonShape"><path class="BoundingBox" fill="none" d="M1905 10316h12591v7196H1905z"/><defs><linearGradient id="k" x1="14599" y1="17315" x2="1800" y2="10510" gradientUnits="userSpaceOnUse"><stop offset="0"/><stop offset="1" stop-color="#1b1918"/></linearGradient></defs><path d="M1986 11428l-81-1112 12590 6363-269 832-12240-6083z" fill="url(#k)"/></g><g class="com.sun.star.drawing.PolyPolygonShape"><path class="BoundingBox" fill="none" d="M2706 10298h12590v7540H2706z"/><defs><linearGradient id="l" x1="15570" y1="10863" x2="2431" y2="17271" gradientUnits="userSpaceOnUse"><stop offset="0"/><stop offset="1" stop-color="#000200"/></linearGradient></defs><path d="M15171 11441l124-1143-12588 6367 486 1172 11978-6396z" fill="url(#l)"/></g><g class="com.sun.star.drawing.PolyPolygonShape"><path class="BoundingBox" fill="none" d="M12146 10306h3149v2513h-3149z"/></g><g class="com.sun.star.drawing.PolyPolygonShape"><path class="BoundingBox" fill="none" d="M2578 10708h2318v1950H2578z"/></g><g class="com.sun.star.drawing.ClosedBezierShape"><path class="BoundingBox" fill="none" d="M3436 9180h10442v6040H3436z"/><path fill="#000200" d="M10112 15170c-1092-199-1923-270-3093 49l-3583-2651 5185-3388 5256 3402-3765 2588z"/></g><g class="com.sun.star.drawing.ClosedBezierShape"><path class="BoundingBox" fill="none" d="M3672 9411h9897v5683H3672z"/><defs><linearGradient id="m" x1="4395" y1="8579" x2="12845" y2="15925" gradientUnits="userSpaceOnUse"><stop offset="0"/><stop offset="1" stop-color="#c4c6c8"/></linearGradient></defs><path d="M10034 15092l-728-122-329-40-320-22-324 2-340 29-366 59-404 95-3551-2514 4954-3168 4942 3149-3534 2532z" fill="url(#m)"/></g><g class="com.sun.star.drawing.ClosedBezierShape"><path class="BoundingBox" fill="none" d="M5936 10228h5482v4443H5936z"/><path fill="#000200" d="M11417 12496c0 290-18 500-52 628-49 177-153 337-312 479-247 222-712 332-1395 332h-259v735H7925v-735h-228c-686 0-1151-110-1398-332-158-142-262-302-311-479-36-128-52-338-52-628v-78c0-291 16-500 52-628 49-178 153-338 311-480 245-215 710-324 1398-324 51 0 128-2 228-7v-751h1474v751c119 5 205 7 259 7 688 0 1153 109 1395 324 159 142 263 302 312 480 34 128 52 337 52 628v78zm0 0zm-1473 249v-574c0-151-38-273-113-365-76-91-169-136-282-136h-150v1575h150c113 0 206-46 282-138 75-92 113-211 113-362zm0 0zm-2019 500v-1575h-123c-110 0-202 45-278 136-75 92-113 214-113 365v574c0 151 38 270 113 362 76 92 168 138 278 138h123z"/></g><g class="com.sun.star.drawing.ClosedBezierShape"><path class="BoundingBox" fill="none" d="M6075 10406h5097v4132H6075z"/></g><g class="com.sun.star.drawing.PolyLineShape"><path class="BoundingBox" fill="none" d="M1800 10700h793v412h-793z"/></g><g class="com.sun.star.drawing.ClosedBezierShape"><path class="BoundingBox" fill="none" d="M7972 16515h1320v5977H7972z"/><defs><linearGradient id="n" x1="10160" y1="17059" x2="7105" y2="21948" gradientUnits="userSpaceOnUse"><stop offset="0"/><stop offset="1" stop-color="#3a3a3a"/></linearGradient></defs><path d="M9273 16594l17 907-20 902-102 1786-63 592-77 588-55 287-74 280-95 270-58 131-66 128-2 6-2 2-2 2-1 2-2 2-2 1-2 1-4 2-5 1-4 1h-5l-19 1-4 1h-5l-4 2-2 1-2 1-57-102-52-105-88-215-70-222-55-229-44-233-36-236-60-479-140-1998-34-1012 2-1020 174-52 165-38 160-24 156-10 155 2 157 14 161 25 166 37z" fill="url(#n)"/></g><g class="com.sun.star.drawing.LineShape"><path class="BoundingBox" fill="none" d="M12567 10304h2714v1445h-2714z"/><path fill="none" stroke="#FFF" stroke-width="106" stroke-linejoin="miter" d="M15256 10352l-2665 1348"/></g><g class="com.sun.star.drawing.ClosedBezierShape"><path class="BoundingBox" fill="none" d="M6378 19206h1647v1495H6378z"/></g><g class="com.sun.star.drawing.ClosedBezierShape"><path class="BoundingBox" fill="none" d="M9262 19320h1646v1495H9262z"/></g><g class="com.sun.star.drawing.ClosedBezierShape"><path class="BoundingBox" fill="none" d="M8397 16525h420v4506h-420z"/><defs><linearGradient id="o" x1="8359" y1="18773" x2="8851" y2="18781" gradientUnits="userSpaceOnUse"><stop offset="0"/><stop offset="1" stop-color="#1b1918"/></linearGradient></defs><path d="M8592 21029l-14-71-16-125-34-390-69-1180-50-1418-9-1300 45-7 50-5 108-7 109-1 52 2 47 4-7 1306-56 1424-78 1184-41 389-19 125-9 42-9 28z" fill="url(#o)"/></g><g class="com.sun.star.drawing.PolyPolygonShape"><path class="BoundingBox" fill="none" d="M2928 17097h4054v2477H2928z"/></g><g class="com.sun.star.drawing.PolyPolygonShape"><path class="BoundingBox" fill="none" d="M10336 17037h3984v2578h-3984z"/></g><g class="com.sun.star.drawing.PolyPolygonShape"><path class="BoundingBox" fill="none" d="M10472 17392h2582v2633h-2582z"/><defs><linearGradient id="p" x1="10195" y1="18075" x2="13329" y2="19341" gradientUnits="userSpaceOnUse"><stop offset="0"/><stop offset="1" stop-color="#b1b3b4"/></linearGradient></defs><path d="M12413 18956l640 1068-2581-996v-1636l2581 976-640 588z" fill="url(#p)"/></g><g class="com.sun.star.drawing.PolyPolygonShape"><path class="BoundingBox" fill="none" d="M4246 17395h2583v2633H4246z"/><defs><linearGradient id="q" x1="3970" y1="19312" x2="7102" y2="18110" gradientUnits="userSpaceOnUse"><stop offset="0"/><stop offset="1" stop-color="#b1b3b4"/></linearGradient></defs><path d="M4886 18959l-640 1068 2581-996v-1636l-2581 976 640 588z" fill="url(#q)"/></g><g class="com.sun.star.drawing.ClosedBezierShape"><path class="BoundingBox" fill="none" d="M3194 15239h10911v2985H3194z"/><path fill="#000200" d="M14062 16613c60 31 40 1529 33 1572-2243-87-3794-2119-6447-1378-1465 409-2983 1291-4454 1416v-1573c1280-323 2520-720 3775-1136 2652-881 4632 602 7093 1099z"/></g><g class="com.sun.star.drawing.ClosedBezierShape"><path class="BoundingBox" fill="none" d="M3199 15027h10911v2985H3199z"/><defs><linearGradient id="r" x1="3175" y1="16425" x2="14134" y2="16617" gradientUnits="userSpaceOnUse"><stop offset="0"/><stop offset="1" stop-color="#6e6f70"/></linearGradient></defs><path d="M14067 16401l1 1 2 1 2 5 5 15 9 53 12 178 11 528-3 531-3 181-2 54-1 25-413-38-399-77-389-108-380-133-1489-644-763-291-395-113-408-84-423-46-441-1-462 49-485 108-552 173-555 203-1118 438-560 207-558 178-557 137-278 48-276 32v-1573l953-255 944-278 1878-603 490-138 475-88 463-42 453-2 444 34 436 65 857 204 1701 561 871 279 903 226z" fill="url(#r)"/></g><g class="com.sun.star.drawing.ClosedBezierShape"><path class="BoundingBox" fill="none" d="M4091 15208h9183v2281H4091z"/><path fill="#000200" d="M5565 16557c0 66-4 116-14 149-13 44-41 90-83 136-67 72-192 137-376 195l-69 22v169l-397 124v-169l-62 20c-184 58-309 72-376 42-42-20-70-48-83-84-10-27-14-73-14-140v-18c0-67 4-116 14-149 13-45 41-90 83-136 66-71 191-135 376-193 14-5 35-12 62-21v-174l397-125v174c32-9 55-16 69-20 185-60 310-74 376-45 42 19 70 48 83 85 10 27 14 73 14 140v18zm0 0zm-396 182v-132c0-35-10-60-30-74-21-15-46-18-76-8l-40 13v362l40-13c30-10 55-28 76-56 20-27 30-58 30-92zm0 0zm-543 286v-362l-33 10c-30 9-55 28-75 55s-31 59-31 93v132c0 35 11 59 31 74s45 17 75 8l33-10zm0 0zm1987-778c0 103-4 177-11 222s-29 92-66 140-87 92-152 133c-63 40-137 75-221 104-80 27-152 43-216 47-63 4-114-6-153-28-39-23-62-54-69-93-8-40-12-112-12-217v-175c0-104 4-177 11-223 7-45 29-91 67-139 37-48 87-92 150-133 64-41 137-75 222-104 80-27 152-43 215-47 65-4 116 5 155 28 39 22 62 54 69 93 7 40 11 112 11 217v175zm0 0zm-389-203c0-48-4-77-12-87-8-11-23-12-47-4-21 7-36 18-47 32s-16 48-16 101v477c0 60 4 95 10 106 7 12 24 13 50 4s43-22 51-41c7-19 11-58 11-118v-470zm0 0zm1565 43c0 76-15 135-46 176-30 41-76 74-138 100-62 25-161 55-297 91l-474 125v-1023l803-211v177l-392 103v173l63-17c127-33 223-54 287-61 65-7 114 1 146 26 32 24 48 72 48 143v198zm0 0zm-410 77v-147c0-43-7-67-20-73-14-6-52-1-114 14v336c52-14 87-28 106-41 18-14 28-43 28-89zm0 0zm1598-367c0 103-4 176-12 219s-33 84-76 122-100 68-173 92c-73 23-158 38-254 44-92 6-175 2-248-12-73-13-132-36-176-69-45-33-71-70-80-112-8-41-12-115-12-220v-174c0-103 4-176 12-219s33-84 76-122 100-68 173-92c73-23 158-38 255-44 92-5 174-2 247 12 73 13 132 36 177 69 44 33 70 70 79 112 8 41 12 114 12 220v174zm0 0zm-446-307c0-48-4-78-13-91-9-12-27-18-54-16-24 1-41 8-54 19-12 12-18 44-18 96v477c0 59 4 96 12 109s27 19 57 17 49-11 58-27c8-17 12-55 12-115v-469zm0 0zm1623 306l-431-73v-178c0-52-5-85-14-99-9-15-29-25-61-30-36-6-58-2-68 12-9 14-14 47-14 98v474c0 50 5 83 14 100 10 17 31 28 65 34 32 5 53 1 63-12 10-14 15-48 15-104v-128l431 73v40c0 105-12 178-36 218-25 40-78 69-161 89-83 19-185 18-307-3-126-21-230-53-312-95s-137-90-163-144c-27-55-40-132-40-232v-298c0-74 4-128 12-164 9-35 33-67 74-94 40-27 96-44 169-51 72-8 154-3 248 12 127 22 232 55 314 99 83 45 137 91 163 141s39 122 39 218v97zm0 0zm931 403v177l-486-173v-176l486 172zm0 0zm1253 5v1022l-367-152v-429l-110-45v428l-367-152v-1022l367 152v367l110 45v-366l367 152zm0 0zm935 341v204l-230-79v817l-389-133v-817l-230-78v-205l849 291z"/></g><g class="com.sun.star.drawing.OpenBezierShape"><path class="BoundingBox" fill="none" d="M3374 16232h10786v1526H3374z"/></g><g class="com.sun.star.drawing.ClosedBezierShape"><path class="BoundingBox" fill="none" d="M12570 13723h921v919h-921z"/><path fill="#000200" d="M13029 13723c255 0 460 205 460 458 0 255-205 460-460 460-254 0-459-205-459-460 0-253 205-458 459-458z"/></g><g class="com.sun.star.drawing.ClosedBezierShape"><path class="BoundingBox" fill="none" d="M9507 18910h921v919h-921z"/><path fill="#000200" d="M9966 18910c255 0 460 205 460 458 0 255-205 460-460 460-254 0-459-205-459-460 0-253 205-458 459-458z"/></g><g class="com.sun.star.drawing.ClosedBezierShape"><path class="BoundingBox" fill="none" d="M7014 18921h920v920h-920z"/><path fill="#000200" d="M7473 18921c255 0 460 205 460 458 0 255-205 460-460 460-254 0-459-205-459-460 0-253 205-458 459-458z"/></g><g class="com.sun.star.drawing.ClosedBezierShape"><path class="BoundingBox" fill="none" d="M4012 13736h920v919h-920z"/><path fill="#000200" d="M4471 13736c255 0 460 205 460 458 0 255-205 460-460 460-254 0-459-205-459-460 0-253 205-458 459-458z"/></g><g class="com.sun.star.drawing.ClosedBezierShape"><path class="BoundingBox" fill="none" d="M12522 13666h920v919h-920z"/><defs><linearGradient id="s" x1="12521" y1="14125" x2="13441" y2="14125" gradientUnits="userSpaceOnUse"><stop offset="0"/><stop offset="1" stop-color="#565757"/></linearGradient></defs><path d="M12981 13666l47 2 46 7 44 12 42 15 41 19 38 23 35 27 33 29 29 33 27 35 23 38 19 40 15 42 12 44 7 45 2 47-2 47-7 46-12 44-15 42-19 41-23 38-27 35-29 33-33 29-35 27-38 23-41 19-42 15-44 12-46 7-47 2-47-2-46-7-44-12-42-15-40-19-38-23-35-27-33-29-29-33-27-35-23-38-19-41-15-42-12-44-7-46-2-47 2-47 7-45 12-44 15-42 19-40 23-38 27-35 29-33 33-29 35-27 38-23 40-19 42-15 44-12 46-7 47-2z" fill="url(#s)"/></g><g class="com.sun.star.drawing.ClosedBezierShape"><path class="BoundingBox" fill="none" d="M12646 13780h661v661h-661z"/><defs><linearGradient id="t" x1="12646" y1="14110" x2="13306" y2="14110" gradientUnits="userSpaceOnUse"><stop offset="0"/><stop offset="1" stop-color="#ececed"/></linearGradient></defs><path d="M12975 13780l34 2 33 5 32 8 30 11 29 14 27 16 26 19 23 21 21 24 20 25 16 27 14 29 11 30 8 32 5 32 2 34-2 34-5 33-8 32-11 30-14 29-16 27-20 26-21 23-23 21-26 20-27 16-29 14-30 11-32 8-33 5-34 2-34-2-32-5-32-8-30-11-29-14-27-16-25-20-24-21-21-23-19-26-16-27-14-29-11-30-8-32-5-33-2-34 2-34 5-32 8-32 11-30 14-29 16-27 19-25 21-24 24-21 25-19 27-16 29-14 30-11 32-8 32-5 34-2z" fill="url(#t)"/></g><g class="com.sun.star.drawing.ClosedBezierShape"><path class="BoundingBox" fill="none" d="M9478 18862h921v919h-921z"/><defs><linearGradient id="u" x1="9477" y1="19321" x2="10397" y2="19321" gradientUnits="userSpaceOnUse"><stop offset="0"/><stop offset="1" stop-color="#565757"/></linearGradient></defs><path d="M9937 18862l47 2 46 7 44 12 42 15 41 19 38 23 35 27 33 29 29 33 27 35 23 38 19 40 15 42 12 44 7 45 2 47-2 47-7 46-12 44-15 42-19 41-23 38-27 35-29 33-33 29-35 27-38 23-41 19-42 15-44 12-46 7-47 2-47-2-46-7-44-12-42-15-40-19-38-23-35-27-33-29-29-33-27-35-23-38-19-41-15-42-12-44-7-46-2-47 2-47 7-45 12-44 15-42 19-40 23-38 27-35 29-33 33-29 35-27 38-23 40-19 42-15 44-12 46-7 47-2z" fill="url(#u)"/></g><g class="com.sun.star.drawing.ClosedBezierShape"><path class="BoundingBox" fill="none" d="M9602 18976h662v661h-662z"/><defs><linearGradient id="v" x1="9601" y1="19306" x2="10263" y2="19306" gradientUnits="userSpaceOnUse"><stop offset="0"/><stop offset="1" stop-color="#ececed"/></linearGradient></defs><path d="M9932 18976l34 2 33 5 32 8 30 11 29 14 27 16 26 19 23 21 21 24 20 25 16 27 14 29 11 30 8 32 5 32 2 34-2 34-5 33-8 32-11 30-14 29-16 27-20 26-21 23-23 21-26 20-27 16-29 14-30 11-32 8-33 5-34 2-34-2-33-5-31-8-31-11-29-14-27-16-25-20-24-21-21-23-19-26-16-27-14-29-11-30-8-32-5-33-2-34 2-34 5-32 8-32 11-30 14-29 16-27 19-25 21-24 24-21 25-19 27-16 29-14 31-11 31-8 33-5 34-2z" fill="url(#v)"/></g><g class="com.sun.star.drawing.ClosedBezierShape"><path class="BoundingBox" fill="none" d="M6976 18873h920v920h-920z"/><defs><linearGradient id="w" x1="6975" y1="19332" x2="7895" y2="19332" gradientUnits="userSpaceOnUse"><stop offset="0"/><stop offset="1" stop-color="#565757"/></linearGradient></defs><path d="M7435 18873l47 2 46 7 44 12 42 15 41 19 38 23 35 27 33 29 29 33 27 35 23 38 19 40 15 42 12 44 7 45 2 47-2 47-7 46-12 44-15 42-19 41-23 38-27 35-29 33-33 29-35 27-38 23-41 19-42 15-44 12-46 7-47 2-47-2-46-7-44-12-42-15-40-19-38-23-35-27-33-29-29-33-27-35-23-38-19-41-15-42-12-44-7-46-2-47 2-47 7-45 12-44 15-42 19-40 23-38 27-35 29-33 33-29 35-27 38-23 40-19 42-15 44-12 46-7 47-2z" fill="url(#w)"/></g><g class="com.sun.star.drawing.ClosedBezierShape"><path class="BoundingBox" fill="none" d="M7099 18987h663v661h-663z"/><defs><linearGradient id="x" x1="7098" y1="19317" x2="7760" y2="19317" gradientUnits="userSpaceOnUse"><stop offset="0"/><stop offset="1" stop-color="#ececed"/></linearGradient></defs><path d="M7429 18987l34 2 33 5 32 8 30 11 29 14 27 16 26 19 23 21 21 24 20 25 16 27 14 29 11 30 8 32 5 32 2 34-2 34-5 33-8 32-11 30-14 29-16 27-20 26-21 23-23 21-26 20-27 16-29 14-30 11-32 8-33 5-34 2-34-2-33-5-31-8-31-11-29-14-27-16-25-20-24-21-21-23-19-26-16-27-14-29-11-30-8-32-5-33-2-34 2-34 5-32 8-32 11-30 14-29 16-27 19-25 21-24 24-21 25-19 27-16 29-14 31-11 31-8 33-5 34-2z" fill="url(#x)"/></g><g class="com.sun.star.drawing.ClosedBezierShape"><path class="BoundingBox" fill="none" d="M3969 13675h920v919h-920z"/><defs><linearGradient id="y" x1="3968" y1="14134" x2="4888" y2="14134" gradientUnits="userSpaceOnUse"><stop offset="0"/><stop offset="1" stop-color="#565757"/></linearGradient></defs><path d="M4428 13675l47 2 46 7 44 12 42 15 41 19 38 23 35 27 33 29 29 33 27 35 23 38 19 40 15 42 12 44 7 45 2 47-2 47-7 46-12 44-15 42-19 41-23 38-27 35-29 33-33 29-35 27-38 23-41 19-42 15-44 12-46 7-47 2-47-2-46-7-44-12-42-15-40-19-38-23-35-27-33-29-29-33-27-35-23-38-19-41-15-42-12-44-7-46-2-47 2-47 7-45 12-44 15-42 19-40 23-38 27-35 29-33 33-29 35-27 38-23 40-19 42-15 44-12 46-7 47-2z" fill="url(#y)"/></g><g class="com.sun.star.drawing.ClosedBezierShape"><path class="BoundingBox" fill="none" d="M4093 13789h661v661h-661z"/><defs><linearGradient id="z" x1="4093" y1="14119" x2="4753" y2="14119" gradientUnits="userSpaceOnUse"><stop offset="0"/><stop offset="1" stop-color="#ececed"/></linearGradient></defs><path d="M4422 13789l34 2 33 5 32 8 30 11 29 14 27 16 26 19 23 21 21 24 20 25 16 27 14 29 11 30 8 32 5 32 2 34-2 34-5 33-8 32-11 30-14 29-16 27-20 26-21 23-23 21-26 20-27 16-29 14-30 11-32 8-33 5-34 2-34-2-32-5-32-8-30-11-29-14-27-16-25-20-24-21-21-23-19-26-16-27-14-29-11-30-8-32-5-33-2-34 2-34 5-32 8-32 11-30 14-29 16-27 19-25 21-24 24-21 25-19 27-16 29-14 30-11 32-8 32-5 34-2z" fill="url(#z)"/></g><g class="com.sun.star.drawing.ClosedBezierShape"><path class="BoundingBox" fill="none" d="M7863 6092h653v327h-653z"/><path fill="#C4C6C8" d="M8514 6108c-7 146-165 259-297 298-107 14-272 33-338-65-117-431 424-153 635-233z"/></g><g class="com.sun.star.drawing.ClosedBezierShape"><path class="BoundingBox" fill="none" d="M8742 6096h652v327h-652z"/><path fill="#C4C6C8" d="M8742 6112c6 146 164 259 296 298 107 14 272 33 338-65 119-431-423-153-634-233z"/></g><g class="com.sun.star.drawing.ClosedBezierShape"><path class="BoundingBox" fill="none" d="M6352 6464h881v338h-881z"/><path fill="#1B1918" d="M7232 6569c-86 40-232 80-232 192l-6 40c-159-232-424-239-641-337 297 32 581 79 879 105z"/></g><g class="com.sun.star.drawing.ClosedBezierShape"><path class="BoundingBox" fill="none" d="M8360 6467h481v463h-481z"/><path fill="#1B1918" d="M8836 6656c19 105-47 192-133 252-80 19-152 39-232-14-60-52-131-133-106-218l26-86c-26 86 14 165 94 191 86 13 198 0 211-105 34-86-33-153-99-186h-99c125-65 291 20 338 166z"/></g><g class="com.sun.star.drawing.ClosedBezierShape"><path class="BoundingBox" fill="none" d="M9943 6490h840v318h-840z"/><path fill="#1B1918" d="M10782 6490c-212 92-436 105-594 317-33-26-33-145-127-172l-118-27c278-39 555-79 839-118z"/></g><g class="com.sun.star.drawing.ClosedBezierShape"><path class="BoundingBox" fill="none" d="M7861 6892h612v377h-612z"/><path fill="#C4C6C8" d="M8472 7203v47c-198 6-410 26-595 13-19-120-25-258 7-371 224 26 456 119 588 311z"/></g><g class="com.sun.star.drawing.ClosedBezierShape"><path class="BoundingBox" fill="none" d="M8747 6906h605v358h-605z"/><path fill="#C4C6C8" d="M9332 6906c33 98 13 231 6 343l-589 14c-12-132 160-219 252-285 106-46 205-72 331-72z"/></g><g class="com.sun.star.drawing.PolyPolygonShape"><path class="BoundingBox" fill="none" d="M7826 7388h547v2336h-547z"/><path fill="#000200" d="M8372 9340l-546 383V7389h546v1951z"/></g><g class="com.sun.star.drawing.PolyPolygonShape"><path class="BoundingBox" fill="none" d="M8852 7316h599v2408h-599z"/><path fill="#000200" d="M8852 9322l598 401V7316h-598v2006z"/></g><g class="com.sun.star.drawing.PolyPolygonShape"><path class="BoundingBox" fill="none" d="M7981 7389h477v2205h-477z"/><defs><linearGradient id="A" x1="7669" y1="9406" x2="8769" y2="7576" gradientUnits="userSpaceOnUse"><stop offset="0"/><stop offset="1" stop-color="#565757"/></linearGradient></defs><path d="M8457 9283l-476 310V7389h476v1894z" fill="url(#A)"/></g><g class="com.sun.star.drawing.PolyPolygonShape"><path class="BoundingBox" fill="none" d="M8765 7388h485v2205h-485z"/><defs><linearGradient id="B" x1="9472" y1="7491" x2="8540" y2="9489" gradientUnits="userSpaceOnUse"><stop offset="0"/><stop offset="1" stop-color="#565757"/></linearGradient></defs><path d="M8765 9282l483 310V7388h-483v1894z" fill="url(#B)"/></g><g class="com.sun.star.drawing.ClosedBezierShape"><path class="BoundingBox" fill="none" d="M5140 6445h7037v1319H5140z"/><path fill="#000200" d="M7989 6705c-704-9-1321-77-2019-238-699-160-1016 704-716 980 209 191 451 187 498-95 66 39 46 132 26 185-53 112-191 131-303 145 33 51 66 59 99 72 158 27 303-6 415-112 99-112 145-251 119-402-26-93-92-212-191-252-126-47-214-30-304 53-66 100-6 232 46 317-140 60-253-35-270-217 3-154 125-277 264-305 333-91 1267 389 1505 483 46-132 93-298 244-364 456-119 901-38 1204 319l53-829c-187 145-111 284-670 260zm0 0zm1337 0c705-9 1322-77 2020-238 699-160 1017 704 716 980-209 191-451 187-498-95-66 39-46 132-26 185 52 112 191 131 303 145-34 51-66 59-99 72-158 27-303-6-415-112-99-112-146-251-119-402 26-93 92-212 191-252 126-47 213-30 304 53 66 100 6 232-47 317 140 60 254-35 271-217-3-154-125-277-264-305-333-91-1268 389-1505 483-46-132-93-298-244-364-456-119-1004-38-1308 319l51-829c187 145 110 284 669 260z"/></g><g class="com.sun.star.drawing.ClosedBezierShape"><path class="BoundingBox" fill="none" d="M5047 6115h7139v1446H5047z"/><path fill="#000200" d="M5914 6264c-740-133-1090 752-715 980 242 147 451 188 498-95 66 40 46 132 26 185-53 112-191 132-304 145 34 52 66 59 99 72 159 27 304-6 416-112 99-112 145-250 119-402-27-92-92-212-191-252-126-47-214-30-304 54-66 99-7 231 46 317-140 60-253-36-270-218 3-154 125-276 264-304 333-92 1267 388 1505 482 46-132 92-298 244-364 455-118 952 14 1256 371l1-1008c-146 176-157 268-390 311-669 123-1527-22-2300-162zm0 0zm5377 0c769-147 1139 725 716 980-243 147-451 188-498-95-66 40-46 132-26 185 52 112 191 132 303 145-34 52-66 59-99 72-158 27-303-6-416-112-99-112-145-250-118-402 26-92 92-212 191-252 125-47 213-30 303 54 66 99 7 231-46 317 140 60 254-36 271-218-3-154-125-276-264-304-333-92-1268 388-1505 482-47-132-93-298-245-364-455-118-952 14-1255 371l-1-1007c226 172 191 314 511 348 628 66 1471-64 2178-200z"/></g><g class="com.sun.star.drawing.ClosedBezierShape"><path class="BoundingBox" fill="none" d="M8106 2150h942v3853h-942z"/><path fill="#FFF" d="M8674 2196l-86 6v20c132 46 298 20 404 92 19 93-93 53-139 80-87 0-166 19-245 19 132 66 318 33 436 112-26 66-145 53-224 66l-206 27v13c152 7 292 46 430 79 20 73-59 53-99 73l-337 39c112 46 285 60 430 93l-7 52c-158 27-311 33-456 73l423 66c20 14 13 40 13 60l-423 59c99 40 272 60 410 93 20 13 13 33 13 59-145 13-291 40-436 53 112 53 311 46 423 112v33c-145 26-298 33-436 73l423 72c26 13 13 40 13 53-138 33-285 39-430 66v13c145 33 305 40 430 99v33c-145 39-318 26-469 59l463 99v40c-139 33-305 33-444 72 146 33 312 40 437 106v20l-443 72 443 92v33c-158 40-324 40-470 80 146 26 305 46 444 92v39c-139 40-285 40-437 60 112 46 291 66 430 99 7 66-86 59-132 72-100 21-206 14-298 41 125 46 298 59 423 105-33 66-146 53-225 66-73 20-145 20-205 40 132 39 284 39 424 79l-13 53-437 59c112 46 290 60 437 93l-14 52c-146 27-304 33-443 73 145 26 304 46 443 92v40c-146 39-311 33-456 72l390 73v39c-185 7-377 7-556 0-269-1175-250-2625 107-3754 39-20 59-73 79-92l198 6v40z"/></g><g class="com.sun.star.drawing.ClosedBezierShape"><path class="BoundingBox" fill="none" d="M8002 5694h1224v320H8002z"/><defs><linearGradient id="C" x1="8002" y1="5853" x2="9225" y2="5853" gradientUnits="userSpaceOnUse"><stop offset="0"/><stop offset="1" stop-color="#000200"/></linearGradient></defs><path d="M8136 5694h955l14 1 13 2 13 3 12 5 12 5 11 7 10 8 10 8 8 10 8 10 7 11 5 12 5 12 3 13 2 13 1 14v50l-1 14-2 13-3 13-5 12-5 12-7 11-8 11-8 9-10 9-10 8-11 7-12 5-12 5-13 3-13 2-14 1h-955l-14-1-13-2-13-3-12-5-12-5-11-7-10-8-10-9-8-9-8-11-7-11-5-12-5-12-3-13-2-13-1-14v-50l1-14 2-13 3-13 5-12 5-12 7-11 8-10 8-10 10-8 10-8 11-7 12-5 12-5 13-3 13-2 14-1z" fill="url(#C)"/></g><g class="com.sun.star.drawing.ClosedBezierShape"><path class="BoundingBox" fill="none" d="M7987 5384h1258v320H7987z"/><defs><linearGradient id="D" x1="7987" y1="5543" x2="9244" y2="5543" gradientUnits="userSpaceOnUse"><stop offset="0"/><stop offset="1" stop-color="#565757"/></linearGradient></defs><path d="M8113 5384h1005l13 1 12 2 12 3 12 5 11 5 10 7 10 8 9 8 8 10 7 10 7 11 5 12 4 12 3 13 2 13 1 14v50l-1 14-2 13-3 13-4 12-5 12-7 11-7 11-8 9-9 9-10 8-10 7-11 5-12 5-12 3-12 2-13 1H8113l-13-1-13-2-12-3-11-5-11-5-11-7-9-8-9-9-8-9-8-11-6-11-5-12-4-12-3-13-2-13-1-14v-50l1-14 2-13 3-13 4-12 5-12 6-11 8-10 8-10 9-8 9-8 11-7 11-5 11-5 12-3 13-2 13-1z" fill="url(#D)"/></g><g class="com.sun.star.drawing.ClosedBezierShape"><path class="BoundingBox" fill="none" d="M8074 2246h1074v320H8074z"/><defs><linearGradient id="E" x1="8074" y1="2405" x2="9147" y2="2405" gradientUnits="userSpaceOnUse"><stop offset="0"/><stop offset="1" stop-color="#565757"/></linearGradient></defs><path d="M8208 2246h805l14 1 13 2 13 3 12 5 12 5 11 7 10 8 10 8 8 10 8 10 7 11 5 12 5 12 3 13 2 13 1 14v50l-1 14-2 13-3 13-5 12-5 12-7 11-8 11-8 9-10 9-10 8-11 7-12 5-12 5-13 3-13 2-14 1h-805l-14-1-13-2-13-3-12-5-12-5-11-7-10-8-10-9-8-9-8-11-7-11-5-12-5-12-3-13-2-13-1-14v-50l1-14 2-13 3-13 5-12 5-12 7-11 8-10 8-10 10-8 10-8 11-7 12-5 12-5 13-3 13-2 14-1z" fill="url(#E)"/></g><g class="com.sun.star.drawing.ClosedBezierShape"><path class="BoundingBox" fill="none" d="M7948 4769h1312v320H7948z"/><defs><linearGradient id="F" x1="7948" y1="4928" x2="9259" y2="4928" gradientUnits="userSpaceOnUse"><stop offset="0"/><stop offset="1" stop-color="#565757"/></linearGradient></defs><path d="M8069 4769h1067l12 1 12 2 12 3 11 5 11 5 10 7 9 8 9 8 8 10 7 10 6 11 5 12 4 12 4 13 1 13 1 14v50l-1 14-1 13-4 13-4 12-5 12-6 11-7 11-8 9-9 9-9 8-10 7-11 5-11 5-12 3-12 2-12 1H8069l-12-1-12-2-12-3-11-5-11-5-10-7-9-8-9-9-7-9-7-11-6-11-6-12-4-12-3-13-1-13-1-14v-50l1-14 1-13 3-13 4-12 6-12 6-11 7-10 7-10 9-8 9-8 10-7 11-5 11-5 12-3 12-2 12-1z" fill="url(#F)"/></g><g class="com.sun.star.drawing.ClosedBezierShape"><path class="BoundingBox" fill="none" d="M7924 4136h1362v320H7924z"/><defs><linearGradient id="G" x1="7924" y1="4295" x2="9285" y2="4295" gradientUnits="userSpaceOnUse"><stop offset="0"/><stop offset="1" stop-color="#565757"/></linearGradient></defs><path d="M8045 4136h1118l12 1 12 2 12 3 11 5 11 5 10 7 9 8 9 8 8 10 7 10 6 11 5 12 4 12 4 13 1 13 1 14v50l-1 14-1 13-4 13-4 12-5 12-6 11-7 11-8 9-9 9-9 8-10 7-11 5-11 5-12 3-12 2-12 1H8045l-12-1-12-2-12-3-11-5-11-5-10-7-9-8-9-9-7-9-7-11-6-11-6-12-4-12-3-13-1-13-1-14v-50l1-14 1-13 3-13 4-12 6-12 6-11 7-10 7-10 9-8 9-8 10-7 11-5 11-5 12-3 12-2 12-1z" fill="url(#G)"/></g><g class="com.sun.star.drawing.ClosedBezierShape"><path class="BoundingBox" fill="none" d="M7922 3505h1363v320H7922z"/><defs><linearGradient id="H" x1="7923" y1="3664" x2="9284" y2="3664" gradientUnits="userSpaceOnUse"><stop offset="0"/><stop offset="1" stop-color="#565757"/></linearGradient></defs><path d="M8044 3505h1118l12 1 12 2 12 3 11 5 11 5 10 7 9 8 9 8 8 10 7 10 6 11 5 12 4 12 4 13 1 13 1 14v50l-1 14-1 13-4 13-4 12-5 12-6 11-7 11-8 9-9 9-9 8-10 7-11 5-11 5-12 3-12 2-12 1H8044l-12-1-12-2-12-3-11-5-11-5-10-7-9-8-9-9-7-9-7-11-6-11-6-12-4-12-3-13-1-13-1-14v-50l1-14 1-13 3-13 4-12 6-12 6-11 7-10 7-10 9-8 9-8 10-7 11-5 11-5 12-3 12-2 12-1z" fill="url(#H)"/></g><g class="com.sun.star.drawing.ClosedBezierShape"><path class="BoundingBox" fill="none" d="M8010 2875h1190v321H8010z"/><defs><linearGradient id="I" x1="8011" y1="3034" x2="9200" y2="3034" gradientUnits="userSpaceOnUse"><stop offset="0"/><stop offset="1" stop-color="#565757"/></linearGradient></defs><path d="M8132 2875h945l12 1 12 2 12 3 11 5 11 5 10 7 9 8 9 8 8 10 7 10 6 11 5 12 4 12 4 13 1 13 1 14v50l-1 14-1 13-4 13-4 12-5 12-6 11-7 11-8 9-9 9-9 8-10 7-11 5-11 5-12 3-12 2-12 1h-945l-12-1-12-2-12-3-11-5-11-5-10-7-9-8-9-9-7-9-7-11-6-11-6-12-4-12-3-13-1-13-1-14v-50l1-14 1-13 3-13 4-12 6-12 6-11 7-10 7-10 9-8 9-8 10-7 11-5 11-5 12-3 12-2 12-1z" fill="url(#I)"/></g><g class="com.sun.star.drawing.ClosedBezierShape"><path class="BoundingBox" fill="none" d="M7970 5079h1277v321H7970z"/><defs><linearGradient id="J" x1="7970" y1="5238" x2="9247" y2="5238" gradientUnits="userSpaceOnUse"><stop offset="0"/><stop offset="1" stop-color="#000200"/></linearGradient></defs><path d="M8091 5079h1033l12 1 12 2 12 3 11 5 11 5 10 7 9 8 9 8 8 10 7 10 6 11 5 12 4 12 4 13 1 13 1 14v50l-1 14-1 13-4 13-4 12-5 12-6 11-7 11-8 9-9 9-9 8-10 7-11 5-11 5-12 3-12 2-12 1H8091l-12-1-12-2-12-3-11-5-11-5-10-7-9-8-9-9-7-9-7-11-6-11-6-12-4-12-3-13-1-13-1-14v-50l1-14 1-13 3-13 4-12 6-12 6-11 7-10 7-10 9-8 9-8 10-7 11-5 11-5 12-3 12-2 12-1z" fill="url(#J)"/></g><g class="com.sun.star.drawing.ClosedBezierShape"><path class="BoundingBox" fill="none" d="M7944 4453h1338v321H7944z"/><defs><linearGradient id="K" x1="7944" y1="4612" x2="9281" y2="4612" gradientUnits="userSpaceOnUse"><stop offset="0"/><stop offset="1" stop-color="#000200"/></linearGradient></defs><path d="M8065 4453h1094l12 1 12 2 12 3 11 5 11 5 10 7 9 8 9 8 7 10 7 10 6 11 6 12 4 12 3 13 1 13 1 14v50l-1 14-1 13-3 13-4 12-6 12-6 11-7 11-7 9-9 9-9 8-10 7-11 5-11 5-12 3-12 2-12 1H8065l-12-1-12-2-12-3-11-5-11-5-10-7-9-8-9-9-7-9-7-11-6-11-6-12-4-12-3-13-1-13-1-14v-50l1-14 1-13 3-13 4-12 6-12 6-11 7-10 7-10 9-8 9-8 10-7 11-5 11-5 12-3 12-2 12-1z" fill="url(#K)"/></g><g class="com.sun.star.drawing.ClosedBezierShape"><path class="BoundingBox" fill="none" d="M7919 3823h1381v320H7919z"/><defs><linearGradient id="L" x1="7919" y1="3982" x2="9298" y2="3982" gradientUnits="userSpaceOnUse"><stop offset="0"/><stop offset="1" stop-color="#000200"/></linearGradient></defs><path d="M8040 3823h1137l12 1 12 2 12 3 11 5 11 5 10 7 9 8 9 8 7 10 7 10 6 11 6 12 4 12 3 13 1 13 1 14v50l-1 14-1 13-3 13-4 12-6 12-6 11-7 11-7 9-9 9-9 8-10 7-11 5-11 5-12 3-12 2-12 1H8040l-12-1-12-2-12-3-11-5-11-5-10-7-9-8-9-9-7-9-7-11-6-11-6-12-4-12-3-13-1-13-1-14v-50l1-14 1-13 3-13 4-12 6-12 6-11 7-10 7-10 9-8 9-8 10-7 11-5 11-5 12-3 12-2 12-1z" fill="url(#L)"/></g><g class="com.sun.star.drawing.ClosedBezierShape"><path class="BoundingBox" fill="none" d="M7975 3190h1266v321H7975z"/><defs><linearGradient id="M" x1="7976" y1="3349" x2="9241" y2="3349" gradientUnits="userSpaceOnUse"><stop offset="0"/><stop offset="1" stop-color="#000200"/></linearGradient></defs><path d="M8097 3190h1022l12 1 12 2 12 3 11 5 11 5 10 7 9 8 9 8 7 10 7 10 6 11 6 12 4 12 3 13 1 13 1 14v50l-1 14-1 13-3 13-4 12-6 12-6 11-7 11-7 9-9 9-9 8-10 7-11 5-11 5-12 3-12 2-12 1H8097l-12-1-12-2-12-3-11-5-11-5-10-7-9-8-9-9-7-9-7-11-6-11-6-12-4-12-3-13-1-13-1-14v-50l1-14 1-13 3-13 4-12 6-12 6-11 7-10 7-10 9-8 9-8 10-7 11-5 11-5 12-3 12-2 12-1z" fill="url(#M)"/></g><g class="com.sun.star.drawing.ClosedBezierShape"><path class="BoundingBox" fill="none" d="M8003 2560h1215v320H8003z"/><defs><linearGradient id="N" x1="8003" y1="2719" x2="9218" y2="2719" gradientUnits="userSpaceOnUse"><stop offset="0"/><stop offset="1" stop-color="#000200"/></linearGradient></defs><path d="M8137 2560h946l14 1 13 2 13 3 12 5 12 5 11 7 10 8 10 8 8 10 8 10 7 11 5 12 5 12 3 13 2 13 1 14v50l-1 14-2 13-3 13-5 12-5 12-7 11-8 11-8 9-10 9-10 8-11 7-12 5-12 5-13 3-13 2-14 1h-946l-14-1-13-2-13-3-12-5-12-5-11-7-10-8-10-9-8-9-8-11-7-11-5-12-5-12-3-13-2-13-1-14v-50l1-14 2-13 3-13 5-12 5-12 7-11 8-10 8-10 10-8 10-8 11-7 12-5 12-5 13-3 13-2 14-1z" fill="url(#N)"/></g><g class="com.sun.star.drawing.ClosedBezierShape"><path class="BoundingBox" fill="none" d="M7934 1599h1333v650H7934z"/><defs><linearGradient id="O" x1="7934" y1="1923" x2="9265" y2="1923" gradientUnits="userSpaceOnUse"><stop offset="0"/><stop offset="1" stop-color="#1b1918"/></linearGradient></defs><path d="M8600 1599l67 3 65 10 63 16 60 22 57 27 55 32 50 37 48 42 42 46 39 50 33 54 29 56 23 60 18 62 11 65 5 67H7934l5-67 11-65 18-62 23-60 28-56 34-54 38-50 43-46 47-42 51-37 54-32 58-27 61-22 63-16 65-10 67-3z" fill="url(#O)"/></g><g class="com.sun.star.drawing.ClosedBezierShape"><path class="BoundingBox" fill="none" d="M10824 7671h920v920h-920z"/><path fill="#000200" d="M11283 7672c255 0 460 205 460 458 0 255-205 460-460 460-254 0-459-205-459-460 0-253 205-458 459-458z"/></g><g class="com.sun.star.drawing.ClosedBezierShape"><path class="BoundingBox" fill="none" d="M12975 9822h920v920h-920z"/><path fill="#000200" d="M13434 9823c255 0 460 205 460 458 0 255-205 460-460 460-254 0-459-205-459-460 0-253 205-458 459-458z"/></g><g class="com.sun.star.drawing.ClosedBezierShape"><path class="BoundingBox" fill="none" d="M3458 9856h920v919h-920z"/><path fill="#000200" d="M3917 9856c255 0 460 205 460 458 0 255-205 460-460 460-254 0-459-205-459-460 0-253 205-458 459-458z"/></g><g class="com.sun.star.drawing.ClosedBezierShape"><path class="BoundingBox" fill="none" d="M5594 7708h920v919h-920z"/><path fill="#000200" d="M6053 7708c255 0 460 205 460 458 0 255-205 460-460 460-254 0-459-205-459-460 0-253 205-458 459-458z"/></g><g class="com.sun.star.drawing.ClosedBezierShape"><path class="BoundingBox" fill="none" d="M10770 7629h920v920h-920z"/><defs><linearGradient id="P" x1="10769" y1="8089" x2="11689" y2="8089" gradientUnits="userSpaceOnUse"><stop offset="0"/><stop offset="1" stop-color="#565757"/></linearGradient></defs><path d="M11229 7630l47 2 46 7 44 12 42 15 41 19 38 23 35 27 33 29 29 33 27 35 23 38 19 40 15 42 12 44 7 45 2 47-2 47-7 46-12 44-15 42-19 41-23 38-27 35-29 33-33 29-35 27-38 23-41 19-42 15-44 12-46 7-47 2-47-2-46-7-44-12-42-15-40-19-38-23-35-27-33-29-29-33-27-35-23-38-19-41-15-42-12-44-7-46-2-47 2-47 7-45 12-44 15-42 19-40 23-38 27-35 29-33 33-29 35-27 38-23 40-19 42-15 44-12 46-7 47-2z" fill="url(#P)"/></g><g class="com.sun.star.drawing.ClosedBezierShape"><path class="BoundingBox" fill="none" d="M5555 7639h920v920h-920z"/><defs><linearGradient id="Q" x1="5554" y1="8099" x2="6474" y2="8099" gradientUnits="userSpaceOnUse"><stop offset="0"/><stop offset="1" stop-color="#565757"/></linearGradient></defs><path d="M6014 7640l47 2 46 7 44 12 42 15 41 19 38 23 35 27 33 29 29 33 27 35 23 38 19 40 15 42 12 44 7 45 2 47-2 47-7 46-12 44-15 42-19 41-23 38-27 35-29 33-33 29-35 27-38 23-41 19-42 15-44 12-46 7-47 2-47-2-46-7-44-12-42-15-40-19-38-23-35-27-33-29-29-33-27-35-23-38-19-41-15-42-12-44-7-46-2-47 2-47 7-45 12-44 15-42 19-40 23-38 27-35 29-33 33-29 35-27 38-23 40-19 42-15 44-12 46-7 47-2z" fill="url(#Q)"/></g><g class="com.sun.star.drawing.ClosedBezierShape"><path class="BoundingBox" fill="none" d="M10899 7759h661v661h-661z"/><defs><linearGradient id="R" x1="10899" y1="8089" x2="11559" y2="8089" gradientUnits="userSpaceOnUse"><stop offset="0"/><stop offset="1" stop-color="#ececed"/></linearGradient></defs><path d="M11228 7759l34 2 33 5 32 8 30 11 29 14 27 16 26 19 23 21 21 24 20 25 16 27 14 29 11 30 8 32 5 32 2 34-2 34-5 33-8 32-11 30-14 29-16 27-20 26-21 23-23 21-26 20-27 16-29 14-30 11-32 8-33 5-34 2-34-2-32-5-32-8-30-11-29-14-27-16-25-20-24-21-21-23-19-26-16-27-14-29-11-30-8-32-5-33-2-34 2-34 5-32 8-32 11-30 14-29 16-27 19-25 21-24 24-21 25-19 27-16 29-14 30-11 32-8 32-5 34-2z" fill="url(#R)"/></g><g class="com.sun.star.drawing.ClosedBezierShape"><path class="BoundingBox" fill="none" d="M5679 7754h661v661h-661z"/><defs><linearGradient id="S" x1="5679" y1="8084" x2="6339" y2="8084" gradientUnits="userSpaceOnUse"><stop offset="0"/><stop offset="1" stop-color="#ececed"/></linearGradient></defs><path d="M6008 7754l34 2 33 5 32 8 30 11 29 14 27 16 26 19 23 21 21 24 20 25 16 27 14 29 11 30 8 32 5 32 2 34-2 34-5 33-8 32-11 30-14 29-16 27-20 26-21 23-23 21-26 20-27 16-29 14-30 11-32 8-33 5-34 2-34-2-32-5-32-8-30-11-29-14-27-16-25-20-24-21-21-23-19-26-16-27-14-29-11-30-8-32-5-33-2-34 2-34 5-32 8-32 11-30 14-29 16-27 19-25 21-24 24-21 25-19 27-16 29-14 30-11 32-8 32-5 34-2z" fill="url(#S)"/></g><g class="com.sun.star.drawing.ClosedBezierShape"><path class="BoundingBox" fill="none" d="M5084 6330h3520v1319H5084z"/><defs><linearGradient id="T" x1="8632" y1="7083" x2="5054" y2="6895" gradientUnits="userSpaceOnUse"><stop offset="0" stop-color="#fff"/><stop offset="1" stop-color="#d9dadb"/></linearGradient></defs><path d="M7932 6590l-514-18-498-44-496-72-511-104-64-12-62-6-60-1-58 4-55 9-52 13-50 18-48 22-45 25-42 29-77 66-65 76-55 84-42 88-31 91-18 92-5 90 8 85 9 41 12 38 16 36 19 34 23 30 26 28 40 34 40 28 40 24 39 19 40 14 38 9 37 4 36-2 17-3 16-5 16-5 16-8 15-8 14-11 13-11 13-13 12-15 11-16 19-37 15-43 11-50 11 8 10 9 8 10 6 11 4 12 4 12 1 12 1 13v13l-1 13-2 13-2 13-7 24-7 22-11 20-13 18-14 16-16 14-17 12-19 11-19 10-20 8-21 7-22 7-44 9-87 13 6 9 6 8 7 7 6 7 6 6 6 5 6 4 7 4 12 7 12 5 25 10 59 7 28 2h29l28-2 27-3 27-4 27-6 26-8 25-9 25-11 24-12 24-14 23-16 22-17 21-19 35-43 15-23 14-23 13-23 11-25 10-24 8-25 7-26 6-26 4-26 2-27 1-27-1-28-2-28-4-28-12-36-15-37-19-37-22-36-13-17-13-16-14-16-15-14-16-13-16-12-18-10-18-8-46-15-21-5-21-3-20-2-20-1-19 1-18 3-19 4-17 5-18 7-17 9-17 10-17 12-17 13-17 15-11 19-8 20-6 20-3 21-1 21 1 21 3 21 4 21 5 21 7 21 17 40 18 37 20 34-26 9-25 6-24 3-24-1-22-4-21-7-20-11-19-13-17-16-16-19-14-21-12-24-11-26-8-29-7-31-4-33 2-28 5-28 7-27 9-26 12-24 13-24 16-22 17-21 19-19 20-18 22-16 23-14 23-13 25-10 25-9 26-6 33-7 36-4 82 2 91 12 100 21 218 64 228 84 717 311 36-103 22-53 25-51 14-24 16-24 17-22 19-21 20-19 23-18 25-15 27-14 86-19 86-14 87-8 87-2 86 4 86 10 84 15 83 21 82 26 79 32 76 37 74 43 71 49 67 53 63 60 59 64 1-881-32 27-28 27-45 51-42 47-23 22-25 19-31 18-36 16-43 13-51 10-61 7-71 5-182-2z" fill="url(#T)"/></g><g class="com.sun.star.drawing.ClosedBezierShape"><path class="BoundingBox" fill="none" d="M8571 6330h3567v1319H8571z"/><defs><linearGradient id="U" x1="12156" y1="6926" x2="8550" y2="7052" gradientUnits="userSpaceOnUse"><stop offset="0" stop-color="#fff"/><stop offset="1" stop-color="#d9dadb"/></linearGradient></defs><path d="M9249 6590l522-18 504-44 503-72 518-104 65-12 63-6 61-1 58 4 56 9 53 13 51 18 48 22 46 25 43 29 77 66 67 76 55 84 43 88 31 91 18 92 5 90-2 43-6 42-9 41-12 38-16 36-20 34-23 30-27 28-40 34-40 28-41 24-40 19-40 14-39 9-37 4-36-2-17-3-17-5-16-5-16-8-15-8-14-11-14-11-13-13-12-15-11-16-19-37-16-43-11-50-12 8-9 9-8 10-6 11-5 12-3 12-2 12-1 13v13l1 13 2 13 2 13 7 24 7 22 11 20 13 18 15 16 16 14 17 12 19 11 20 10 21 8 43 14 44 9 89 13-6 9-7 8-6 7-6 7-7 6-6 5-6 4-6 4-13 7-12 5-25 10-60 7-58 2-28-2-28-3-28-4-27-6-26-8-26-9-25-11-25-12-24-14-23-16-22-17-22-19-35-43-16-23-14-23-13-23-11-25-10-24-9-25-7-26-5-26-4-26-3-27-1-27 1-28 3-28 4-28 12-36 16-37 19-37 22-36 13-17 13-16 15-16 15-14 16-13 17-12 17-10 19-8 46-15 22-5 21-3 20-2 20-1 19 1 19 3 18 4 18 5 18 7 18 9 17 10 17 12 17 13 17 15 11 19 8 20 6 20 4 21 1 21-1 21-3 21-4 21-6 21-6 21-17 40-19 37-20 34 26 9 26 6 24 3 24-1 23-4 21-7 21-11 19-13 17-16 16-19 14-21 13-24 10-26 9-29 7-31 4-33-2-28-5-28-7-27-9-26-12-24-14-24-16-22-17-21-19-19-21-18-22-16-23-14-24-13-25-10-26-9-26-6-33-7-37-4-82 2-93 12-102 21-220 64-232 84-727 311-36-103-22-53-25-51-14-24-16-24-18-22-19-21-21-19-23-18-25-15-28-14-87-19-87-14-88-8-88-2-87 4-87 10-86 15-84 21-82 26-80 32-78 37-75 43-72 49-68 53-64 60-60 64v-881l33 27 27 27 46 51 42 47 23 22 26 19 31 18 36 16 44 13 51 10 62 7 73 5 184-2z" fill="url(#U)"/></g><g class="com.sun.star.drawing.PolyLineShape"><path class="BoundingBox" fill="none" d="M7722 6843h1806v568H7722z"/><path fill="none" stroke="#000200" stroke-width="176" stroke-linejoin="miter" d="M9439 6895l-22 422-1581 4-26-473"/></g><g class="com.sun.star.drawing.ClosedBezierShape"><path class="BoundingBox" fill="none" d="M8459 7398h308v1877h-308z"/><defs><linearGradient id="V" x1="8458" y1="8336" x2="8766" y2="8336" gradientUnits="userSpaceOnUse"><stop offset="0"/><stop offset="1" stop-color="#565757"/></linearGradient></defs><path d="M8459 9274V7398l158 2 71 1 78-3v1876l-148-66-159 66z" fill="url(#V)"/></g><g class="com.sun.star.drawing.ClosedBezierShape"><path class="BoundingBox" fill="none" d="M12927 9784h920v920h-920z"/><defs><linearGradient id="W" x1="12926" y1="10244" x2="13846" y2="10244" gradientUnits="userSpaceOnUse"><stop offset="0"/><stop offset="1" stop-color="#565757"/></linearGradient></defs><path d="M13386 9785l47 2 46 7 44 12 42 15 41 19 38 23 35 27 33 29 29 33 27 35 23 38 19 40 15 42 12 44 7 45 2 47-2 47-7 46-12 44-15 42-19 41-23 38-27 35-29 33-33 29-35 27-38 23-41 19-42 15-44 12-46 7-47 2-47-2-46-7-44-12-42-15-40-19-38-23-35-27-33-29-29-33-27-35-23-38-19-41-15-42-12-44-7-46-2-47 2-47 7-45 12-44 15-42 19-40 23-38 27-35 29-33 33-29 35-27 38-23 40-19 42-15 44-12 46-7 47-2z" fill="url(#W)"/></g><g class="com.sun.star.drawing.ClosedBezierShape"><path class="BoundingBox" fill="none" d="M13050 9899h661v661h-661z"/><defs><linearGradient id="X" x1="13050" y1="10229" x2="13710" y2="10229" gradientUnits="userSpaceOnUse"><stop offset="0"/><stop offset="1" stop-color="#ececed"/></linearGradient></defs><path d="M13379 9899l34 2 33 5 32 8 30 11 29 14 27 16 26 19 23 21 21 24 20 25 16 27 14 29 11 30 8 32 5 32 2 34-2 34-5 33-8 32-11 30-14 29-16 27-20 26-21 23-23 21-26 20-27 16-29 14-30 11-32 8-33 5-34 2-34-2-32-5-32-8-30-11-29-14-27-16-25-20-24-21-21-23-19-26-16-27-14-29-11-30-8-32-5-33-2-34 2-34 5-32 8-32 11-30 14-29 16-27 19-25 21-24 24-21 25-19 27-16 29-14 30-11 32-8 32-5 34-2z" fill="url(#X)"/></g><g class="com.sun.star.drawing.ClosedBezierShape"><path class="BoundingBox" fill="none" d="M3420 9789h921v919h-921z"/><defs><linearGradient id="Y" x1="3419" y1="10248" x2="4339" y2="10248" gradientUnits="userSpaceOnUse"><stop offset="0"/><stop offset="1" stop-color="#565757"/></linearGradient></defs><path d="M3879 9789l47 2 46 7 44 12 42 15 41 19 38 23 35 27 33 29 29 33 27 35 23 38 19 40 15 42 12 44 7 45 2 47-2 47-7 46-12 44-15 42-19 41-23 38-27 35-29 33-33 29-35 27-38 23-41 19-42 15-44 12-46 7-47 2-47-2-46-7-44-12-42-15-40-19-38-23-35-27-33-29-29-33-27-35-23-38-19-41-15-42-12-44-7-46-2-47 2-47 7-45 12-44 15-42 19-40 23-38 27-35 29-33 33-29 35-27 38-23 40-19 42-15 44-12 46-7 47-2z" fill="url(#Y)"/></g><g class="com.sun.star.drawing.ClosedBezierShape"><path class="BoundingBox" fill="none" d="M3544 9903h662v661h-662z"/><defs><linearGradient id="Z" x1="3543" y1="10233" x2="4205" y2="10233" gradientUnits="userSpaceOnUse"><stop offset="0"/><stop offset="1" stop-color="#ececed"/></linearGradient></defs><path d="M3874 9903l34 2 33 5 32 8 30 11 29 14 27 16 26 19 23 21 21 24 20 25 16 27 14 29 11 30 8 32 5 32 2 34-2 34-5 33-8 32-11 30-14 29-16 27-20 26-21 23-23 21-26 20-27 16-29 14-30 11-32 8-33 5-34 2-34-2-33-5-31-8-31-11-29-14-27-16-25-20-24-21-21-23-19-26-16-27-14-29-11-30-8-32-5-33-2-34 2-34 5-32 8-32 11-30 14-29 16-27 19-25 21-24 24-21 25-19 27-16 29-14 31-11 31-8 33-5 34-2z" fill="url(#Z)"/></g></g></g></g></svg>