<svg width="103" height="103" fill="none" xmlns="http://www.w3.org/2000/svg"><g clip-path="url(#clip0)" fill="#fff"><path d="M80.022 58.763l3.83-4.68a7.987 7.987 0 001.8-5.044V34.88c0-1.538-.356-3.082-1.03-4.464a10.223 10.223 0 00-4.784-4.725v-5.686a6.998 6.998 0 00-6.99-6.99 6.979 6.979 0 00-5.483 2.664 6.98 6.98 0 00-5.485-2.664 6.98 6.98 0 00-5.484 2.664 6.979 6.979 0 00-5.484-2.664 6.979 6.979 0 00-5.484 2.664 6.98 6.98 0 00-5.484-2.664 6.998 6.998 0 00-6.99 6.99v10.979c0 1.243.328 2.411.9 3.424v13.668a1.506 1.506 0 103.011 0v-10.82a6.98 6.98 0 008.563-1.947 6.98 6.98 0 005.484 2.664 6.979 6.979 0 005.484-2.664 6.98 6.98 0 008.554 1.953 6.594 6.594 0 002.984.711h1.619l-.315 3.97h-2.045c-6.386 0-11.695 4.993-12.086 11.368l-.214 3.487a1.506 1.506 0 103.006.184l.214-3.487c.293-4.79 4.282-8.54 9.08-8.54h3.436c.786 0 1.439-.605 1.501-1.388l.443-5.594h.276a1.505 1.505 0 100-3.011h-4.915a3.633 3.633 0 01-3.629-3.63 3.633 3.633 0 013.63-3.628h7.53a7.22 7.22 0 016.45 4.031c.476.974.726 2.061.726 3.144v14.158a4.962 4.962 0 01-1.12 3.138l-3.829 4.68a1.506 1.506 0 002.33 1.907zm-40.078-23.8a3.983 3.983 0 01-3.979-3.978v-10.98a3.983 3.983 0 013.979-3.978 3.983 3.983 0 013.978 3.979v10.979a3.983 3.983 0 01-3.978 3.978zm10.968 0a3.983 3.983 0 01-3.978-3.978v-10.98a3.983 3.983 0 013.978-3.978 3.983 3.983 0 013.978 3.979v10.979a3.983 3.983 0 01-3.978 3.978zm10.382-3.629a6.6 6.6 0 001.063 3.598 4 4 0 01-.477.031 3.983 3.983 0 01-3.978-3.978v-10.98a3.983 3.983 0 013.978-3.978 3.983 3.983 0 013.979 3.979v5.022c-2.648.873-4.565 3.37-4.565 6.306zm7.576-6.64v-4.688a3.983 3.983 0 013.979-3.979 3.983 3.983 0 013.978 3.979v4.782a10.014 10.014 0 00-1.362-.095H68.87zm6.87 36.925a1.506 1.506 0 00-2.12.212l-2.56 3.128a3.705 3.705 0 00-.835 2.341v34.195a1.505 1.505 0 003.01 0V67.3c0-.157.056-.311.156-.434l2.56-3.129a1.506 1.506 0 00-.211-2.118zm-35.723 3.505a10.302 10.302 0 01-3.153-7.396v-3.23a1.506 1.506 0 10-3.011 0v3.23c0 3.592 1.486 7.08 4.078 9.568l1.067 1.024c.274.263.43.632.43 1.011v31.997a1.506 1.506 0 103.012 0V69.331a4.434 4.434 0 00-1.357-3.183l-1.066-1.024zm61.121 6.389l-9.56-12.458a1.92 1.92 0 00-1.535-.757 1.92 1.92 0 00-1.535.757l-9.56 12.458a1.923 1.923 0 00-.2 2.033 1.922 1.922 0 001.734 1.079h2.84v26.734a1.506 1.506 0 103.011 0v-28.24c0-.832-.674-1.506-1.505-1.506h-2.162l7.377-9.612 7.376 9.612h-2.16c-.832 0-1.507.674-1.507 1.506v28.222a1.505 1.505 0 003.012 0V74.625h2.84c.742 0 1.407-.414 1.735-1.08a1.923 1.923 0 00-.201-2.032zM14.49 59.055a1.92 1.92 0 00-1.535-.757 1.92 1.92 0 00-1.535.757L1.86 71.513a1.922 1.922 0 00-.2 2.033 1.923 1.923 0 001.735 1.079h2.84V86.92a1.506 1.506 0 103.01 0v-13.8c0-.833-.673-1.507-1.505-1.507H5.578l7.377-9.612 7.377 9.613H18.17c-.831 0-1.506.673-1.506 1.505v28.222a1.505 1.505 0 003.012 0V74.625h2.84c.741 0 1.406-.414 1.735-1.08a1.922 1.922 0 00-.201-2.032l-9.56-12.458zm-6.75 32.78c-.832 0-1.506.674-1.506 1.506v8.018a1.506 1.506 0 103.012 0v-8.018c0-.831-.674-1.506-1.506-1.506zM20.36.757A1.92 1.92 0 0018.827 0a1.92 1.92 0 00-1.535.757l-9.56 12.457a1.922 1.922 0 00-.2 2.034 1.923 1.923 0 001.735 1.078h2.84v26.735a1.506 1.506 0 103.01 0V14.82c0-.832-.673-1.506-1.505-1.506H11.45l7.376-9.612 7.377 9.612H24.04c-.831 0-1.505.674-1.505 1.506v28.221a1.505 1.505 0 103.011 0V16.326h2.84c.741 0 1.406-.413 1.735-1.079a1.922 1.922 0 00-.2-2.033L20.36.757z"/></g><defs><clipPath id="clip0"><path fill="#fff" d="M0 0h103v103H0z"/></clipPath></defs></svg>